<svg width="215.72" height="83.792" version="1.1" viewBox="-.55859 -24.436 220.12 89.222" xmlns="http://www.w3.org/2000/svg">
<g fill-rule="evenodd" style="paint-order:normal">
<path d="m4.9716-24.436c-.16383-.004-.34985.011014-.56152.043674-4.056.534-6.8258 2.5988-8.3084 6.1954a16.708 16.708 0 00-1.0669 4.2031v.24541a13.228 13.228 0 00.95874 3.5397 17.859 17.859 0 001.6035 2.9532 11.803 11.803 0 00.45961.64263c.818 1.07 1.8396 2.0328 3.0676 2.8908a19.699 19.699 0 003.1861 1.7906 51.944 51.944 0 003.6145 1.6346 357.75 357.75 0 013.7123 1.5369 1.186 1.186 0 01.064471.035355.859.859 0 01.42218.55112c0 .18-.02346.33138-.072789.45338a.589.589 0 01-.22045.28076 21.264 21.264 0 01-.574.44922c-2.6133 1.972-5.2272 2.9573-7.8405 2.9573a10.466 10.466 0 01-1.3518-.087348c-.83333-.052-1.3328.28101-1.4995 1.0003a2.719 2.719 0 00-.062391.61143l.097746 20.312a14.109 14.109 0 01-.1539 2.1712c-.356 2.2753-1.3293 3.715-2.922 4.3216-.39067.16267-.56923.43914-.53656.8298a.717.717 0 00.1747.4305c.13067.14733.33186.24897.60519.30364a53.829 53.829 0 012.3501.70502c6.85 2.236 11.096 5.3055 12.738 9.2068.26067.618.8481.618 1.7594 0a35.012 35.012 0 012.1525-1.3518 45.622 45.622 0 012.7785-1.4807 26.188 26.188 0 001.984-1.0814 21.18 21.18 0 002.8492-2.0423l.049913-.099826c1.6593-1.1613 3.1937-2.6204 4.6024-4.3778a31.64 31.64 0 003.0135-4.5566 28.236 28.236 0 00.91299-1.8114c.86266-1.8753 1.5769-3.9453 2.1463-6.21a51.763 51.763 0 001.1896-6.628v-.14558a32.916 32.916 0 00-1.1875-6.4679 22.456 22.456 0 00-4.8312-8.8845c3.5713.84658 7.8827.86197 10.282.78613l.14142 24.247a18.621 18.621 0 000 .00208 18.621 18.621 0 000 .002079 18.621 18.621 0 000 .00208 18.621 18.621 0 000 .00208 18.621 18.621 0 000 .002079 18.621 18.621 0 000 .00208 18.621 18.621 0 000 .00208 18.621 18.621 0 000 .00208 18.621 18.621 0 000 .002079 18.621 18.621 0 000 .00208 18.621 18.621 0 000 .00208 18.621 18.621 0 000 .002079 18.621 18.621 0 000 .00208 18.621 18.621 0 000 .00208 18.621 18.621 0 000 .002079 18.621 18.621 0 000 .00208 18.621 18.621 0 000 .00208 18.621 18.621 0 000 .00208 18.621 18.621 0 000 .002079 18.621 18.621 0 000 .00208 18.621 18.621 0 000 .004159 18.621 18.621 0 000 .00208 18.621 18.621 0 000 .00208 18.621 18.621 0 000 .002079 18.621 18.621 0 000 .00208 18.621 18.621 0 000 .00208 18.621 18.621 0 000 .00208 18.621 18.621 0 000 .002079 18.621 18.621 0 000 .00208 18.621 18.621 0 000 .00208 18.621 18.621 0 000 .002079 18.621 18.621 0 000 .00208 18.621 18.621 0 000 .00208 18.621 18.621 0 000 .00208 18.621 18.621 0 000 .002079 18.621 18.621 0 000 .00208 18.621 18.621 0 000 .00208 18.621 18.621 0 000 .002079c-.0073 1.6867-.24318 3.0538-.70918 4.1012a4.033 4.033 0 01-2.4145 2.3147c-.19867.090669-.34548.21187-.43882.36187a.856.856 0 00-.1227.4201c-.01333.284.16299.50625.53032.66758a2.413 2.413 0 00.32443.1123c3.646 1.1227 6.8278 2.5243 9.5458 4.201a26.191 26.191 0 016.7611 5.8585 3.494 3.494 0 00.1227.13102c.57267.58666 1.0698.63483 1.4911.1435a2.01 2.01 0 00.19341-.27452 17.612 17.612 0 01.68006-1.2624 14.12 14.12 0 015.0329-5.0849 34.912 34.912 0 006.836-5.2741 36.317 36.317 0 004.7854-5.7857c.4304-.64539.80253-1.3191 1.1314-2.0152l5.3365-7.6658c-.25962 1.2388-.41454 2.5062-.44714 3.7892-.0068.28128-.010509.563-.010399.84436 0 .59333.016504 1.1772.047834 1.7532.19139 6.4059 2.938 12.468 7.6284 16.835 1.5613 1.4853 2.5187 2.6009 2.8721 3.3462.09152.17327.14538.36377.15598.55944-.044.35666.005799.60744.15182.75077.07251.06816.1638.11303.26204.12894.04419.0082.09024.012699.13518.012479.24467 0 .54078-.11291.89011-.33691.12621-.08178.24977-.16924.36811-.26204.88441-.66346 1.7659-1.3272 2.6475-1.9944.95763-.72462 1.915-1.4515 2.87-2.1795l2.8554-2.1774 2.6121-1.9965c.0538-.03076.11045-.057209.16845-.079029.13867-.052.28781-.079029.44714-.079029.0558 3e-4.11097.004099.16637.010399.07.052309.13646.1082.19966.16846.14533.13866.24237.27869.28907.41802.54933 2.3073 1.5302 4.0948 2.9449 5.3615 1.1623 1.0164 2.5704 1.7092 4.0845 2.0111.48867.13067.9127.39197 1.2707.78197.0347.04022.07151.07803.10815.11646.60467.62867 1.1208.59087 1.5515-.11646l.04991-.047833c.75645-1.8385 1.6793-3.604 2.7577-5.2741 1.1178-1.7342 2.2492-3.46 3.3941-5.1764.0202-.03435.03913-.069001.05823-.10399.20094-.36608.7608-.08965 1.0003 0 1.5922 3.1319 4.0408 5.8252 7.358 8.0755.0758.05684.15335.11397.23085.16846.238.16667.49788.3318.77988.49913.30104.17748.60775.34693.91923.50537.13718.06941.26866.14884.39307.23917.49981.34988.73079.70341.76949 1.3123l.01248-.00208-5.3012 8.3604 1.4641 1.4163c.814-.42333 1.6931-.63639 2.6371-.63639 1.1393 0 2.0991.29372 2.8804.87972.52363.39093.90348.94441 1.0773 1.5743.0996.36148.1465.73563.1435 1.1106-1e-4.13851-.00503.27789-.01663.41594-.0627.774-.30382 1.4429-.72582 2.0069-.3417.44536-.76974.81734-1.2582 1.0939-1.1067.65133-2.6042.97538-4.4922.97538-2.0187 0-3.9402-.30888-5.7629-.92755l-.97746 2.1982c.62667.26867 1.4092.50601 2.3438.71334.45394.09968.90989.18642 1.3684.26204.41554.07747.83072.15192 1.2478.22045 2.2873.37467 4.3294.56152 6.1247.56152.71033.0011 1.4211-.02442 2.1296-.07487 1.0567-.077329 2.033-.21303 2.9303-.4097.93023-.19666 1.8364-.49214 2.7036-.8818 1.8133-.81533 3.0606-1.9558 3.7393-3.4211.41789-.93559.62468-1.9515.60728-2.9761.0209-1.2077-.33258-2.3924-1.0107-3.392-.45783-.65396-1.025-1.2249-1.6762-1.6866-.93597-.68884-1.9978-1.1865-3.1258-1.4662-.94213-.23252-1.9079-.34639-2.8783-.33899-1.3347 0-2.8825.24406-4.6398.73206l4.9164-7.3559c1.3554-.96273 2.7541-1.8645 4.1906-2.7015.3003-.17554.60089-.35096.90259-.52408 2.1818-1.2508 4.3958-2.443 6.6405-3.5771.42333-.19533 4.278-1.7407 4.278-1.7407s-.00832-.020567-.00832-.020797a23.983 23.983 0 004.4589 5.6672c1.5613 1.4853 2.5187 2.6009 2.8721 3.3462a1.356 1.356 0 01.15598.55944c-.0447.35667.00801.60744.1539.75077a.499.499 0 00.26204.12894.714.714 0 00.1331.012479c.24466 0 .54079-.11291.89012-.33691a5.007 5.007 0 00.3681-.26204 784.4 784.4 0 002.6496-1.9965 1005.1 1005.1 0 002.8679-2.1774 5184.1 5184.1 0 002.8554-2.1795 3971.8 3971.8 0 002.6142-1.9944 1.164 1.164 0 01.16638-.079028c.13867-.052.2878-.079029.44713-.079029a1.56 1.56 0 01.16638.010398 2.198 2.198 0 01.20173.16846c.14533.13867.24033.27869.287.41802.54933 2.3073 1.5323 4.0948 2.9469 5.3615a8.828 8.828 0 004.0845 2.0111c.48866.13067.91063.38989 1.2686.77989a3.177 3.177 0 00.10814.11854c.604.62867 1.1229.58879 1.5535-.11854l.04784-.047833a32.573 32.573 0 012.7598-5.2741 394.53 394.53 0 011.3497-2.0589c3.1239 1.0486 5.8874 2.3107 8.2876 3.7913a26.191 26.191 0 016.7632 5.8585 3.494 3.494 0 00.1227.1331c.572.58667 1.0677.63483 1.4891.1435a2.01 2.01 0 00.19549-.2766 17.612 17.612 0 01.68007-1.2603 14.12 14.12 0 015.0329-5.087 34.912 34.912 0 006.836-5.272 36.317 36.317 0 004.7854-5.7878c1.3993-2.0993 2.2612-4.4655 2.5872-7.1022a11.131 11.131 0 00.01456-.15182c.19467-2.2213-.22563-4.9874-1.2603-8.298a35.809 35.809 0 00-.74662-2.1525c-.43734-1.138-.90976-2.1789-1.4204-3.1196a17.564 17.564 0 00-1.8114-2.7348c-2.8973-3.386-4.623-6.8354-5.1764-10.351-.014-.17267-.05011-.31351-.10607-.42218a.478.478 0 00-.30987-.26204c-.244-.064667-.51219-.015008-.80485.14766a49.124 49.124 0 01-8.6869 4.0658 56.942 56.942 0 01-14.408 3.0135 1.559 1.559 0 00-.21005.035355c-.0827.01933-.15645.045699-.22045.079029a.582.582 0 00-.22877.20173c-.114.17933-.13951.37514-.07487.58648a1.424 1.424 0 01.00624.014558c.062.21.09359.4902.09359.8402l.14558 24.902a18.621 18.621 0 010 .00624 18.621 18.621 0 010 .022876 18.621 18.621 0 010 .027036 18.621 18.621 0 010 .020797c-.006 1.5912-.22544 2.8876-.64055 3.9098-.0175.01381-.03439.020435-.05199.035355a2.519 2.519 0 00-.25581.25164 8.609 8.609 0 01-.16221.1747c-.91733.95666-1.7874 1.398-2.61 1.3227a2.112 2.112 0 01-.76741-.22669c-1.0907-.55333-1.6346-1.5786-1.6346-3.0759l-.14766-22.317v-.097746a5.075 5.075 0 011.1126-2.8076 6.921 6.921 0 011.3788-1.2936 5.952 5.952 0 00.04783-.037435c1.0587-.82533 1.0285-1.3971-.09151-1.7158a5.003 5.003 0 00-.44505-.10399 19.357 19.357 0 01-5.1036-1.853c-1.7007-.88933-3.4008-2.0501-5.1015-3.4814a44.363 44.363 0 01-4.6398-4.5774 4.279 4.279 0 00-.15806-.15806c-.83599-.77867-1.4989-.69145-1.9882.25788a28.667 28.667 0 01-1.3102 2.1317 23.366 23.366 0 01-3.0613 3.6769c-1.644 1.5953-3.409 3.1094-5.297 4.5421a30.455 30.455 0 00-2.9095 2.5268 21.087 21.087 0 00-6.6135 14.807 34.465 34.465 0 00-.00832.84228c0 .59333.01446 1.1793.04576 1.7553a23.983 23.983 0 001.2166 6.7029c.0351 3.0101-2.7189 4.9801-3.1944 5.2013-.1438.05598-.28914.10879-.43466.16014-2.516.88466-5.0319.97361-7.5472.26828-1.1675-.3341-2.2904-.80597-3.3462-1.4059-.59219-.33331-1.1494-.72471-1.6638-1.1688-2.0447-1.7573-3.6906-4.4737-4.9372-8.1504-.55974-1.6809-1.0134-3.395-1.358-5.1327-.12594-.59685-.23589-1.1981-.32859-1.801-.3467-2.2473-.4793-4.6104-.3993-7.0897.0481-1.4356.16049-2.869.33691-4.2946.0787-.64972.17893-1.295.29948-1.9383.40267-2.1333.99854-3.8319 1.7885-5.0932.49625-.83571 1.1864-1.5396 2.0132-2.0506.84599-.488 1.4334-.39009 1.7594.29324l5.0766 10.548c.008.01571.01488.030134.02288.045754.51067.992 1.1434 1.3287 1.8967 1.0087.11376-.04936.22266-.109.32651-.17677 1.9782-1.3318 4.2322-2.1979 6.5927-2.5372.084-.01505.16512-.040749.24332-.074869.45999-.20733.49312-.72098.09775-1.539l-5.713-11.522c-.48867-.944-1.0913-1.3508-1.8073-1.2208-2.6367.684-5.207 1.5699-7.7136 2.6599-.0782.034301-.1572.068953-.235.10399-2.3384 1.029-4.5011 2.4192-6.4076 4.1199-5.4033 4.8507-7.9088 11.915-7.5181 21.192.11811 2.7224.57147 5.4148 1.3331 8.0214.32563 1.8807.02469 3.2949-.36603 3.627-.0902.07791-.17542.16176-.25372.25164-.0535.05908-.10712.1192-.16222.17678-.91732.95666-1.7874 1.3959-2.61 1.3206-.26779-.02612-.52854-.10286-.76741-.22669-1.0907-.55333-1.6367-1.5786-1.6367-3.0759l-.14558-22.315v-.097746c.0773-1.0268.4658-2.0064 1.1126-2.8076.39799-.49233.86042-.9273 1.3768-1.2936.0161-.01225.03193-.025025.04783-.037435 1.0587-.82533 1.0285-1.3971-.0915-1.7158-.14636-.04106-.29349-.07434-.44298-.10191-1.7796-.37519-3.4982-1.0004-5.1036-1.8551-1.7007-.88933-3.4009-2.0501-5.1015-3.4814-1.6564-1.4099-3.2078-2.938-4.6398-4.5753-.0523-.054072-.10514-.10681-.16014-.15806-.83532-.77867-1.4989-.69353-1.9882.2558-.40573.72975-.84236 1.4401-1.3102 2.1317-.89152 1.3271-1.9161 2.5592-3.0592 3.6769-1.6433 1.5953-3.409 3.1094-5.297 4.5421-1.022.78008-1.9942 1.6239-2.9095 2.5268-1.6251 1.5325-2.9741 3.3007-4.0263 5.2242l-6.0748 8.7264c.01706-.11906.039242-.23545.054072-.35563a11.131 11.131 0 00.014558-.14974c.19533-2.2213-.22564-4.9874-1.2603-8.298a35.809 35.809 0 00-.74661-2.1546c-.43667-1.138-.90977-2.1768-1.4204-3.1175a17.564 17.564 0 00-1.8114-2.7348c-2.8973-3.386-4.6231-6.8374-5.1764-10.353-.01467-.17267-.048649-.31351-.10398-.42218a.478.478 0 00-.30988-.26204c-.24467-.064667-.51426-.015007-.80692.14766a49.124 49.124 0 01-8.6869 4.0658 56.942 56.942 0 01-14.408 3.0135 1.559 1.559 0 00-.21005.035355c-.06464.015117-.11772.038714-.17054.062391-2.1901.071971-9.6595.12079-14.789-2.244a56.943 56.943 0 00-4.4111-3.0301 67.111 67.111 0 00-11.777-5.6755c-.03267-.03267-.065076-.049913-.097746-.049913a15.865 15.865 0 01-1.017-.22877 13.296 13.296 0 01-4.7708-2.2856 9.784 9.784 0 01-.73206-.61559c-.42533-.396-.77276-.80063-1.0461-1.2166a4.207 4.207 0 01-.73622-2.2461c-.064667-2.3113 1.1888-3.824 3.7601-4.54.446-.11866.65532-.37466.62599-.76533a1.136 1.136 0 00-.014558-.11438c-.061-.342-.3383-.51832-.8298-.53032zm159.24.30572c-2.93 0-5.2562 1.2534-6.9816 3.7601-.78133 1.204-1.417 2.9456-1.905 5.2242h1.8572a7.191 7.191 0 01.0104-.045753c.346-1.242.94247-2.078 1.7865-2.504a3.338 3.338 0 011.5223-.33067c.78333 0 1.7286.1372 2.8346.41386a25.571 25.571 0 011.6076.46377 121.54 121.54 0 00.9941.31612c3.0207.95 5.3701 1.5503 7.0481 1.7989a10.68 10.68 0 001.5286.13102 8.095 8.095 0 004.4776-1.2561 9.205 9.205 0 002.4083-2.3085 10.632 10.632 0 00.58855-.91715c.72266-1.256 1.2914-2.789 1.7054-4.6003h-2.0028a14.207 14.207 0 01-.15182.4097c-.178.454-.35508.8292-.53241 1.1272a3.272 3.272 0 01-.29116.41802c-.58599.68333-1.4326 1.0232-2.5393 1.0232a6.628 6.628 0 01-.70086-.039514c-.95933-.10267-2.2226-.39937-3.7913-.88803a259.12 259.12 0 00-.45962-.14974c-1.746-.56866-3.0099-.95879-3.7892-1.1688a29.902 29.902 0 00-1.6118-.41386c-1.3667-.30933-2.5718-.46377-3.6124-.46377zm-109.8 22.438c.063329 0 .12883.0097798.19549.029116a.946.946 0 01.15806.062391 1.441 1.441 0 01.12894.07279c.15467.098667.25788.21107.30988.34107a29.525 29.525 0 001.1147 2.741 24.216 24.216 0 004.696 6.8297 23.094 23.094 0 01.71334.84228 25.073 25.073 0 013.2173 5.2138 17.306 17.306 0 011.1605 3.4066 21.495 21.495 0 01.52408 4.3549 18.999 18.999 0 01.039515 1.1938 15.272 15.272 0 01-4.2384 10.771 3.343 3.343 0 01-.21837.24332c-.546.55-1.1269.69772-1.7449.44506a2.242 2.242 0 01-.38059-.19965l-8.6432-5.3719c-.39067-.19533-.5844-.5373-.5844-1.0253l-.19549-28.126a1.217 1.217 0 01.022876-.24541c.05933-.28667.23036-.48106.51369-.5844a33.828 33.828 0 002.9303-.92755.62.62 0 01.28076-.06655zm39.93 2.7223c.44416-.010667.93816.25154 1.4828.78821.16143.16007.31456.32823.45961.50329.24924.23731.50161.4702.75701.70086 2.388 2.156 4.4964 3.4855 6.3244 3.9868.42267.13.63431.38922.63431.77989l-.4409 22.413v.11646c7e-4.72733.01004 1.3148.02704 1.7615.005.13943.01387.27879.02287.41802 0 .10933-.03012.22539-.08942.34939-.0311.064839-.06601.12751-.10607.18717-1.5607 1.6687-2.9331 2.5019-4.1157 2.5019-.24391.000645-.48702-.036679-.71958-.11022-.032-.03267-.062966-.047834-.095666-.047834-3.9473-1.5787-6.6983-5.1122-8.2523-10.598-.52879-1.9199-.90435-3.8771-1.123-5.8564-.13239-1.0863-.20023-2.1812-.20173-3.2755-.01175-4.9142 1.4716-9.7143 4.253-13.766.34366-.558.73918-.84201 1.1834-.85268zm69.685.69462c.444-.01067.93817.25362 1.4828.79029a6.979 6.979 0 01.46169.50329 39.192 39.192 0 00.75494.70086c2.388 2.156 4.4964 3.4855 6.3244 3.9868.42266.13.63431.38922.63431.77989l-.43882 22.413a97.235 97.235 0 000 .11646c.00067.72733.01003 1.3128.02703 1.7594a15.329 15.329 0 00.0208.41802c0 .10933-.02875.22747-.08735.35147a1.486 1.486 0 01-.10814.18717c-1.5607 1.6687-2.9331 2.5019-4.1157 2.5019a2.364 2.364 0 01-.71749-.11022c-.032-.03267-.06515-.047834-.09775-.047834-3.9473-1.5787-6.6983-5.1122-8.2523-10.598a37.618 37.618 0 01-1.123-5.8585 27.373 27.373 0 01-.19965-3.2735 24.221 24.221 0 014.253-13.766c.34333-.558.73727-.84409 1.1813-.85476zm39.159.12478c.064 0 .12883.0097959.19549.029116a.946.946 0 01.15806.064471 1.441 1.441 0 01.12894.07071c.15534.09867.25855.21315.30988.34315a29.525 29.525 0 001.1147 2.741 24.216 24.216 0 004.696 6.8297 23.094 23.094 0 01.71334.84228 25.073 25.073 0 013.2173 5.2117 17.306 17.306 0 011.1605 3.4086 21.495 21.495 0 01.52409 4.3549 18.999 18.999 0 01.03743 1.1938 15.272 15.272 0 01-4.2364 10.769 3.343 3.343 0 01-.21837.24332c-.54533.55-1.1283.6998-1.747.44714a2.242 2.242 0 01-.37851-.20173l-8.6432-5.3719c-.39062-.19534-.5844-.5373-.5844-1.0253l-.19757-28.124a1.217 1.217 0 01.02496-.24541c.0587-.28667.22969-.48106.51368-.5844a33.828 33.828 0 002.9282-.92755.62.62 0 01.28284-.06863zm-188.65.69878a.935.935 0 01.18509.060311 75.299 75.299 0 011.3996.67174c.91866.454 1.6847.86153 2.2981 1.2229a14.611 14.611 0 01.79445.49705c4.9807 3.516 7.8033 8.7 8.4706 15.552a41.572 41.572 0 01.081108.94626c.23667 3.1827.07162 6.0609-.49705 8.6349a18.799 18.799 0 01-2.9781 6.8984 3.487 3.487 0 01-.25164.28908c-.646.658-1.3442.75806-2.0922.2974l-10.546-6.2017c-.39066-.19533-.58648-.5373-.58648-1.0253l-.19549-24.12c0-.684.32613-1.2694.97746-1.7574l2.296-1.8073c.20467-.15333.41938-.20606.64471-.15806z" style="paint-order:normal" />
</g>
</svg>
