<svg width="219.11" height="83.755" version="1.1" viewBox="-.67131 -22.849 223.59 89.277" xmlns="http://www.w3.org/2000/svg">
<g fill-rule="evenodd" style="paint-order:normal">
<path d="m20.576-12.924a16.921 16.921 0 00-7.3028-.77224q-2.5785.28288-5.2609 1.3156-1.2988.41209-1.1188 1.2736a1.3 1.3 0 00.04891.17069q.35432.99228 1.5635.36869a19.651 19.651 0 011.8636-.75674q1.7668-.61232 3.4914-.80152a13.737 13.737 0 016.2986.77073 14.945 14.945 0 012.5299 1.3099 10.788 10.788 0 013.0423 2.9176q1.2543 1.8231 1.2086 3.6902a5.803 5.803 0 01-.35638 1.8408q-1.0237 2.7641-5.373 3.192-4.3492.42884-11.487-4.634a2.585 2.585 0 00-.1069-.0758q-.61509-.40735-.93859-.05497a54.783 54.783 0 01-5.9509 6.4243q-3.1916 2.9295-5.6225 6.2907a11.872 11.872 0 00-2.2942 7.9637 7.645 7.645 0 00.02675.29886q.45987 4.1919 5.5767 8.4684 1.3858 1.1699 2.2392 2.218a8.456 8.456 0 01.74857 1.0647 1.946 1.946 0 01.25932.77736q.10512.95825-.70282 2.1676a8.687 8.687 0 01-.6399.83375q-1.2638 1.4646-2.5223 2.9778a108.28 108.28 0 00-2.4194 3.0168 3.243 3.243 0 00-.09651.15646q-.5866 1.0261.40129 1.2829a204.4 204.4 0 012.8827.62839 180.78 180.78 0 018.2434 2.0563q3.4014.93666 4.9986 2.3459a4.154 4.154 0 011.218 1.7124q.60164 1.8987 2.2052-.04575a531.83 531.83 0 016.5419-8.2084 94.264 94.264 0 006.1636-8.5109q1.6566-2.5981 1.0525-5.5549a9.454 9.454 0 00-.41964-1.4408 8.718 8.718 0 00-.97104-1.8179q-1.4305-2.0995-4.4081-4.5192a52.106 52.106 0 00-3.2175-2.3964 4.32 4.32 0 01-.17199-.12801q-1.73-1.3544-.43704-3.3694a6.642 6.642 0 01.5398-.71915q1.1336-1.3034 2.4241-2.5254.96777-.917 2.333-2.3746a116.98 116.98 0 00.95324-1.0311q1.9957-2.1847 1.9902-6.2604a12.554 12.554 0 00-.0731-1.3541 10.653 10.653 0 00-2.4245-5.7408 13.686 13.686 0 00-2.3779-2.2622 15.526 15.526 0 00-4.1514-2.1793zm-8.8949 33.986 8.0587-9.8244a1.71 1.71 0 00.13326-.21582q.13266-.258.10834-.47968a.62.62 0 00-.07367-.23135.691.691 0 00-.46455-.34641q-.14992-.03688-.33854-.03228a12.688 12.688 0 01-2.5923-.27393q-1.2102-.2475-2.5323-.71713a24.97 24.97 0 01-1.2249-.47324 535.25 535.25 0 01-2.3142-1.0036q-2.9057-1.2687-4.3963-1.9723a36.794 36.794 0 01-.7799-.37821q-1.4797-.74206-3.293 1.4457a12.795 12.795 0 00-.71671.95888 8.679 8.679 0 00-.758 1.3527q-1.4209 3.2242 1.3072 5.7719a8.742 8.742 0 00.22996.20716 66.036 66.036 0 003.9517 3.1649q2.1128 1.57 4.555 3.1621a105.82 105.82 0 00.07701.0509 1.277 1.277 0 00.19864.09591q.50176.19042.8646-.26185zm-.57634 3.2563-6.0772 7.7399q-.38328.85288.38318 1.2094a1.597 1.597 0 00.04657.02105 654.86 654.86 0 007.2387 2.3979q3.6158 1.1757 7.2706 2.2486 2.2706.71566 4.1127-2.4742a13.607 13.607 0 00.43768-.82465 4.114 4.114 0 00.4058-2.2798q-.46946-4.2793-9.7505-9.4672-1.7608-.80981-3.944 1.3069a10.57 10.57 0 00-.12341.12219z" style="paint-order:normal" />
<path d="m161.53-22.849c-.16383-.004-.35253.01105-.56419.04372-4.0553.534-6.8235 2.5991-8.3068 6.1958-.53711 1.3488-.89613 2.7618-1.068 4.2034v.24567c.15472 1.2187.47844 2.4099.96184 3.5392.44031 1.0329.97705 2.0221 1.6031 2.9542.14549.21878.29825.43264.45802.64123.81798 1.07 1.8407 2.0338 3.0687 2.8918 1.0047.69431 2.0717 1.2937 3.1874 1.7904 1.1828.59053 2.3877 1.1357 3.6121 1.6343 1.2402.50588 2.4776 1.0187 3.712 1.5385.0219.011127.0434.02293.0645.035392.21184.11569.36523.31517.42263.54962 0 .18-.0235.33186-.0729.45386-.0431.11351-.12013.21095-.22068.27898-.18895.15317-.38052.30309-.57461.44969-2.6133 1.972-5.2271 2.9584-7.8405 2.9584-.45111-4.12e-5-.90175-.029249-1.3491-.08744-.834-.052-1.3344.28207-1.5011 1.0014-.0437.20033-.0647.40496-.0624.61l.0978 20.313c.005.72599-.047 1.4512-.15406 2.1693-.11568.74074-.30281 1.3848-.54963 1.9487-.26421.01608-.50783.2138-.72867.59543-.87865 1.5953-2.0337 1.9536-3.4664 1.0743-.43043-.27569-.7774-.66368-1.0035-1.1221-.38867-.73066-.64281-1.7368-.76614-3.0188-.0596-.65267-.0881-1.3078-.0854-1.9632v-20.655c-.00042-.1763.002-.3526.008-.5288.0573-1.58.38075-2.7304.96808-3.4497.16756-.20589.34764-.40127.53922-.58502.48929-.47655 1.0691-.85029 1.7051-1.0992.0922-.027051.18094-.06478.2644-.11242.23267-.13667.34768-.33842.34768-.60375.00031-.013878.00031-.02776 0-.041638-.0167-.374-.31755-.62573-.90355-.75573-3.32-.586-5.6723-1.481-7.0556-2.6857-1.384-1.2047-3.0522-2.8335-5.0049-4.8842-.0791-.085319-.16177-.16728-.24775-.24567-.68666-.62667-1.1908-.56022-1.5115.19778-.0157.032034-.0317.063957-.0479.095768-.47267.934-1.2105 1.9257-2.2152 2.975-.50897.52909-1.0404 1.0362-1.5927 1.5198-.46794.4108-.93707.82024-1.4074 1.2283-1.3595 1.1823-2.7302 2.3516-4.1118 3.508-.19534.146-.38969.2186-.58502.2186-.0659.0004289-.13165-.00726-.1957-.022901-.10918-.026481-.20785-.085245-.28314-.16863-.0553-.061333-.10141-.13693-.13741-.22693-.0308-.077327-.0538-.15753-.0687-.23942-.39239-1.4117-1.0745-2.7263-2.0028-3.8599-.79933-.99666-1.8017-1.9356-3.0084-2.8189-1.1322-.81757-2.3299-1.5404-3.5809-2.161l-.05-.047884c-.0706-.041142-.1428-.079341-.21652-.1145-.68733-.33-1.2543-.23395-1.7009.28939-.10653.127-.19999.26441-.27897.41014-.90604 1.5523-1.7937 3.1152-2.6628 4.6885-.85825 1.5561-1.7615 3.0869-2.7086 4.5906-.022.035068-.0436.070466-.0645.10618-.424.72667-.41801 1.2617.0166 1.6031.0183.01441.0371.028295.0562.041638.43267.30067.82112.12378 1.1638-.53089.10182-.1846.21517-.36261.33935-.53297.85734-1.1587 1.9156-1.3234 3.1749-.49341.43071.27626.77772.66501 1.0035 1.1242.38867.73.64489 1.7361.76822 3.0188.0589.65204.0867 1.3065.0833 1.9612v16.212l.002.0021v.0987l-.002.0021c-.004 1.6463-.11558 3.0696-.33102 4.2742-1.0581 1.5116-3.5497 3.9377-9.3623 6.3457-.18582.007-.39947.0565-.66205.17488-.11946.04601-.23953.09043-.36017.13324-2.5027.89-5.0123.98996-7.5303.30396-1.1455-.31855-2.2501-.76917-3.2915-1.3428-.46696-.25386-.91318-.54414-1.3345-.86816-2.1533-1.6553-3.8956-4.3061-5.2256-7.9508-.59352-1.6568-1.0769-3.351-1.4469-5.0715-.0024-.01523-.0044-.0305-.0062-.0458-.04667-.39933.11741-.69473.49341-.88273l20.02-7.7634h.0979c.55333-.228.66743-.78062.34143-1.6593l-7.0306-16.505c-.0325-.081056-.0679-.16091-.10618-.23942-.34667-.71133-.83125-1.0485-1.4552-1.0118-.0825.00471-.1646.015141-.24567.031229-2.6373.68333-5.2075 1.5721-7.7135 2.6628-.07858.033635-.157.067639-.23526.10201-2.3381 1.0291-4.4998 2.4194-6.406 4.1201-2.4425 2.1927-4.2876 4.8432-5.5462 7.9404-1.0306 1.8327-2.9596 4.8985-6.4435 9.5872.000734-.02359.0014-.04719.0021-.07079 0-2.6567-.52301-5.1881-1.5677-7.5927-.95589-2.1541-2.2467-4.1434-3.8245-5.8939-1.0649-1.1936-2.0986-2.4148-3.1-3.6621-.46933-.58618-.86442-1.2281-1.1763-1.9112-.37296-.82406-.6422-1.6912-.80154-2.5816-.03571-.1486-.11129-.28465-.2186-.39348-.0784-.078161-.16914-.14287-.26857-.19154-.202-.10067-.40384-.10508-.60584-.01041-.06256.029886-.12187.066166-.17696.10826-1.5955 1.2276-3.2177 2.4201-4.8654 3.5767-2.554 1.7978-5.1823 3.4877-7.8779 5.0653-.02809.01074-.05656.020462-.08536.029147-.23.068-.45446.058186-.67246-.029147-.17305-.067719-.3062-.21005-.36225-.38723-.02715-.080218-.04462-.16339-.05205-.24775-.03663-.33647-.08734-.67127-.15198-1.0035-.24686-1.3254-.76038-2.5869-1.5094-3.7079-.13525-.19994-.28558-.38926-.44969-.56628-.69867-.75533-1.7253-1.4228-3.0833-2.0028-.66356-.27902-1.3419-.52158-2.0319-.72659-.45211-.13167-.89338-.29802-1.3199-.49758-.44066-.21067-.8149-.44577-1.1242-.70577-.5947-.46597-.9803-1.1488-1.0722-1.8987-.01664-.14444-.02498-.28972-.02498-.43512 0-.89933.31752-1.8147.95351-2.746.29241-.4223.61898-.8199.97642-1.1888.456-.456.47122-.85368.04788-1.195-.02537-.02076-.05177-.04022-.07911-.05829-.40666-.26533-.8851-.10807-1.4344.47259-3.3533 3.06-5.281 6.0631-5.7856 9.0084-.07269.41944-.1096.84431-.11034 1.27 0 .68353.1096 1.3518.30604 2.007 1.4653 10.19-.59021 27.421-4.4136 21.265-5.6638.02018-4.129 8.2491-.42887 10.249 7.4934-6.2949 7.4222-22.333 7.1618-27.835.36753.37923.72597.75854 1.1721 1.1263.28554.24517.56326.49929.83276.76198.42301.41314.8293.84305 1.2179 1.2887.46067.52667.78043 1.2078.95976 2.0444.09088.43608.1452.87898.16239 1.3241.02931.90161.06262 1.8031.09993 2.7044.03467.85733.07176 1.6699.11242 2.4379.04408.85815.09544 1.7159.15406 2.5732.11 1.5873.17878 3.9434.20611 7.0681.0098 1.127.01465 2.254.01457 3.381v1.5135c0 .40266-.14728.64983-.43928.74116-.0953.02788-.19427.04121-.29355.03956-.81549.0461-1.6237.1794-2.4108.39764-3.4447.98533-5.1802 3.6694-5.2069 8.0507 0 .45533.15493.73958.46427.85358.24.08867.47435.05399.70368-.10201.07172-.04909.13864-.10486.19986-.16655 1.1673-1.2787 3.0351-1.5713 5.6024-.88065.46635.1268.9269.27406 1.3803.44136.20006.06298.36369.20843.44969.39973.04133.09018.07073.18536.08744.28314.08185 1.0451.17138 2.0895.26857 3.1333.30804 3.2682.68215 6.5298 1.1221 9.7829.22095 1.642.45274 3.2826.69536 4.9216.37891 2.572.78978 5.1392 1.2325 7.701.01492.06334.03511.12532.06038.18529.12533.302.36642.45926.72242.47259.318.012.5531-.10825.70577-.36225.05436-.09267.09636-.19206.12492-.29563.6789-3.395 1.3215-6.7972 1.9278-10.206.60267-3.3853 1.0986-6.8373 1.4886-10.353-.000347-.07704.008-.15386.02498-.22901.03757-.18985.16483-.3497.34143-.42887.244-.114.49715-.10568.75781.02498.80623.48404 1.6197.95599 2.44 1.4157.82105.45969 1.6352.93164 2.4421 1.4157.02178.01521.044.02979.06662.04372.396.24133.74753.16125 1.0555-.23942 2.572-3.548 6.2509-7.341 11.036-11.378 2.8044-2.3769 4.868-5.5084 5.9459-9.023.34203-1.0939.61666-2.2077.82235-3.3352 1.4772-3.2203 3.5008-6.2012 5.288-8.5129-.32972 2.214-.44872 4.5889-.34143 7.1368.17392 4.0062 1.0586 7.9495 2.6128 11.646 1.546 3.662 4.1908 6.7626 7.9342 9.302.07617.0567.15321.11222.23109.16655.23733.16733.49597.33299.77863.49966.30072.1781.60691.34682.91812.5059.13804.06911.27032.14917.39556.23942.49902.35057.81157.90902.84942 1.5177-.004.19768.10511.38032.28106.47051.13933.08133.33127.13506.57461.16239.06023.0076.12062.01388.18113.01874.48.03267.85249-.03836 1.1138-.21235.72566-.58766 1.4692-1.1528 2.2297-1.6947 1.0042-.69512 2.0311-1.3568 3.0791-1.9841 5.001-2.596 10.817-5.0569 14.717-6.6246.0368.11123.10382.21.19362.28522 1.0706.74687 2.0719 1.5886 2.9917 2.5149 1.8063 1.8384 3.3024 3.9575 4.4303 6.2749.0247.03393.0511.06659.0791.09785.16402.18819.40202.2954.65164.29355.1811.0019.3579-.05512.50382-.16239.0881-.06426.16603-.14147.23109-.22901.41678-.8436.87466-1.6662 1.372-2.465 1.5095-2.4604 3.4603-4.6208 5.7544-6.3727.15-.08533.25054-.20318.30187-.35184.0281-.08314.0422-.17039.0416-.25816v-.0021-.0021-.0021-.0021-.0021-.0021-.0021-.0021-.0021-.0021-.0021-.0021-.0021-.0021-.0021c-.005-.148-.0432-.2774-.1145-.3914-.0598-.09352-.13769-.1742-.22901-.23734-1.9533-.80067-2.9292-3.7427-2.9292-8.8294-.00026-.08397-.00026-.16794 0-.25191v-19.435c.00036-.15604.0582-.30649.16239-.42263.0536-.061293.11438-.11583.18113-.16239l5.0778-3.9556c.3-.17533.59099-.20702.87232-.093686.0889.03746.17276.085705.24983.14365l4.1513 3.4164v.09785h.0479c.0769.046393.14819.10159.21235.16447.25067.24333.41159.61299.48092 1.1097.0278.2091.041.41988.0396.63082l-.0479 25c-.086 3.8151 1.5662 7.4625 4.4907 9.914 1.3331 1.1343 2.811 2.0865 4.3949 2.8314.0282.01508.0566.02966.0854.04372.68598.34933 1.2823.26243 1.7863-.26024.12227-.12856.23174-.2687.32686-.41846.87988-1.5331 1.7501-3.0716 2.6107-4.6156.42624-.73546.86278-1.4649 1.3095-2.1881.39414.11348.78696.23146 1.1784.35392 6.85 2.236 11.097 5.3049 12.739 9.2062.26.618.8458.618 1.7571 0 .70164-.47703 1.4204-.92839 2.1548-1.3532.90847-.52519 1.8348-1.0189 2.7773-1.4802.67728-.33141 1.3399-.69191 1.9861-1.0805 1.0042-.60159 1.9568-1.2854 2.848-2.0444l.05-.09785c1.6593-1.1613 3.1924-2.6209 4.601-4.3783 1.1344-1.4293 2.143-2.9541 3.0146-4.5573.3255-.59196.62966-1.1954.91187-1.8092.46386-1.0084.8824-2.079 1.2616-3.1999 2.2805-3.0722 4.7431-6.6531 6.9286-9.912-.27279 2.0658-.36335 4.2707-.26441 6.6205.17392 4.0062 1.0586 7.9495 2.6128 11.646 1.5467 3.662 4.1908 6.7626 7.9342 9.302.0762.0567.15321.11222.23109.16655.238.16733.49664.33507.77864.50174.30144.17744.60832.34546.9202.50382.13732.06921.2689.14927.39348.23942.49981.35014.81317.90866.8515 1.5177-.004.19768.10511.38032.28106.47051.13934.08133.32986.13714.57252.16447.0609.007.12202.01252.18321.01666.48067.03267.85107-.03836 1.1117-.21235.72566-.58766 1.4692-1.1528 2.2297-1.6947 1.3558-.96249 2.7541-1.8635 4.1909-2.7002.30048-.1754.60167-.34958.90355-.52256 2.1812-1.2511 4.3951-2.4444 6.6392-3.5788.0318-.01406.0631-.02933.0937-.0458.30267-.16867.41011-.40069.32478-.69536-.0139-.04702-.0313-.09295-.052-.13741-.17866-.39067-.59365-.43907-1.245-.14573-.11877.04599-.23814.09041-.35809.13324-2.5033.89-5.015.99204-7.5323.30604-1.1455-.31855-2.2501-.76917-3.2915-1.3428-.46703-.25452-.91325-.54551-1.3345-.87024-2.1533-1.6553-3.8949-4.3061-5.2256-7.9508-.59352-1.6568-1.0769-3.351-1.4469-5.0715-.002-.01523-.004-.0305-.006-.0458-.046-.39933.11949-.69265.49549-.88065l20.018-7.7655h.0978c.55333-.228.66885-.78062.34351-1.6593l-7.0327-16.503c-.0325-.081758-.0679-.16231-.10618-.2415-.34667-.71133-.83125-1.0485-1.4552-1.0118-.0819.00549-.16325.016618-.24359.03331-2.6366.68333-5.2089 1.57-7.7156 2.6607-.0786.033635-.15699.067639-.23525.10201-2.3381 1.0291-4.4998 2.4194-6.406 4.1201-2.3236 2.0857-4.1066 4.5845-5.3588 7.4886-2.3708 3.9278-5.9918 9.4976-6.6663 7.9987-.0432-.09603-.0945-.15656-.1499-.18321.0229-.15327.0451-.30663.0666-.4601v-.14573c-.17932-2.1904-.57758-4.3574-1.1888-6.4685-1.2375-4.4781-3.8336-8.4622-7.4303-11.403-1.9275-1.5588-3.9548-2.99-6.0688-4.2846-3.7316-2.2705-7.676-4.1713-11.777-5.6753-.0327-.03267-.0658-.04997-.0978-.04997-.34108-.0652-.67993-.14158-1.016-.22901-1.7269-.43487-3.3489-1.2122-4.7696-2.2859-.25414-.19265-.49871-.39762-.73283-.61416-.426-.396-.77595-.80192-1.0493-1.2179-.45348-.66282-.70777-1.4416-.73283-2.2443-.0653-2.3113 1.1879-3.8246 3.7599-4.5406.44534-.11867.65324-.37339.62458-.76406-.003-.03909-.008-.078-.0146-.11659-.061-.342-.3371-.51889-.8286-.53089zm-67.285 21.721c.25316.00583.45891.11436.61624.3227.06742.092484.12269.19324.16447.29979l5.9584 14.6c.19534.488.0487.82897-.43929 1.0243l-10.401 3.9077c-.29267.13-.5375.12168-.73283-.02498-.10455-.07783-.1894-.17908-.24775-.29563-.04901-.09865-.08071-.20498-.09369-.31437-.18233-1.5276-.2734-3.0647-.27273-4.6031.0029-2.3527.20841-4.7007.61416-7.0181.06584-.3798.14011-.7581.22276-1.1346.72333-3.2933 1.935-5.4385 3.635-6.4352.02414-.01414.04843-.02802.07287-.041638.349-.19667.65038-.29314.90355-.2873zm117.55 1.9695c.25317.005833.45925.11228.61625.32061.0682.092372.12412.19313.16655.29979l5.9563 14.6c.19533.488.0494.82897-.43929 1.0243l-10.399 3.9077c-.29333.13-.5375.12168-.73283-.02498-.10506-.077-.19062-.17753-.24983-.29355-.0485-.09942-.0795-.20648-.0916-.31645-.18303-1.5275-.27479-3.0646-.27481-4.6031.004-2.3527.2098-4.7008.61624-7.0181.0652-.37979.13873-.75808.22068-1.1346.724-3.2933 1.9371-5.4385 3.6371-6.4352.0234-.014127.047-.028007.0708-.041638.34934-.19667.65038-.29105.90355-.28522zm-40.71 3.2957c.063.013755.12438.033987.18321.060375.46933.21933.93639.44349 1.4011.67246.91868.454 1.6844.86075 2.2984 1.2221.26965.15734.53419.32329.79321.49758 4.9806 3.516 7.804 8.6999 8.4713 15.552.0307.31474.0577.62983.0812.94519.23666 3.1827.0704 6.0597-.49757 8.6337-.51793 2.4767-1.5305 4.8234-2.9771 6.8994-.0793.10106-.16406.19767-.25399.28938-.646.658-1.3429.75838-2.0902.29771l-10.547-6.202c-.39067-.19533-.58502-.5363-.58502-1.0243l-.1957-24.121c0-.684.32575-1.2712.97642-1.7592l2.2943-1.8071c.20534-.15333.42215-.20414.64747-.15614zm-115.9 1.5302c1.7636-.056133 3.1309.59342 4.1014 1.9487 1.66 2.506 3.1975 5.1335 4.6135 7.8842s2.091 5.8686 2.0257 9.3519c-.0119.66132-.04106 1.3222-.08744 1.982-.17867 2.4887-.60638 4.627-1.2804 6.4144-.476 1.264-.97123 2.4151-1.4886 3.4518-.37594.759-.79152 1.4977-1.245 2.2131-.03891.06477-.08424.12545-.13532.18113-.21.224-.47753.28596-.80153.18529-.06333-.0201-.12523-.04445-.18529-.07287-1.6169-.90499-3.2208-1.8329-4.8113-2.7835-1.5884-.94958-3.2083-1.8453-4.8571-2.6857-.11413-.03538-.21497-.10429-.28938-.19778-.1-.12867-.1499-.30705-.1499-.53505 0-1.3427-.0091-2.4477-.02707-3.3144-.0059-.26237-.01353-.52469-.0229-.78696l-.63498-19.335c0-.586-.0084-1.0622-.02707-1.4282-.0051-.11045-.01206-.2208-.02082-.33102 0-.32533.16183-.56808.48717-.73075 1.8515-.89746 3.4646-1.3679 4.8363-1.4115z" style="paint-order:normal" />
</g>
</svg>
