<svg width="268.99" height="67.657" version="1.1" viewBox="-.55859 -5.2705 273.33 73.187" xmlns="http://www.w3.org/2000/svg">
<path d="m194.58-5.2705c-.67361-.00145-1.3441.094764-1.9902.28522-.85739.25968-1.6618.6674-2.379 1.2043-.18494.13549-.36225.27946-.53241.43311-.96962.83402-1.5627 2.0257-1.6416 3.3022-.13067 1.5627.11445 3.2723.73312 5.1276.61867 1.856 1.5133 2.7825 2.6853 2.7825.902.02467 2.0498-.4843 3.4438-1.5296.45313-.3427.8924-.70339 1.3162-1.0817 1.1267-.998 1.9665-1.9948 2.5205-2.9874.41088-.71084.67483-1.4965.77538-2.3113.009-.088563.01714-.17744.02324-.26621.17467-2.6487-.85227-4.2355-3.0783-4.7621-.61573-.13707-1.2454-.20399-1.8761-.19649zm-193.07.0063382c-.16383-.004-.35032.0095883-.56199.042255-4.056.534-6.8246 2.6-8.3073 6.1967a16.708 16.708 0 00-1.0669 4.2044v.24297a13.228 13.228 0 00.95919 3.541 17.859 17.859 0 001.6036 2.9536 11.803 11.803 0 00.45847.64228c.818 1.07 1.8418 2.0343 3.0698 2.8923a19.699 19.699 0 003.186 1.7895 51.944 51.944 0 003.6128 1.6353 357.75 357.75 0 013.7121 1.536 1.186 1.186 0 01.063382.035917.859.859 0 01.42466.55143c0 .18-.024613.33013-.073946.45213a.589.589 0 01-.21973.281 21.264 21.264 0 01-.57467.45002c-2.6133 1.972-5.2271 2.9578-7.8404 2.9578a10.466 10.466 0 01-1.3522-.088735c-.83333-.052-1.3334.28211-1.5 1.0014a2.719 2.719 0 00-.06127.61058l.097186 20.312a14.109 14.109 0 01-.15212 2.1719c-.356 2.2753-1.3314 3.716-2.924 4.3227-.39067.16267-.5693.43964-.53664.83031a.717.717 0 00.17536.42889c.13067.14733.33302.24957.60636.30424a53.829 53.829 0 012.3473.70566c6.85 2.236 11.097 5.3039 12.74 9.2052.26067.618.84647.618 1.7578 0a35.012 35.012 0 012.155-1.3522 45.622 45.622 0 012.7783-1.4789 26.188 26.188 0 001.9839-1.0817 21.18 21.18 0 002.2585-1.6205c3.2182-1.727 8.8095-4.388 12.807-4.4347a2.413 2.413 0 00.02324.008451c3.646 1.1227 6.8274 2.5214 9.5454 4.198a26.191 26.191 0 016.765 5.8586 3.494 3.494 0 00.12043.1331c.57267.58667 1.0703.63289 1.4916.14155a2.01 2.01 0 00.19226-.27466 17.612 17.612 0 01.6803-1.2613 14.12 14.12 0 015.0326-5.0854 34.912 34.912 0 006.8368-5.2734 36.317 36.317 0 004.7854-5.7868c1.4-2.0993 2.2628-4.4664 2.5881-7.103a11.131 11.131 0 00.012676-.15c.095371-1.0846.043613-2.3024-.15423-3.6466.49087-7.2649 4.2558-12.187 4.9185-13.002.3776.054481.77485.20935 1.1979.48804a2.807 2.807 0 011.0036 1.124c.38867.73.64359 1.7364.76693 3.0191a20.634 20.634 0 01.084509 1.9606v16.211a38.66 38.66 0 000 .002112 38.66 38.66 0 000 .002113 38.66 38.66 0 000 .002113 38.66 38.66 0 000 .002113 38.66 38.66 0 000 .002112 38.66 38.66 0 000 .002113 38.66 38.66 0 000 .002113 38.66 38.66 0 000 .002113 38.66 38.66 0 000 .002112 38.66 38.66 0 000 .002113 38.66 38.66 0 000 .002113 38.66 38.66 0 000 .002113 38.66 38.66 0 000 .002112 38.66 38.66 0 000 .002113 38.66 38.66 0 000 .002113 38.66 38.66 0 000 .002113 38.66 38.66 0 000 .002112 38.66 38.66 0 000 .002113 38.66 38.66 0 000 .002113 38.66 38.66 0 000 .002113 38.66 38.66 0 000 .002112 38.66 38.66 0 000 .002113 38.66 38.66 0 000 .002113 38.66 38.66 0 000 .002113 38.66 38.66 0 000 .002112 38.66 38.66 0 000 .002113 38.66 38.66 0 000 .002113 38.66 38.66 0 000 .002113 38.66 38.66 0 000 .002112 38.66 38.66 0 000 .002113 38.66 38.66 0 000 .002113 38.66 38.66 0 000 .002113 38.66 38.66 0 000 .002112 38.66 38.66 0 000 .002113 38.66 38.66 0 000 .002113 38.66 38.66 0 000 .002113 38.66 38.66 0 000 .002112 38.66 38.66 0 000 .002113 38.66 38.66 0 000 .002113 38.66 38.66 0 000 .002113 38.66 38.66 0 000 .002112 38.66 38.66 0 000 .002113 38.66 38.66 0 000 .002113 38.66 38.66 0 000 .002113 38.66 38.66 0 000 .002112 38.66 38.66 0 000 .002113 38.66 38.66 0 000 .002113 38.66 38.66 0 000 .002113 38.66 38.66 0 000 .002112c-.008666 3.3453-.45248 5.7782-1.3331 7.2995a3.661 3.661 0 01-1.8402 1.6796.781.781 0 00-.28945.36973.903.903 0 00-.050706.31269 1.038 1.038 0 00.025353.24085.63.63 0 00.26621.39508 21.761 21.761 0 012.9938 2.5142 23.838 23.838 0 014.4283 6.2749 1.241 1.241 0 00.080284.097187.856.856 0 00.65284.29367.836.836 0 00.50283-.16057 1.083 1.083 0 00.22818-.23029 28.788 28.788 0 011.3733-2.4656 23.444 23.444 0 015.7572-6.372c.15-.085333.24868-.20205.30001-.35072a.789.789 0 00.040142-.25987.987.987 0 000-.004226.987.987 0 000-.006338.987.987 0 000-.006338.987.987 0 000-.010564.987.987 0 010-.002113c-.004666-.148-.042755-.27897-.11409-.39297a.837.837 0 00-.22606-.23663c-1.9533-.80067-2.9304-3.7446-2.9304-8.8313a40.549 40.549 0 010-.25142v-19.433a.635.635 0 01.16057-.42466 1.001 1.001 0 01.1817-.16057l5.079-3.9551c.3-.17533.58912-.20629.87045-.092961a1.176 1.176 0 01.25142.14155l4.1494 3.4184v.097186h.050706a1.157 1.157 0 01.21127.16268c.25.24333.40959.61464.47959 1.1113a4.557 4.557 0 01.04014.6296l-.04859 25a12.567 12.567 0 004.4917 9.913 19.754 19.754 0 004.3945 2.8311 2.68 2.68 0 00.08662.044368c.686.34933 1.2798.2628 1.7832-.25987a2.735 2.735 0 00.32747-.41832 422.5 422.5 0 002.6135-4.6142 90.785 90.785 0 011.5085-2.5226c1.3158-1.7643 2.1015-3.1381 2.5606-4.1832 1.2963 2.8448 3.1474 5.4358 5.4805 7.608 1.5607 1.4853 2.5172 2.6013 2.8712 3.3466.0915.17327.14574.3642.15634.55988-.04467.35667.00545.60669.15212.75002.07251.06817.16378.11297.26198.12888.0442.0082.0882.012903.1331.012677.244 0 .54158-.11193.89158-.33593.12621-.081778.24928-.16918.36762-.26198.88441-.66346 1.7678-1.3293 2.6494-1.9965.9573-.72462 1.9123-1.4523 2.867-2.1804l2.8564-2.1761 2.6135-1.9965c.05381-.03076.10891-.058464.16691-.080284.138-.052.2879-.076059.4479-.076059.05547 4e-4.10969.002151.16479.008451.07031.052277.13923.10873.20283.16902.14533.13867.24063.27899.28733.41832.54933 2.3073 1.5312 4.0934 2.9452 5.36 1.1626 1.0165 2.5715 1.7096 4.086 2.0113.488.13067.90964.39172 1.2676.78172.035.04023.07287.079893.10987.11831.60467.62867 1.1208.58902 1.5508-.11831l.04859-.048593c.35499-.86239.74964-1.7074 1.1768-2.5353 4.9034-7.4409 10.71-4.7558 10.71-4.7558l.00422-.078172c1.3313.38489 2.4974.80521 3.4839 1.2634a12.641 12.641 0 011.8339 1.0268c1.0253.70533 2.1057 1.6426 3.2431 2.81a39.851 39.851 0 011.8339 2.024 2.435 2.435 0 00.26198.24085c.55133.43067 1.0664.35048 1.5444-.24085.98866-2.0687 2.2514-4.1578 3.786-6.2685a57.428 57.428 0 014.0755-4.9607c.45534-.488.43072-.87924-.07394-1.1726a1.764 1.764 0 00-.12677-.067608c-.352-.16733-.65024-.1474-.89158.06127a1.067 1.067 0 00-.17747.20282 19.883 19.883 0 01-.53875.69509c-.996 1.2247-1.7882 1.836-2.3768 1.836a.75.75 0 01-.50283-.18803l-3.5156-2.0029a1.239 1.239 0 01-.18592-.15c-.364-.362-.54509-.97943-.54509-1.8508l.0486-27.343a1.791 1.791 0 01.00422-.12676c.024-.34333.15174-.56084.38241-.65284a.795.795 0 01.29578-.050706h8.0136c.64019.080917 1.3722.13848 2.1972.2324 1.027.11692 2.1494.48913 2.2458.6465.0538.10896.09911.22202.13521.33804.1053.33067.15635.72135.15635 1.1747l.34226 26.758c-.0066 1.0822.09864 2.1632.31269 3.224.31105 1.5855.96117 3.0851 1.9078 4.3945.89133 1.214 2.0454 2.3158 3.4607 3.3064 1.0003.69227 2.0563 1.3001 3.1564 1.8191.74866.42733 1.3973.37254 1.948-.16479.12914-.12839.24555-.26887.34649-.42044.87933-1.53 1.7421-3.0682 2.5881-4.6142.45989-.84011.94265-1.6771 1.4409-2.5121 2.9811 1.025 5.6292 2.2488 7.9397 3.6741a26.191 26.191 0 016.7629 5.8586 3.494 3.494 0 00.12253.1331c.57267.58667 1.0682.63289 1.4895.14155a2.01 2.01 0 00.19437-.27466 17.612 17.612 0 01.68031-1.2613 14.12 14.12 0 015.0326-5.0854 34.912 34.912 0 006.8368-5.2734 36.317 36.317 0 004.7854-5.7868c1.4-2.0993 2.2628-4.4664 2.5881-7.103a11.131 11.131 0 00.01268-.15c.08716-.99127.04368-2.0982-.11409-3.3064h.00211c.08852.020543.17498.034676.25776.042255-.14124-.3161-.27063-.62462-.39297-.9275-.21673-1.2624-.54943-2.627-1.012-4.1072a35.809 35.809 0 00-.3148-.91059c-.52515-5.2293 2.4467-7.3315 3.4015-7.8658.50214-.048062 1.0466.11364 1.6374.50283a2.807 2.807 0 011.0036 1.1219c.38867.73.6436 1.7364.76693 3.0191a20.634 20.634 0 01.08451 1.9627v16.211a38.66 38.66 0 000 .002112 38.66 38.66 0 000 .002113 38.66 38.66 0 000 .002113 38.66 38.66 0 000 .002113 38.66 38.66 0 000 .002112 38.66 38.66 0 000 .002113 38.66 38.66 0 000 .002113 38.66 38.66 0 000 .002113 38.66 38.66 0 000 .002112 38.66 38.66 0 000 .002113 38.66 38.66 0 000 .002113 38.66 38.66 0 000 .002113 38.66 38.66 0 000 .002112 38.66 38.66 0 000 .002113 38.66 38.66 0 000 .002113 38.66 38.66 0 000 .002113 38.66 38.66 0 000 .002112 38.66 38.66 0 000 .002113 38.66 38.66 0 000 .002113 38.66 38.66 0 000 .002113 38.66 38.66 0 000 .002112 38.66 38.66 0 000 .002113 38.66 38.66 0 000 .002113 38.66 38.66 0 000 .002113 38.66 38.66 0 000 .002112 38.66 38.66 0 000 .002113 38.66 38.66 0 000 .002113 38.66 38.66 0 000 .002113 38.66 38.66 0 000 .002112 38.66 38.66 0 000 .002113 38.66 38.66 0 000 .002113 38.66 38.66 0 000 .002112 38.66 38.66 0 000 .002113 38.66 38.66 0 000 .002113 38.66 38.66 0 000 .002113 38.66 38.66 0 000 .002112 38.66 38.66 0 000 .002113 38.66 38.66 0 000 .002113 38.66 38.66 0 000 .002113 38.66 38.66 0 000 .002112 38.66 38.66 0 000 .002113 38.66 38.66 0 000 .002113 38.66 38.66 0 000 .002113 38.66 38.66 0 000 .002112 38.66 38.66 0 000 .002113 38.66 38.66 0 000 .002113 38.66 38.66 0 000 .002113 38.66 38.66 0 000 .002112c-.00867 3.3453-.45248 5.7803-1.3331 7.3016a3.661 3.661 0 01-1.8381 1.6796.781.781 0 00-.29156.36973.903.903 0 00-.05071.31269 1.038 1.038 0 00.02536.24085.63.63 0 00.2662.39508 21.761 21.761 0 012.9916 2.5121 23.838 23.838 0 014.4304 6.277 1.241 1.241 0 00.08028.095074.856.856 0 00.65284.29578.836.836 0 00.50283-.16268 1.083 1.083 0 00.22818-.22818 28.788 28.788 0 011.3733-2.4677 23.444 23.444 0 015.7551-6.372c.15-.085333.25079-.20205.30212-.35072a.789.789 0 00.04015-.25776.987.987 0 000-.008451.987.987 0 000-.006339.987.987 0 000-.006338.987.987 0 000-.010563c-.00467-.148-.04276-.27897-.11409-.39297a.837.837 0 00-.22818-.23452c-1.9533-.80067-2.9283-3.7446-2.9283-8.8313a40.549 40.549 0 010-.25142v-19.433a.635.635 0 01.16056-.42466 1.001 1.001 0 01.1817-.16268l5.079-3.9551c.3-.17533.58912-.20629.87045-.092961a1.176 1.176 0 01.25142.14155l4.1494 3.4184v.097186h.05071a1.157 1.157 0 01.21127.1648c.25067.24333.41026.61252.47959 1.1092a4.557 4.557 0 01.04015.63171l-.0486 25a12.567 12.567 0 004.4917 9.913 19.754 19.754 0 004.3945 2.8311 2.68 2.68 0 00.08662.044368c.686.34933 1.2813.2628 1.7853-.25987a2.735 2.735 0 00.32536-.42044 422.5 422.5 0 002.6135-4.6142 90.785 90.785 0 012.7592-4.6142 4.091 4.091 0 00.06339-.10986c.42266-.72467.40985-1.2487-.04015-1.574-.47199-.342-.8864-.20457-1.2444.4141-.87933 1.5953-2.035 1.9547-3.467 1.0754a2.807 2.807 0 01-1.0014-1.1219c-.38866-.73067-.6457-1.7371-.76904-3.0191a20.634 20.634 0 01-.08451-1.9627v-20.654a14.576 14.576 0 01.00845-.5303c.05734-1.58.38031-2.7308.96764-3.4501a6.467 6.467 0 01.53875-.58523 5.116 5.116 0 011.7071-1.0986 1.234 1.234 0 00.26198-.11198c.232-.13667.3486-.33891.3486-.60424a.946.946 0 000-.042255c-.01666-.374-.31825-.62425-.90425-.75425-3.32-.586-5.6711-1.4827-7.0545-2.6874-1.384-1.2047-3.0524-2.8319-5.0051-4.8826a4.16 4.16 0 00-.24719-.24508c-.68667-.62667-1.19-.56151-1.5106.19648a7.646 7.646 0 01-.04859.097186c-.47267.934-1.2116 1.9254-2.2163 2.9747a25.728 25.728 0 01-1.593 1.517 319.63 319.63 0 01-1.4071 1.2317 286.12 286.12 0 01-4.1114 3.505c-.19533.146-.3899.21973-.58523.21973a.803.803 0 01-.19437-.02324.559.559 0 01-.28522-.16691c-.05534-.061333-.09922-.13818-.13522-.22818a1.253 1.253 0 01-.06972-.24085 10.553 10.553 0 00-2.0029-3.8579c-.79933-.99667-1.8019-1.9372-3.0086-2.8205a25.395 25.395 0 00-3.5811-2.1592l-.0486-.048593a2.956 2.956 0 00-.21761-.1162c-.68733-.33-1.2541-.23177-1.7008.29156a2.468 2.468 0 00-.27888.40987 228.08 228.08 0 00-2.6621 4.6882 91.804 91.804 0 01-2.7106 4.591 4.139 4.139 0 00-.05705.092961c-.68586.89701-1.4764 1.8273-2.3832 2.7064a17.564 17.564 0 00-1.574-2.3388c-2.8973-3.386-4.6229-6.8371-5.1762-10.352-.01467-.17267-.05031-.31177-.10564-.42044a.478.478 0 00-.30846-.26198c-.244-.064667-.51374-.016887-.80707.14578a49.124 49.124 0 01-8.6876 4.067 56.942 56.942 0 01-14.409 3.0128 1.559 1.559 0 00-.20916.035917c-.08267.019333-.1564.044838-.21973.078172a.582.582 0 00-.23029.20282c-.114.17933-.13716.37601-.07183.58734a1.424 1.424 0 01.00422.014789c.06267.21.09296.48876.09296.83876l.14578 24.903a18.621 18.621 0 000 .002113 18.621 18.621 0 000 .002112 18.621 18.621 0 000 .002113 18.621 18.621 0 000 .002113 18.621 18.621 0 000 .002113 18.621 18.621 0 000 .002112 18.621 18.621 0 000 .002113 18.621 18.621 0 000 .002113 18.621 18.621 0 000 .002113 18.621 18.621 0 000 .002112 18.621 18.621 0 000 .002113 18.621 18.621 0 000 .002113 18.621 18.621 0 000 .002112 18.621 18.621 0 000 .002113 18.621 18.621 0 000 .002113 18.621 18.621 0 000 .002113 18.621 18.621 0 000 .002112 18.621 18.621 0 000 .002113 18.621 18.621 0 000 .002113 18.621 18.621 0 000 .002113 18.621 18.621 0 000 .002112 18.621 18.621 0 000 .002113 18.621 18.621 0 000 .002113 18.621 18.621 0 000 .002113 18.621 18.621 0 000 .002112 18.621 18.621 0 000 .002113 18.621 18.621 0 000 .002113 18.621 18.621 0 000 .002113 18.621 18.621 0 000 .002112 18.621 18.621 0 000 .002113 18.621 18.621 0 000 .002113 18.621 18.621 0 000 .002113 18.621 18.621 0 000 .002112 18.621 18.621 0 000 .002113 18.621 18.621 0 000 .002113 18.621 18.621 0 000 .002113 18.621 18.621 0 000 .002112c-.00733 1.6867-.24388 3.0535-.70988 4.1008a4.033 4.033 0 01-2.4149 2.3156c-.12513.057107-.22089.13063-.30423.21127-.37491-.041244-.76991-.17446-1.1895-.42255-.42986-.27587-.77574-.66367-1.0014-1.1219-.38867-.73067-.64571-1.7371-.76904-3.0191-.0595-.65228-.08751-1.3056-.08451-1.9606v-20.656c0-.17671.00245-.3537.00845-.5303.05733-1.58.38031-2.7287.96764-3.448.16778-.20625.34688-.40118.53875-.58523.48958-.47658 1.0708-.852 1.7071-1.1007.0386-.00342.07609-.009002.11409-.016902.29067-.060667.47239-.24966.54509-.56833.066-.29267-.123-.55372-.56833-.78172-.10897-.05464-.22172-.10316-.33593-.14578-1.5433-.89667-2.8579-1.762-3.9466-2.5987-.56439-.42979-1.1049-.89012-1.6184-1.3796-.68042-.65648-1.3396-1.3346-1.9775-2.0325-.69576-.7614-1.3714-1.5418-2.0261-2.3388-.003-.003-.00757-.005451-.01057-.008451-.57533-.544-1.0929-.63755-1.5529-.27888-.08939.070627-.17228.15113-.24508.23874-1.204 1.758-3.0078 4.7241-3.5515 4.5783-.69539.50534-1.5939.52295-2.4656.54931h-8.3897a.918.918 0 01-.38241-.080284 1.021 1.021 0 01-.30212-.21339.511.511 0 01-.02747-.054932c-.05866-.13067-.07381-.3044-.04648-.51974a2.232 2.232 0 01.02536-.15846 17.759 17.759 0 01.24719-1.405c.44533-2.062 1.2827-4.2942 2.512-6.6995.89867-1.7587 1.7941-3.3237 2.6874-4.6924a31.098 31.098 0 011.8296-2.5332 2.464 2.464 0 00.0338-.050706c.29334-.41133.33131-.74322.11198-.99722a.866.866 0 00-.17113-.15 1.024 1.024 0 00-.15001-.086623c-.28666-.13-.57789-.079328-.87256.15a1.891 1.891 0 00-.22184.20494 299.17 299.17 0 01-5.2544 5.4213 375.63 375.63 0 01-5.8058 5.7129c-4.0527 3.906-8.0325 7.2429-11.939 10.01-.42334.26-.56801.56738-.43734.92538a.986.986 0 00.01267.03803c.09934.24267.27942.39669.53875.46269a1.321 1.321 0 00.32748.038029h5.7593a1.129 1.129 0 01.19226.01479c.36934.063333.55031.32605.54298.78805a1.853 1.853 0 01-.00211.076058l.0507 26.416a13.991 13.991 0 010 .14155c0 1.13-.13966 2.0903-.41832 2.8797a3.773 3.773 0 01-1.1726 1.7092c-1.3018.46466-5.1889 1.5474-10.082.069721-.0789-.023829-.15694-.030336-.23451-.023241-.03264-.01486-.06739-.023602-.0993-.040142-1.0907-.55333-1.6353-1.5788-1.6353-3.0762l-.1479-22.315v-.097187c.07731-1.0268.46446-2.0067 1.1113-2.8078.3983-.4924.86291-.9289 1.3796-1.2951.0161-.01225.03269-.023497.04859-.035917 1.0587-.82533 1.027-1.3969-.09296-1.7155-.14669-.04109-.29385-.075984-.44367-.10352-1.7793-.37528-3.4971-1.0004-5.1023-1.855-1.7007-.88933-3.4031-2.0484-5.1044-3.4797-1.6561-1.4099-3.2058-2.941-4.6375-4.5783-.05227-.054072-.10557-.1051-.16057-.15634-.83533-.77867-1.4981-.69369-1.9881.25564-.4054.72973-.8424 1.4402-1.3099 2.1318-.89152 1.3271-1.9162 2.5605-3.0593 3.6783-1.644 1.5953-3.4108 3.1097-5.2988 4.5424-1.0217.78012-1.9942 1.624-2.9092 2.5268-4.0897 3.8566-6.4702 9.1866-6.6129 14.806-.007.28128-.01034.56162-.01056.84299 0 .59333.01518 1.1776.04648 1.7536.06189 2.0688.39537 4.1014.96975 6.053-.31418 1.3117-.80529 2.8262-1.5655 4.3354-.85028 1.2911-1.932 1.5455-3.2515.73524a2.807 2.807 0 01-1.0014-1.1219c-.38867-.73067-.64571-1.7371-.76904-3.0191a20.634 20.634 0 01-.08662-1.9627v-20.654a14.576 14.576 0 01.01056-.5303c.05733-1.58.38031-2.7287.96764-3.448a6.467 6.467 0 01.53875-.58734 5.116 5.116 0 011.7071-1.0986 1.234 1.234 0 00.26198-.11198c.232-.13667.3486-.3368.3486-.60213a.946.946 0 000-.042255c-.016-.374-.31826-.62636-.90426-.75636-3.32-.586-5.6711-1.4806-7.0544-2.6853-1.384-1.2047-3.0524-2.834-5.0051-4.8847a4.16 4.16 0 00-.2472-.24508c-.68666-.62667-1.1899-.56151-1.5106.19648a7.646 7.646 0 01-.048593.097187c-.47267.934-1.2116 1.9254-2.2163 2.9747a25.728 25.728 0 01-1.593 1.5191 319.63 319.63 0 01-1.4071 1.2296 286.12 286.12 0 01-4.1093 3.5072c-.19533.146-.39201.21973-.58734.21973a.803.803 0 01-.19437-.025353.559.559 0 01-.28522-.16691c-.056-.061333-.10133-.13606-.13733-.22606a1.253 1.253 0 01-.067608-.24085 10.553 10.553 0 00-2.0029-3.8579c-.79933-.99667-1.8019-1.9372-3.0085-2.8205a25.395 25.395 0 00-3.5811-2.1613l-.048593-.048593a2.956 2.956 0 00-.21761-.11409c-.68733-.33-1.2541-.23389-1.7008.28945a2.468 2.468 0 00-.27888.41198 228.08 228.08 0 00-2.6621 4.6882 91.804 91.804 0 01-1.1557 1.9564c-1.6215 2.3005-3.5814 4.8544-5.546 6.8432-.2281-.49706-.46473-.97452-.70988-1.4261a17.564 17.564 0 00-1.8106-2.736c-2.8973-3.386-4.6229-6.8371-5.1762-10.352-.014667-.17267-.048191-.31177-.10352-.42044a.478.478 0 00-.31057-.26198c-.24467-.064667-.5144-.016888-.80707.14578a49.124 49.124 0 01-8.6876 4.067 56.942 56.942 0 01-14.407 3.0128 1.559 1.559 0 00-.21128.035917c-.082666.019333-.15428.044838-.21761.078171a.582.582 0 00-.23029.20282c-.114.17933-.13928.37601-.073946.58734a1.424 1.424 0 01.004226.014789c.062666.21.095073.48876.095073.83876l.14578 24.903a18.621 18.621 0 000 .002112 18.621 18.621 0 000 .002113 18.621 18.621 0 000 .002113 18.621 18.621 0 000 .002113 18.621 18.621 0 000 .002112 18.621 18.621 0 000 .002113 18.621 18.621 0 000 .002113 18.621 18.621 0 000 .002113 18.621 18.621 0 000 .002112 18.621 18.621 0 000 .002113 18.621 18.621 0 000 .002113 18.621 18.621 0 000 .002113 18.621 18.621 0 000 .002112 18.621 18.621 0 000 .002113 18.621 18.621 0 000 .002113 18.621 18.621 0 000 .002113 18.621 18.621 0 000 .002112 18.621 18.621 0 000 .002113 18.621 18.621 0 000 .002113 18.621 18.621 0 000 .002113 18.621 18.621 0 000 .002112 18.621 18.621 0 000 .002113 18.621 18.621 0 000 .002113 18.621 18.621 0 000 .002112 18.621 18.621 0 000 .002113 18.621 18.621 0 000 .002113 18.621 18.621 0 000 .002113 18.621 18.621 0 000 .002112 18.621 18.621 0 000 .002113 18.621 18.621 0 000 .002113 18.621 18.621 0 000 .002113 18.621 18.621 0 000 .002112 18.621 18.621 0 000 .002113 18.621 18.621 0 000 .002113 18.621 18.621 0 000 .002113 18.621 18.621 0 000 .002112 18.621 18.621 0 000 .002113c-.002119.4873-.029317.93935-.069721 1.3733-1.2323 4.3711-7.2385 5.8164-10.481 6.2833.04213-.051754.086969-.097724.12888-.15a31.64 31.64 0 003.0149-4.5572 28.236 28.236 0 00.91059-1.8106c.86267-1.8753 1.5793-3.9447 2.1487-6.2094a51.763 51.763 0 001.1895-6.6277v-.14578a32.916 32.916 0 00-1.1895-6.4692 22.456 22.456 0 00-7.4284-11.405 56.943 56.943 0 00-6.0699-4.2825 67.111 67.111 0 00-11.779-5.6769c-.032667-.032667-.06452-.048593-.097186-.048593a15.865 15.865 0 01-1.0162-.22818 13.296 13.296 0 01-4.7706-2.286 9.784 9.784 0 01-.73101-.61481c-.42533-.396-.77459-.80305-1.0479-1.2191a4.207 4.207 0 01-.73524-2.2437c-.064667-2.3113 1.1894-3.8264 3.7607-4.5424.446-.11867.65259-.37203.62326-.7627a1.136 1.136 0 00-.012676-.1162c-.061-.342-.33881-.5183-.83031-.5303zm48.19 24.829c.063334 0 .12982.010245.19649.029578a.946.946 0 01.15846.063382 1.441 1.441 0 01.12888.071834c.15467.098666.25857.21226.31057.34226a29.525 29.525 0 001.1134 2.7402 24.216 24.216 0 004.6966 6.8305 23.094 23.094 0 01.71411.84299 25.073 25.073 0 013.2156 5.2121 17.306 17.306 0 011.162 3.4079 21.495 21.495 0 01.52396 4.3544 18.999 18.999 0 01.038029 1.1937 15.272 15.272 0 01-4.2382 10.769 3.343 3.343 0 01-.21761.24508c-.546.55-1.1292.69846-1.7472.44579a2.242 2.242 0 01-.37818-.20071l-8.6432-5.3727c-.39067-.19533-.58523-.53668-.58523-1.0247l-.19649-28.125a1.217 1.217 0 01.023241-.24508c.059333-.28667.23218-.4819.51551-.58523a33.828 33.828 0 002.9283-.9275.62.62 0 01.281-.067608zm-38.634 2.155a.935.935 0 01.18381.061269 75.299 75.299 0 011.4008.67185c.91867.454 1.6853.86195 2.2987 1.2233a14.611 14.611 0 01.79439.4965c4.9807 3.516 7.8048 8.6999 8.4721 15.552a41.572 41.572 0 01.080284.9444c.23667 3.1827.070059 6.0629-.49861 8.6369a18.799 18.799 0 01-2.9769 6.8981 3.487 3.487 0 01-.25353.28945c-.646.658-1.3415.75645-2.0895.29578l-10.547-6.2009c-.39067-.19533-.58734-.53668-.58734-1.0247l-.19437-24.121c0-.684.32476-1.2698.97609-1.7578l2.2966-1.8064c.20467-.15333.41905-.20646.64439-.15846zm206.53.057044c.06333 0 .1277.010245.19437.029578a.946.946 0 01.16057.063383 1.441 1.441 0 01.12888.071833c.15466.098667.25646.21226.30846.34226a29.525 29.525 0 001.1155 2.7402 24.216 24.216 0 004.6966 6.8305 23.094 23.094 0 01.71411.84299 25.073 25.073 0 013.2156 5.2121 17.306 17.306 0 011.162 3.4079 21.495 21.495 0 01.52396 4.3544 18.999 18.999 0 01.03803 1.1937 15.272 15.272 0 01-4.2382 10.769 3.343 3.343 0 01-.21973.24508c-.54533.55-1.1265.69846-1.7451.44579a2.242 2.242 0 01-.37819-.20071l-8.6432-5.3727c-.39066-.19533-.58734-.53668-.58734-1.0247l-.19437-28.125a1.217 1.217 0 01.02324-.24508c.05933-.28667.23006-.4819.5134-.58523a33.828 33.828 0 002.9304-.9275.62.62 0 01.281-.067608zm-86.701.7627c.44417-.010667.93815.25139 1.4832.78805.16143.16007.31553.32777.46058.50283.24924.23731.50096.47288.75636.70354 2.388 2.156 4.4961 3.4833 6.3234 3.9846.42333.13.63593.39105.63593.78172l-.44156 22.412.00211.1162c7e-4.72733.01017 1.3133.02747 1.7599.0051.13942.01001.27909.01901.41832 0 .10933-.02792.22672-.08662.35072-.0311.06484-.06765.12626-.10775.18592-1.5607 1.6687-2.933 2.5036-4.1156 2.5036-.24391.000645-.48577-.036323-.71833-.10986-.0327-.03267-.06449-.048593-.09719-.048593-3.9467-1.5787-6.6984-5.1115-8.2524-10.598-.52913-1.9198-.90496-3.8793-1.124-5.8586-.1321-1.0864-.1976-2.1783-.1986-3.2726-.01175-4.9142 1.4715-9.7154 4.253-13.767.34333-.558.73686-.84288 1.181-.85355z" fill-rule="evenodd" />
</svg>
