<svg width="268.99" height="67.746" version="1.1" viewBox="-.55859 -5.2705 273.28 73.283" xmlns="http://www.w3.org/2000/svg">
<path d="m194.4-5.2705c-.67361-.0015-1.3441.094761-1.9902.28522-.85739.25968-1.6618.6674-2.379 1.2043-.18494.13549-.36437.27946-.53453.43311-.96961.83402-1.5606 2.0257-1.6395 3.3022-.13067 1.5627.11234 3.2723.73101 5.1276.61867 1.856 1.5154 2.7825 2.6874 2.7825.90199.02467 2.0498-.4843 3.4438-1.5296.45313-.3427.8924-.70339 1.3162-1.0817 1.1267-.998 1.9665-1.9948 2.5205-2.9874.41088-.71084.67482-1.4965.77537-2.3113.009-.08856.01503-.17744.02113-.26621.17467-2.6487-.85016-4.2355-3.0762-4.7621-.61573-.13707-1.2454-.20399-1.8761-.19649zm-193.07.0063382c-.16383-.004-.35244.0095883-.5641.042255-4.056.534-6.8246 2.6-8.3073 6.1967a16.708 16.708 0 00-1.0669 4.2044v.24297a13.228 13.228 0 00.95919 3.541 17.859 17.859 0 001.6036 2.9536 11.803 11.803 0 00.45847.64228c.818 1.07 1.8418 2.0343 3.0698 2.8923a19.699 19.699 0 003.186 1.7895 51.944 51.944 0 003.6149 1.6353 357.75 357.75 0 013.71 1.536 1.186 1.186 0 01.065495.035916.859.859 0 01.42255.55143c0 .18-.024613.33013-.073946.45213a.589.589 0 01-.21973.281 21.264 21.264 0 01-.57467.45002c-2.6133 1.972-5.2271 2.9578-7.8404 2.9578a10.466 10.466 0 01-1.35-.088735c-.83333-.052-1.3334.28211-1.5 1.0014a2.719 2.719 0 00-.06127.61058l.097186 20.312a14.109 14.109 0 01-.15423 2.1719c-.356 2.2753-1.3293 3.716-2.9219 4.3227-.39067.16267-.57142.43964-.53875.83031a.717.717 0 00.17536.42889c.13067.14733.33302.24957.60636.30424a53.829 53.829 0 012.3494.70566c6.85 2.236 11.097 5.3039 12.74 9.2052.26067.618.84647.618 1.7578 0a35.012 35.012 0 012.1529-1.3522 45.622 45.622 0 012.7783-1.4789 26.188 26.188 0 001.9839-1.0817 21.18 21.18 0 002.2522-1.6141c3.2168-1.7269 8.8142-4.3944 12.816-4.441a2.413 2.413 0 00.02324.008451c3.646 1.1227 6.8274 2.5214 9.5454 4.198a26.191 26.191 0 016.7629 5.8586 3.494 3.494 0 00.12043.1331c.57267.58667 1.0703.63289 1.4916.14155a2.01 2.01 0 00.19437-.27466 17.612 17.612 0 01.6803-1.2613 14.12 14.12 0 015.0326-5.0854 34.912 34.912 0 006.8368-5.2734 36.317 36.317 0 004.7833-5.7868c1.4-2.0993 2.2628-4.4664 2.5881-7.103a11.131 11.131 0 00.014789-.15c.095271-1.0834.040984-2.2998-.15634-3.6424.48966-7.2672 4.2578-12.191 4.9206-13.006.3772.054688.77537.20969 1.1979.48804a2.807 2.807 0 011.0014 1.124c.38867.73.64571 1.7364.76904 3.0191a20.634 20.634 0 01.084509 1.9606v16.211a38.66 38.66 0 000 .002113 38.66 38.66 0 000 .002112 38.66 38.66 0 000 .002113 38.66 38.66 0 000 .002113 38.66 38.66 0 000 .002113 38.66 38.66 0 000 .002112 38.66 38.66 0 000 .002113 38.66 38.66 0 000 .002113 38.66 38.66 0 000 .002113 38.66 38.66 0 000 .002112 38.66 38.66 0 000 .002113 38.66 38.66 0 000 .002113 38.66 38.66 0 000 .002113 38.66 38.66 0 000 .002112 38.66 38.66 0 000 .002113 38.66 38.66 0 000 .002113 38.66 38.66 0 000 .002112 38.66 38.66 0 000 .002113 38.66 38.66 0 000 .002113 38.66 38.66 0 000 .002113 38.66 38.66 0 000 .002112 38.66 38.66 0 000 .002113 38.66 38.66 0 000 .002113 38.66 38.66 0 000 .002113 38.66 38.66 0 000 .002112 38.66 38.66 0 000 .002113 38.66 38.66 0 000 .002113 38.66 38.66 0 000 .002113 38.66 38.66 0 000 .002112 38.66 38.66 0 000 .002113 38.66 38.66 0 000 .002113 38.66 38.66 0 000 .002113 38.66 38.66 0 000 .002112 38.66 38.66 0 000 .002113 38.66 38.66 0 000 .002113 38.66 38.66 0 000 .002113 38.66 38.66 0 000 .002112 38.66 38.66 0 000 .002113 38.66 38.66 0 000 .002113 38.66 38.66 0 000 .002113 38.66 38.66 0 000 .002112 38.66 38.66 0 000 .002113 38.66 38.66 0 000 .002113 38.66 38.66 0 000 .002113 38.66 38.66 0 000 .002112 38.66 38.66 0 000 .002113 38.66 38.66 0 000 .002113 38.66 38.66 0 000 .002113 38.66 38.66 0 000 .002112c-.008666 3.3453-.45248 5.7782-1.3331 7.2995a3.661 3.661 0 01-1.8402 1.6796.781.781 0 00-.28945.36973.903.903 0 00-.052819.31269 1.038 1.038 0 00.027466.24085.63.63 0 00.26621.39508 21.761 21.761 0 012.9916 2.5142 23.838 23.838 0 014.4304 6.2749 1.241 1.241 0 00.080284.097187.856.856 0 00.65073.29367.836.836 0 00.50283-.16057 1.083 1.083 0 00.23029-.23029 28.788 28.788 0 011.3733-2.4656 23.444 23.444 0 015.7551-6.372c.15-.085333.25079-.20205.30212-.35072a.789.789 0 00.040142-.25987.987.987 0 000-.004226.987.987 0 000-.006338.987.987 0 000-.006338.987.987 0 000-.010564.987.987 0 010-.002113c-.004666-.148-.042755-.27897-.11409-.39297a.837.837 0 00-.22818-.23663c-1.9533-.80066-2.9304-3.7446-2.9304-8.8313a40.549 40.549 0 01.002113-.25142v-19.433a.635.635 0 01.16057-.42466 1.001 1.001 0 01.17958-.16057l5.079-3.9551c.3-.17533.59123-.20629.87256-.092961a1.176 1.176 0 01.25142.14155l4.1494 3.4184v.097186h.048593a1.157 1.157 0 01.21128.16268c.25.24333.4117.61464.4817 1.1113a4.557 4.557 0 01.04015.6296l-.05071 25a12.567 12.567 0 004.4938 9.913 19.754 19.754 0 004.3945 2.8311 2.68 2.68 0 00.08451.044367c.686.34933 1.2819.2628 1.7853-.25987a2.735 2.735 0 00.32747-.41832 422.5 422.5 0 002.6114-4.6142 90.785 90.785 0 011.5085-2.5247c1.3154-1.7639 2.1016-3.1361 2.5606-4.1811 1.2963 2.8448 3.1473 5.4358 5.4805 7.608 1.5607 1.4853 2.5193 2.6013 2.8733 3.3466.0915.17327.14363.3642.15423.55988-.04467.35667.00756.60669.15423.75002.07251.06817.16378.11297.26198.12888.0442.0082.0882.012902.1331.012676.244 0 .54158-.11193.89158-.33593.12621-.081778.24717-.16918.36551-.26198.88441-.66346 1.7678-1.3293 2.6494-1.9965.9573-.72462 1.9144-1.4523 2.8691-2.1804l2.8564-2.1761 2.6114-1.9965c.05381-.03076.11102-.058464.16902-.080284.138-.052.28579-.076059.44579-.076059.05547 4e-4.11181.002151.16691.008451.07031.052277.13711.10873.20071.16902.14533.13867.24063.27899.28733.41832.54933 2.3073 1.5312 4.0934 2.9452 5.36 1.1626 1.0165 2.5715 1.7096 4.086 2.0113.488.13067.91176.39172 1.2698.78172.035.04023.07075.079894.10775.11831.60467.62867 1.1229.58902 1.5529-.11831l.04859-.048593c.35655-.86621.75376-1.7144 1.1831-2.5459 2.7534-4.1718 5.7876-5.1534 7.9207-5.2121 1.4494 1.9083 3.2786 3.6231 5.5058 5.134a9.252 9.252 0 00.23029.16691c.23733.16667.49694.3355.7796.50283a16.868 16.868 0 00.91905.50283 2.889 2.889 0 01.39297.24085 2.007 2.007 0 01.85144 1.517.517.517 0 00.28099.47114c.13933.081333.33133.13535.57467.16268a3.974 3.974 0 00.18169.016902c.48.032667.84997-.037274 1.1113-.21127a45.48 45.48 0 012.2311-1.6944 55.411 55.411 0 014.1896-2.7001 129.99 129.99 0 01.90425-.52396 143.11 143.11 0 016.6404-3.5769c.42267-.19533.50508-.50628.24508-.92961a.879.879 0 00-.01479-.014789c-.26-.27867-.62986-.30573-1.1092-.082397a14.478 14.478 0 01-.43522.16057c-2.5153.88467-5.0307.97576-7.5467.27043a15.291 15.291 0 01-3.3466-1.4071 10.208 10.208 0 01-1.6627-1.1683c-2.0447-1.7573-3.6908-4.4743-4.9375-8.151a42.284 42.284 0 01-1.3585-5.134 33.013 33.013 0 01-.32959-1.8001c-.346-2.2473-.47719-4.611-.39719-7.0904a48.082 48.082 0 01.33592-4.2931 30.364 30.364 0 01.2979-1.9395c.40333-2.1333.99949-3.8304 1.7895-5.0917a6.028 6.028 0 012.0134-2.0515c.84667-.488 1.4325-.38966 1.7578.29367l5.079 10.547a4.676 4.676 0 00.02324.04648c.51.992 1.1418 1.3299 1.8951 1.0099a2.203 2.203 0 00.32747-.17747 15.84 15.84 0 016.5918-2.5395 1.091 1.091 0 00.24296-.073946c.1297-.058458.22347-.1423.28522-.2493 1.7082-.89125 2.4766-3.9275 2.5606-3.7903.0538.10896.09912.22202.13522.33804.1053.33067.15845.72135.15845 1.1747l.34227 26.758c-.0066 1.0822.09652 2.1632.31057 3.224.31105 1.5855.96328 3.0851 1.9099 4.3945.89133 1.214 2.0454 2.3158 3.4607 3.3064 1.0003.69227 2.0563 1.3001 3.1564 1.8191.74867.42733 1.3973.37254 1.948-.16479.12914-.12839.24555-.26887.34649-.42044.87933-1.53 1.7421-3.0682 2.5881-4.6142.42646-.77904.86948-1.5557 1.3289-2.3304 2.9531 1.0201 5.5983 2.2259 7.8911 3.6403a26.191 26.191 0 016.7629 5.8586 3.494 3.494 0 00.12043.13099c.55994.57364 1.0468.62814 1.462.17113.06435-.048608.12898-.10403.19014-.17536a2.01 2.01 0 00.19438-.27466 17.612 17.612 0 01.6803-1.2613 14.12 14.12 0 012.96-3.5727 14.12 14.12 0 011.912-1.3648 34.912 34.912 0 001.4726-.99722 34.912 34.912 0 001.4599-.98876 34.912 34.912 0 001.2381-.95496 34.912 34.912 0 002.6642-2.3325 36.317 36.317 0 00.00845-.008451 34.912 34.912 0 00.15212-.13944 36.317 36.317 0 004.7854-5.7868c1.4-2.0993 2.2628-4.4664 2.5881-7.103a11.131 11.131 0 00.01479-.15c.08717-.99127.04369-2.0982-.11409-3.3064h.00212c.08852.020543.17497.034676.25775.042255-.14031-.31401-.27131-.6202-.39297-.92116-.21668-1.2641-.54868-2.631-1.012-4.1135a35.809 35.809 0 00-.31691-.91059c-.5251-5.2292 2.4488-7.3315 3.4036-7.8658.50199-.047895 1.0468.11378 1.6374.50283a2.807 2.807 0 011.0014 1.1219c.38867.73.64571 1.7364.76904 3.0191a20.634 20.634 0 01.08451 1.9627v16.211a38.66 38.66 0 000 .002112 38.66 38.66 0 000 .002113 38.66 38.66 0 000 .002113 38.66 38.66 0 000 .002113 38.66 38.66 0 000 .002112 38.66 38.66 0 000 .002113 38.66 38.66 0 000 .002113 38.66 38.66 0 000 .002113 38.66 38.66 0 000 .002112 38.66 38.66 0 000 .002113 38.66 38.66 0 000 .002113 38.66 38.66 0 000 .002113 38.66 38.66 0 000 .002112 38.66 38.66 0 000 .002113 38.66 38.66 0 000 .002113 38.66 38.66 0 000 .002113 38.66 38.66 0 000 .002112 38.66 38.66 0 000 .002113 38.66 38.66 0 000 .002113 38.66 38.66 0 000 .002113 38.66 38.66 0 000 .002112 38.66 38.66 0 000 .002113 38.66 38.66 0 000 .002113 38.66 38.66 0 000 .002113 38.66 38.66 0 000 .002112 38.66 38.66 0 000 .002113 38.66 38.66 0 000 .002113 38.66 38.66 0 000 .002113 38.66 38.66 0 000 .002112 38.66 38.66 0 000 .002113 38.66 38.66 0 000 .002113 38.66 38.66 0 000 .002113 38.66 38.66 0 000 .002112 38.66 38.66 0 000 .002113 38.66 38.66 0 000 .002113 38.66 38.66 0 000 .002113 38.66 38.66 0 000 .002112 38.66 38.66 0 000 .002113 38.66 38.66 0 000 .002113 38.66 38.66 0 000 .002113 38.66 38.66 0 000 .002112 38.66 38.66 0 000 .002113 38.66 38.66 0 000 .002113 38.66 38.66 0 000 .002113 38.66 38.66 0 000 .002112 38.66 38.66 0 000 .002113 38.66 38.66 0 000 .002113 38.66 38.66 0 000 .002112c-.00866 3.3453-.45247 5.7803-1.3331 7.3016a3.661 3.661 0 01-1.8402 1.6796.781.781 0 00-.28945.36973.903.903 0 00-.05281.31269 1.038 1.038 0 00.02746.24085.63.63 0 00.26621.39508 21.761 21.761 0 012.9916 2.5121 23.838 23.838 0 014.4304 6.277 1.241 1.241 0 00.08028.095074.856.856 0 00.65073.29578.836.836 0 00.50283-.16268 1.083 1.083 0 00.23029-.22818 28.788 28.788 0 011.3733-2.4677 23.444 23.444 0 015.7551-6.372c.15-.085333.25078-.20205.30212-.35072a.789.789 0 00.04014-.25776.987.987 0 000-.008451.987.987 0 000-.006338.987.987 0 000-.006339.987.987 0 000-.010563c-.00467-.148-.04276-.27897-.11409-.39297a.837.837 0 00-.22817-.23452c-1.9533-.80067-2.9304-3.7446-2.9304-8.8313a40.549 40.549 0 01.00211-.25142v-19.433a.635.635 0 01.16057-.42466 1.001 1.001 0 01.17958-.16268l5.079-3.9551c.3-.17533.59123-.20629.87257-.09296a1.176 1.176 0 01.25141.14155l4.1494 3.4184v.097186h.0486a1.157 1.157 0 01.21127.1648c.25067.24333.41237.61252.48171 1.1092a4.557 4.557 0 01.04014.63171l-.05071 25a12.567 12.567 0 004.4938 9.913 19.754 19.754 0 004.3945 2.8311 2.68 2.68 0 00.08451.044368c.686.34933 1.2813.2628 1.7853-.25987a2.735 2.735 0 00.32748-.42044 422.5 422.5 0 002.6114-4.6142 90.785 90.785 0 012.7592-4.6142 4.091 4.091 0 00.06549-.10986c.42267-.72467.40986-1.2487-.04014-1.574-.472-.342-.88852-.20457-1.2465.4141-.87933 1.5953-2.035 1.9547-3.467 1.0754a2.807 2.807 0 01-1.0014-1.1219c-.38866-.73067-.64359-1.7371-.76692-3.0191a20.634 20.634 0 01-.08663-1.9627v-20.654a14.576 14.576 0 01.01057-.5303c.05733-1.58.37819-2.7308.96552-3.4501a6.467 6.467 0 01.54087-.58523 5.116 5.116 0 011.705-1.0986 1.234 1.234 0 00.26409-.11198c.232-.13667.34861-.33891.34861-.60424a.946.946 0 000-.042255c-.01667-.374-.31826-.62425-.90426-.75425-3.32-.586-5.6732-1.4827-7.0566-2.6874-1.384-1.2047-3.0503-2.8319-5.003-4.8826a4.16 4.16 0 00-.24719-.24508c-.68667-.62667-1.1921-.56151-1.5127.19648a7.646 7.646 0 01-.04649.097186c-.47266.934-1.2116 1.9254-2.2163 2.9747a25.728 25.728 0 01-1.5951 1.517 319.63 319.63 0 01-1.405 1.2317 286.12 286.12 0 01-4.1114 3.505c-.19533.146-.38989.21973-.58523.21973a.803.803 0 01-.19648-.02324.559.559 0 01-.28311-.16691c-.05533-.061333-.10133-.13818-.13733-.22818a1.253 1.253 0 01-.0676-.24085 10.553 10.553 0 00-2.0029-3.8579c-.79933-.99667-1.8019-1.9372-3.0086-2.8205a25.395 25.395 0 00-3.5811-2.1592l-.04859-.048593a2.956 2.956 0 00-.21762-.1162c-.68733-.33-1.2541-.23177-1.7008.29156a2.468 2.468 0 00-.27888.40987 228.08 228.08 0 00-2.6621 4.6882 91.804 91.804 0 01-2.7106 4.591 4.139 4.139 0 00-.05704.092961c-.6856.89666-1.479 1.8255-2.3853 2.7043a17.564 17.564 0 00-1.574-2.3367c-2.8973-3.386-4.6208-6.8371-5.1741-10.352-.01467-.17267-.0503-.31177-.10564-.42044a.478.478 0 00-.31057-.26198c-.244-.064667-.51162-.016887-.80496.14578a49.124 49.124 0 01-8.6897 4.067 56.942 56.942 0 01-14.407 3.0128 1.559 1.559 0 00-.20916.035917c-.08267.019333-.15639.044838-.21972.078172a.582.582 0 00-.23029.20282c-.00263.004126-.00381.008534-.00634.012677a.582.582 0 00-.15423.13522c-.114.17933-.13928.37601-.07395.58734a1.424 1.424 0 01.00423.01479c.06266.21.09507.48876.09507.83876l.14578 24.903a18.621 18.621 0 000 .002113 18.621 18.621 0 000 .002113 18.621 18.621 0 000 .002112 18.621 18.621 0 000 .002113 18.621 18.621 0 000 .002113 18.621 18.621 0 000 .002113 18.621 18.621 0 000 .002112 18.621 18.621 0 010 .006339 18.621 18.621 0 000 .002112 18.621 18.621 0 000 .002113 18.621 18.621 0 000 .002113 18.621 18.621 0 000 .002112 18.621 18.621 0 000 .002113 18.621 18.621 0 000 .002113 18.621 18.621 0 000 .002113 18.621 18.621 0 000 .002112 18.621 18.621 0 000 .002113 18.621 18.621 0 010 .006338 18.621 18.621 0 000 .002113 18.621 18.621 0 000 .002113 18.621 18.621 0 000 .002113 18.621 18.621 0 000 .002112 18.621 18.621 0 000 .002113 18.621 18.621 0 000 .002113 18.621 18.621 0 000 .002113 18.621 18.621 0 000 .002112 18.621 18.621 0 000 .002113 18.621 18.621 0 000 .002113 18.621 18.621 0 010 .006338 18.621 18.621 0 000 .002113 18.621 18.621 0 000 .002113c-.00733 1.6867-.24388 3.0535-.70988 4.1008a4.033 4.033 0 01-1.2571 1.6501 4.033 4.033 0 01-.99721.51762c-.12513.057107-.22301.13063-.30635.21127-.37491-.041244-.76991-.17445-1.1895-.42255-.42985-.27587-.77574-.66367-1.0014-1.1219-.38867-.73067-.64359-1.7371-.76692-3.0191-.0595-.65228-.08963-1.3057-.08663-1.9606v-20.656c0-.17671.00457-.3537.01057-.5303.05733-1.58.37819-2.7287.96552-3.448.16778-.20625.349-.40118.54087-.58523.48957-.47658 1.0686-.852 1.705-1.1007.0386-.00342.0782-.009002.1162-.016902.29067-.060667.47239-.24966.54509-.56833.066-.29267-.12511-.55372-.57044-.78172-.10897-.05464-.2196-.10316-.33381-.14578-1.5433-.89667-2.8601-1.762-3.9487-2.5987-.56439-.42979-1.1049-.89012-1.6184-1.3796-.68042-.65648-1.3396-1.3346-1.9775-2.0325-.69576-.7614-1.3714-1.5418-2.0261-2.3388l-.00845-.008451c-.57533-.544-1.095-.63755-1.555-.27888-.08939.070627-.17017.15113-.24297.23874 0 0-2.7544 7.6646-5.96 11.683l-4.648-9.3764c-.488-.944-1.0904-1.3512-1.8064-1.2212-2.6367.684-5.2091 1.5721-7.7157 2.6621a27.343 27.343 0 00-.23241.10352 24.367 24.367 0 00-6.408 4.1199c-5.4033 4.8507-7.9099 11.916-7.5193 21.193a33.834 33.834 0 002.6114 11.645c.35494.84075.77575 1.6481 1.2465 2.4297-1.7465.14376-3.9421.043823-6.3889-.69509-.07962-.024044-.15837-.030672-.23663-.023241-.03247-.014796-.06755-.023683-.0993-.040142-1.0907-.55333-1.6353-1.5788-1.6353-3.0762l-.14578-22.315v-.097187c.07731-1.0268.46445-2.0067 1.1113-2.8078.3983-.4924.86292-.9289 1.3796-1.2951.0161-.01225.03059-.023497.04649-.035917 1.0587-.82533 1.0292-1.3969-.09085-1.7155-.14669-.04109-.29597-.075984-.44579-.10352-1.7793-.37528-3.4971-1.0004-5.1023-1.855-1.7007-.88933-3.401-2.0484-5.1023-3.4797-1.6561-1.4099-3.2058-2.941-4.6375-4.5783-.05227-.054072-.10768-.1051-.16268-.15634-.83533-.77867-1.496-.69369-1.986.25564-.4054.72973-.8445 1.4402-1.312 2.1318-.89152 1.3271-1.9162 2.5605-3.0593 3.6783-1.644 1.5953-3.4108 3.1097-5.2988 4.5424-1.0217.78012-1.9921 1.624-2.9071 2.5268-4.0897 3.8566-6.4701 9.1866-6.6129 14.806-.007.28128-.01035.56162-.01057.84299 0 .59333.01518 1.1776.04648 1.7536.06187 2.0679.39371 4.1.96764 6.0509-.3131 1.3077-.79873 2.8178-1.555 4.3227-.85174 1.3042-1.9374 1.5634-3.2621.75002a2.807 2.807 0 01-1.0014-1.1219c-.38867-.73067-.64359-1.7371-.76693-3.0191a20.634 20.634 0 01-.08662-1.9627v-20.654a14.576 14.576 0 01.01057-.5303c.05733-1.58.37819-2.7287.96552-3.448a6.467 6.467 0 01.54086-.58734 5.116 5.116 0 011.705-1.0986 1.234 1.234 0 00.26409-.11198c.232-.13667.3486-.3368.3486-.60213a.946.946 0 00-.00211-.042255c-.016-.374-.31614-.62636-.90214-.75636-3.32-.586-5.6711-1.4806-7.0545-2.6853-1.384-1.2047-3.0524-2.834-5.0051-4.8847a4.16 4.16 0 00-.24719-.24508c-.68667-.62667-1.1921-.56151-1.5127.19648a7.646 7.646 0 01-.046481.097187c-.47267.934-1.2116 1.9254-2.2163 2.9747a25.728 25.728 0 01-1.5951 1.5191 319.63 319.63 0 01-1.405 1.2296 286.12 286.12 0 01-4.1114 3.5072c-.19533.146-.3899.21973-.58523.21973a.803.803 0 01-.19648-.025353.559.559 0 01-.28311-.16691c-.056-.061333-.10133-.13606-.13733-.22606a1.253 1.253 0 01-.067608-.24085 10.553 10.553 0 00-2.0029-3.8579c-.79933-.99667-1.8019-1.9372-3.0085-2.8205a25.395 25.395 0 00-3.5811-2.1613l-.048593-.048593a2.956 2.956 0 00-.21761-.11409c-.68733-.33-1.2541-.23389-1.7008.28945a2.468 2.468 0 00-.281.41198 228.08 228.08 0 00-2.6599 4.6882 91.804 91.804 0 01-1.1514 1.948c-1.6226 2.3026-3.5855 4.8605-5.5523 6.8516-.2281-.49705-.46262-.97453-.70777-1.4261a17.564 17.564 0 00-1.8106-2.736c-2.8973-3.386-4.6229-6.8371-5.1762-10.352-.014667-.17267-.050304-.31177-.10564-.42044a.478.478 0 00-.31057-.26198c-.24467-.064667-.51229-.016888-.80496.14578a49.124 49.124 0 01-8.6876 4.067 56.942 56.942 0 01-14.409 3.0128 1.559 1.559 0 00-.20916.035917c-.082666.019333-.15639.044838-.21972.078171a.582.582 0 00-.23029.20282c-.114.17933-.13717.37601-.071834.58734a1.424 1.424 0 01.004226.014789c.062666.21.09296.48876.09296.83876l.14578 24.903a18.621 18.621 0 000 .002112 18.621 18.621 0 000 .002113 18.621 18.621 0 000 .002113 18.621 18.621 0 000 .002113 18.621 18.621 0 000 .002112 18.621 18.621 0 000 .002113 18.621 18.621 0 000 .002113 18.621 18.621 0 000 .002113 18.621 18.621 0 000 .002112 18.621 18.621 0 000 .002113 18.621 18.621 0 000 .002113 18.621 18.621 0 000 .002113 18.621 18.621 0 000 .002112 18.621 18.621 0 000 .002113 18.621 18.621 0 000 .002113 18.621 18.621 0 000 .002113 18.621 18.621 0 000 .002112 18.621 18.621 0 000 .002113 18.621 18.621 0 000 .002113 18.621 18.621 0 000 .002113 18.621 18.621 0 000 .002112 18.621 18.621 0 000 .002113 18.621 18.621 0 000 .002113 18.621 18.621 0 000 .002113 18.621 18.621 0 000 .002112 18.621 18.621 0 000 .002113 18.621 18.621 0 000 .002113 18.621 18.621 0 000 .002113 18.621 18.621 0 000 .002112 18.621 18.621 0 000 .002113 18.621 18.621 0 000 .002113 18.621 18.621 0 000 .002113 18.621 18.621 0 000 .002112 18.621 18.621 0 000 .002113 18.621 18.621 0 000 .002113 18.621 18.621 0 000 .002113 18.621 18.621 0 000 .002112c-.002133.49055-.028791.94527-.069721 1.3817-1.2378 4.3654-7.241 5.8085-10.481 6.2749.04213-.051754.08697-.097724.12888-.15a31.64 31.64 0 003.017-4.5572 28.236 28.236 0 00.91059-1.8106c.86267-1.8753 1.5772-3.9447 2.1465-6.2094a51.763 51.763 0 001.1895-6.6277v-.14578a32.916 32.916 0 00-1.1874-6.4692 22.456 22.456 0 00-7.4305-11.405 56.943 56.943 0 00-6.0678-4.2825 67.111 67.111 0 00-11.779-5.6769c-.032667-.032667-.066632-.048593-.099299-.048593a15.865 15.865 0 01-1.0141-.22818 13.296 13.296 0 01-4.7706-2.286 9.784 9.784 0 01-.73312-.61481c-.42533-.396-.77459-.80305-1.0479-1.2191a4.207 4.207 0 01-.73524-2.2437c-.064667-2.3113 1.1894-3.8264 3.7607-4.5424.446-.11867.65471-.37203.62537-.7627a1.136 1.136 0 00-.014789-.1162c-.061-.342-.3367-.5183-.8282-.5303zm219.4 1.817c-1.3347 0-2.4904.42165-3.467 1.2676a2.752 2.752 0 00-.24719.24085c-.592.64533-1.2316 1.8407-1.9163 3.5853a43.139 43.139 0 00-.66763 1.8381l-3.9065 11.622h1.8064l9.3257-8.9855a25.251 25.251 0 001.2634-1.3162c1.6313-1.8367 2.4466-3.4148 2.4466-4.7368a4.921 4.921 0 00-.01268-.36973c-.124-1.65-1.1028-2.6495-2.9388-3.0022a8.984 8.984 0 00-1.686-.14367zm-171.21 23.012c.063334 0 .12771.010245.19437.029578a.946.946 0 01.15846.063383 1.441 1.441 0 01.13099.071833c.15467.098666.25646.21226.30846.34226a29.525 29.525 0 001.1155 2.7402 24.216 24.216 0 004.6966 6.8305 23.094 23.094 0 01.712.84299 25.073 25.073 0 013.2177 5.2121 17.306 17.306 0 011.1599 3.4079 21.495 21.495 0 01.52396 4.3544 18.999 18.999 0 01.038029 1.1937 15.272 15.272 0 01-4.2361 10.769 3.343 3.343 0 01-.21972.24508c-.546.55-1.1271.69846-1.7451.44579a2.242 2.242 0 01-.38029-.20071l-8.6411-5.3727c-.39067-.19533-.58734-.53668-.58734-1.0247l-.19437-28.125a1.217 1.217 0 01.023241-.24508c.059333-.28667.23006-.4819.5134-.58523a33.828 33.828 0 002.9304-.9275.62.62 0 01.281-.067608zm-38.636 2.155a.935.935 0 01.18592.061269 75.299 75.299 0 011.4008.67185c.91866.454 1.6832.86195 2.2966 1.2233a14.611 14.611 0 01.79439.4965c4.9807 3.516 7.8048 8.6999 8.4721 15.552a41.572 41.572 0 01.080284.9444c.23667 3.1827.072171 6.0629-.4965 8.6369a18.799 18.799 0 01-2.9769 6.8981 3.487 3.487 0 01-.25353.28945c-.646.658-1.3436.75645-2.0916.29578l-10.547-6.2009c-.39067-.19533-.58523-.53668-.58523-1.0247l-.19437-24.121c0-.684.32476-1.2698.97609-1.7578l2.2944-1.8064c.20467-.15333.41905-.20646.64439-.15846zm206.37.20494c.06333 0 .12982.010245.19649.029579a.946.946 0 01.15845.061269 1.441 1.441 0 01.12888.071833c.15467.098667.25857.21438.31057.34438a29.525 29.525 0 001.1134 2.7402 24.216 24.216 0 004.6966 6.8284 23.094 23.094 0 01.71411.84298 25.073 25.073 0 013.2156 5.2121 17.306 17.306 0 011.162 3.4079 21.495 21.495 0 01.52396 4.3565 18.999 18.999 0 01.03803 1.1937 15.272 15.272 0 01-4.2382 10.769 3.343 3.343 0 01-.16057.17958c-.51586.46942-1.0612.60043-1.6416.36339a2.242 2.242 0 01-.38029-.20071l-8.6432-5.3727c-.39066-.19533-.58523-.53668-.58523-1.0247l-.19437-28.125a1.217 1.217 0 01.02324-.24508c.02756-.13316.08046-.24444.15635-.33804.05811-.038771.12351-.072687.19648-.099299a33.828 33.828 0 002.9283-.9275.62.62 0 01.28099-.067608zm-86.54.61481c.44417-.010667.94027.25139 1.4853.78805.16143.16007.31342.32777.45847.50283.24924.23731.50308.47288.75848.70354 2.388 2.156 4.4961 3.4833 6.3234 3.9846.42333.13.63383.39105.63383.78172l-.43946 22.412v.1162c7e-4.72733.01017 1.3132.02747 1.7599.0051.13942.01213.27909.02113.41832 0 .10933-.03004.22672-.08874.35072-.0311.064839-.06553.12626-.10563.18592-1.5607 1.6687-2.933 2.5036-4.1156 2.5036-.24391.000645-.48578-.036323-.71834-.10986-.0327-.03267-.06659-.048593-.09929-.048593-3.9467-1.5787-6.6963-5.1115-8.2503-10.598-.52913-1.9198-.90497-3.8793-1.124-5.8586-.13209-1.0864-.19971-2.1783-.20071-3.2726-.01175-4.9142 1.4715-9.7154 4.253-13.767.34333-.558.73686-.84288 1.181-.85355z" fill-rule="evenodd" />
</svg>
