<svg width="212.2" height="65.999" version="1.1" viewBox="-.55859 -5.0264 216.46 71.41" xmlns="http://www.w3.org/2000/svg">
<path d="m2.6622-5.0264c-.16387-.004001-.35252.011704-.56424.044379-4.057.53413-6.8264 2.5986-8.3094 6.1961a16.712 16.712 0 00-1.0672 4.2054v.24514a13.231 13.231 0 00.95943 3.5397 17.863 17.863 0 001.604 2.9544 11.806 11.806 0 00.45858.64244c.8182 1.0703 1.8423 2.0349 3.0706 2.8931a19.704 19.704 0 003.1868 1.7899 51.957 51.957 0 003.6158 1.6357 357.84 357.84 0 013.7109 1.5385 1.1863 1.1863 0 01.065512.033813.85921.85921 0 01.42265.55156c0 .18004-.024618.33021-.073965.45224a.58915.58915 0 01-.21978.28106 21.269 21.269 0 01-.57481.45013c-2.614 1.9725-5.2284 2.9586-7.8424 2.9586a10.469 10.469 0 01-1.3504-.088758c-.83354-.052012-1.3337.28218-1.5004 1.0017a2.7197 2.7197 0 00-.061285.61074l.095097 20.317a14.113 14.113 0 01-.15216 2.1724c-.35609 2.2759-1.3296 3.7169-2.9227 4.3238-.39076.16271-.57156.43975-.53888.83052a.71718.71718 0 00.1754.43111c.1307.14738.33311.24753.60651.3022a53.842 53.842 0 012.35.70583c6.8517 2.2366 11.098 5.3052 12.741 9.2075.26073.61815.8488.61815 1.7604 0a35.021 35.021 0 012.1534-1.3504 45.633 45.633 0 012.779-1.4814 26.195 26.195 0 001.9844-1.082 21.185 21.185 0 002.2485-1.6124c3.2169-1.7272 8.8191-4.3976 12.823-4.4442a2.4136 2.4136 0 00.023246.008453c3.6469 1.1229 6.8291 2.522 9.5478 4.1991a26.198 26.198 0 016.7646 5.8601 3.4949 3.4949 0 00.12046.13314c.57281.58681 1.0705.63516 1.492.1437a2.0105 2.0105 0 00.19442-.27684 17.616 17.616 0 01.68047-1.2616 14.124 14.124 0 015.0338-5.0866 34.921 34.921 0 006.8364-5.2747 36.326 36.326 0 004.7866-5.7883c1.4004-2.0999 2.2633-4.4675 2.5888-7.1048a11.134 11.134 0 00.014793-.15004c.095294-1.0837.040994-2.3004-.15638-3.6433.48998-7.272 4.2612-12.197 4.9218-13.009.3771.054798.7758.21202 1.1982.49028.4301.27621.77609.66347 1.0017 1.1221.38877.73018.64587 1.7369.76923 3.0199.05946.65244.087331 1.3081.084531 1.9632v16.215c4.5e-5.03401 4.5e-5.067428 0 .10144-.008673 3.3462-.4547 5.7796-1.3356 7.3014-.39814.75809-1.0475 1.3523-1.8385 1.6801-.13203.090797-.2334.21973-.28952.36982-.03568.10047-.054132.20827-.052832.31488-7e-4.080759.007389.16006.025359.2388.033827.1616.13104.30355.26839.39518 1.071.74676 2.0722 1.5885 2.9924 2.5148 1.8066 1.8389 3.3035 3.9585 4.4315 6.2764.02501.03366.052014.06625.080304.09721.16406.1885.401.29554.65089.29374.1807.002095.35706-.053974.50296-.16061.087476-.064744.16599-.14259.23035-.23035.41718-.84417.87579-1.6669 1.3736-2.4662 1.5104-2.4609 3.4614-4.6217 5.7566-6.3736.15005-.08536.25087-.2021.3022-.3508.02768-.083523.041352-.17195.040152-.25993.000152-.01.000152-.019586 0-.029586-.004667-.14804-.042767-.27904-.11412-.39307-.0597-.092964-.13738-.17382-.22823-.23669-1.9538-.80087-2.9311-3.7455-2.9311-8.8335 7.4e-5-.083687.001521-.16568.002113-.24937v-19.44c-.000357-.15637.056553-.30593.16061-.42266.053238-.0611.11328-.11619.17963-.16272l5.0803-3.956c.30007-.17537.59137-.20635.87278-.092984.0892.036866.17398.084119.25148.14159l4.1505 3.4193v.097211h.0486c.0768.04628.14723.10001.21133.16272.25006.24339.41182.61479.48182 1.1116.0279.20921.03904.4187.03804.62976l-.0486 25.006c-.08536 3.8159 1.5674 7.4639 4.4928 9.9155 1.3334 1.1345 2.8134 2.0868 4.3977 2.8318.0284.01552.05563.032012.08453.046492.68617.34942 1.2823.26286 1.7857-.25993.12243-.12907.23246-.2702.32756-.42054.88085-1.5329 2.9487-5.1658 3.8102-6.7096.08726-.5015.14719-1.0023.18808-1.4899l5.0676-32.792c.76539-.67085 1.6671-.67488 2.7071.010566.43037.276.77799.66557 1.0038 1.1243.38867.73.64233 1.7351.765 3.0178.0598.65226.08865 1.3082.08665 1.9632v16.211c4e-5.034 4e-5.067437 0 .10144-.00867 3.3453-.45426 5.7779-1.3356 7.2992-.3978.75773-1.048 1.3522-1.8386 1.6801-.13237.090623-.23312.21963-.28952.36982-.0357.10045-.05383.20618-.05283.31276-7e-4.080739.00947.16219.02747.24091.03382.16156.12897.30358.26628.39518 1.0707.74657 2.0725 1.5888 2.9924 2.5148 1.8062 1.8384 3.3017 3.9569 4.4294 6.2743.0253.03369.05171.06627.08031.09721.16402.18845.40318.29554.653.29374.18066.002096.3571-.054.50296-.16061.08745-.064728.16383-.14262.22823-.23035.41707-.84395.87592-1.6671 1.3736-2.4662 1.51-2.4603 3.462-4.62 5.7566-6.3715.14933-.085333.24878-.20214.30008-.3508.028-.083442.04315-.17191.04227-.25993-.00018-.01-.00162-.019586-.00211-.029586-.004-.148-.04212-.27907-.11412-.39307-.05939-.092844-.13562-.17374-.22612-.23669-1.954-.80067-2.9311-3.7447-2.9311-8.8314 7e-5-.083667-.00059-.1657 0-.24937v-19.436c-8e-5-.15646.05833-.30611.16272-.42265.05322-.061085.11333-.1162.17963-.16272l5.0782-3.9539c.30067-.17533.59211-.20632.87278-.092984.08918.036857.17186.08414.24936.14159l4.1526 3.4172v.097211h.04649c.07678.046269.14934.10214.21344.16484.25067.24333.40971.6128.47971 1.1095.0279.20915.04116.42086.04016.63187l-.04861 25c-.08534 3.8149 1.5681 7.4603 4.4928 9.9113 1.3331 1.1342 2.8096 2.087 4.3935 2.8318.0281.01551.05804.029889.08664.044379.68667.34933 1.2803.26273 1.7836-.25993.1224-.12904.23246-.26813.32756-.41843.88031-1.5325 1.751-3.0719 2.612-4.6154.87392-1.5649 1.7949-3.1029 2.7599-4.6133.0226-.03632.04411-.07288.06551-.10989.78484-1.2088 1.329-2.2659 1.7181-3.2016a33.834 33.834 0 00.24514.69738c1.546 3.662 4.1899 6.7633 7.9332 9.3026a9.252 9.252 0 00.23034.16695c.238.16733.4978.33418.7798.50085a16.868 16.868 0 00.91928.50507 2.889 2.889 0 01.39306.2388 2.007 2.007 0 01.85165 1.5194.517.517 0 00.28107.46915c.13933.081334.33003.1375.5727.16484a3.974 3.974 0 00.18174.016906c.48066.032666.85091-.039441 1.1116-.21344a45.48 45.48 0 012.2316-1.6927 55.411 55.411 0 014.1906-2.7008 129.99 129.99 0 01.90237-.52409 143.11 143.11 0 016.642-3.5778 1.351 1.351 0 00.09298-.046492c.14473-.080831.24009-.17764.29586-.2874.08991.10084.21635.18934.38461.26416.10926.04788.22092.086994.33602.11834.0313.0073.06168.015846.09298.023246 1.9667.46533 3.626 1.0119 4.9746 1.6399.66039.30151 1.2935.65964 1.8914 1.0714.42412.29865.83384.61433 1.232.94675.61267.51 1.2426 1.0892 1.8893 1.7392.68502.69188 1.3462 1.4081 1.9801 2.1471.0122.01411.02343.028376.03592.042266.55067.61133 1.0662.68433 1.5469.21767.08126-.080119.15681-.16767.22401-.25993.06066-.12234.12185-.24393.18385-.3656 1.814-3.5607 4.3735-7.1823 7.6775-10.864.0356-.04266.06833-.086373.10143-.13102.32267-.43667.35031-.7688.08031-.99746-.05584-.04576-.11664-.08493-.18174-.11623-.0165-.00828-.03392-.015546-.05072-.023246-.36667-.16867-.68676-.14548-.95943.071851-.07893.064199-.15013.13852-.21133.21978-.16049.21546-.32504.42761-.4945.6361-1.2833 1.5767-2.2573 2.1615-2.9227 1.7561l-3.5165-2.0499c-.09101-.051289-.17516-.1146-.24936-.18808-.254-.25067-.41617-.63195-.48817-1.1433-.0299-.22239-.04326-.44551-.04226-.66991l.0486-23.683c-6e-5-.006-6e-5-.010906 0-.016906-.00055-.17646.06912-.34702.19442-.47126l2.295-2.7832c.18733-.188.39152-.28106.61285-.28106.0483.00013.0962.00418.1437.01268.27667.049333.48074.17238.61074.36771l3.9539 7.3225c.06333.16867.16564.29015.30431.36348.08089.04113.16752.066978.25782.076078.0338.004.06945.006322.10355.00634.23667 0 .45512-.098639.65512-.29797l5.858-7.0309c.154-.20533.2065-.42133.1585-.64666-.0139-.06328-.03469-.1248-.06129-.18385l-5.1268-9.8162c-.16333-.26-.37398-.39753-.63398-.4142-.02-.000962-.04129-.002409-.06129-.002113-.12867 0-.2487.026974-.36137.080304-.09748.048016-.18614.11246-.26204.1902l-7.519 8.6433c-.228.29267-.48858.39832-.78191.31699-.18835-.048711-.35229-.16672-.45858-.32967-.0558-.086989-.0984-.18172-.1268-.28106-.67133-2.5227-2.3134-4.732-4.926-6.6293-1.1563-.82694-2.3823-1.5502-3.6665-2.1598-.91133-.61867-1.6445-.43778-2.1978.53888-.90575 1.5518-1.7939 3.1124-2.6627 4.6851-2.6318 4.2813-1.1696 3.5074 1.978 4.7866.43.27614.77826.66358 1.0038 1.1221.38867.73.64379 1.7372.76712 3.0199.0595.65228.08753 1.3061.08453 1.9611v20.655c.00057.049329.00201.098599.00211.14793 0 3.292-1.0741 5.1144-3.2227 5.467-.0154.00612-.03129.01252-.04649.01902-.106.044-.19743.094825-.27473.15216-.12013.08263-.20761.19808-.25993.32967-.2085-.2646-.59625-.26856-1.1644-.01268a14.412 14.412 0 01-.35925.13314c-2.5027.89-5.0137.99242-7.5317.30642a15.342 15.342 0 01-3.2904-1.344 10.11 10.11 0 01-1.3356-.86856c-2.1533-1.6553-3.894-4.3055-5.224-7.9501a39.934 39.934 0 01-1.4476-5.0719 1.274 1.274 0 01-.00634-.046492c-.04667-.39933.11639-.69324.49239-.88124l20.021-7.7642h.09721c.55333-.228.66768-.78237.34235-1.661l-7.0309-16.503a3.636 3.636 0 00-.10778-.24091c-.346-.71133-.83138-1.0489-1.456-1.0123a1.784 1.784 0 00-.24302.031699c-2.6367.68333-5.2089 1.5721-7.7156 2.6627a27.343 27.343 0 00-.23457.10144 24.367 24.367 0 00-6.4053 4.1209c-5.404 4.8507-7.9118 11.915-7.5211 21.192a33.834 33.834 0 001.2806 7.8572c.19896 2.0747-1.5796 4.5484-1.9167 5.131-.87867 1.5953-2.0338 1.9529-3.4658 1.0735-.43023-.27573-.77783-.66382-1.0038-1.1221-.38867-.73067-.64445-1.7358-.76712-3.0178-.0598-.65226-.08865-1.3082-.08665-1.9632v-20.655c0-.17671.00457-.35383.01057-.53043.058-1.58.38055-2.7295.96788-3.4489.16746-.20622.34735-.4013.53888-.58538.48987-.47669 1.0708-.85028 1.7075-1.0989.09137-.02709.17935-.064684.26205-.112.23267-.13667.34869-.33695.34869-.60228-2e-5-.01401-.00148-.028275-.00212-.042265-.016-.374-.31637-.62655-.90237-.75655-3.3207-.586-5.6729-1.4813-7.0562-2.686s-3.0509-2.8331-5.0042-4.8838c-.07853-.085394-.16185-.16661-.24725-.24514-.68667-.62667-1.1897-.56146-1.511.19654-.0154.03244-.03059.06499-.04649.09721-.47267.934-1.2122 1.9262-2.2168 2.9755-.50943.52851-1.0407 1.0343-1.5934 1.5173-.4678.41137-.93724.8213-1.4074 1.2299-1.3593 1.1819-2.729 2.352-4.1103 3.508-.19533.146-.3907.21767-.58537.21767-.06607 9e-5-.13244-.007216-.19654-.023246-.10893-.026057-.20768-.084189-.28318-.16695-.056-.061333-.10136-.13612-.13736-.22612-.0303-.077897-.05342-.15854-.06762-.24091-.3927-1.4111-1.0752-2.7258-2.0034-3.8588-.79933-.99667-1.8026-1.9358-3.0093-2.8191-1.1326-.81727-2.3306-1.5416-3.582-2.1619l-.0486-.048605c-.07071-.04132-.14166-.078807-.21556-.11412-.68733-.33-1.2552-.23381-1.7012.28952-.10693.12722-.19965.26601-.27895.41209-.90544 1.5521-1.7942 3.1141-2.6627 4.6872-.85872 1.5559-1.7616 3.0866-2.7092 4.59-.0222.03534-.04441.071787-.06551.10778-.12466.21366-.20738.40714-.25782.58749-.00418.006537-.00852.01245-.01268.01902l-.01268.076077c-.00925.043314-.01434.085537-.01902.1268l-4.5985 29.734c-.319 1.0554-.37105 1.7514-1.437 1.0968-.42997-.27594-.77594-.66384-1.0017-1.1221-.38877-.73085-.64376-1.7376-.76712-3.0199-.0598-.65243-.08864-1.306-.08664-1.9611v-20.661c0-.17676.00357-.3538.01057-.53043.05735-1.5804.37828-2.7294.96576-3.4489.16783-.2063.34908-.40128.541-.58538.4897-.47669 1.0689-.85221 1.7054-1.101.09173-.027027.18106-.064593.26416-.112.23205-.1367.34869-.33688.34869-.60228-2e-5-.01401-.00147-.028276-.00211-.042266-.016-.37409-.31622-.62652-.90237-.75655-3.3208-.58615-5.6747-1.481-7.0583-2.686-1.3844-1.205-3.0532-2.8326-5.0064-4.8838-.07888-.085436-.15934-.16872-.24514-.24725-.68684-.62682-1.1924-.56165-1.5131.19654-.0158.03245-.0303.064981-.0465.09721-.47279.93423-1.2119 1.9259-2.2168 2.9755-.50956.52864-1.0426 1.0363-1.5955 1.5194-.46758.41147-.93535.82119-1.4053 1.2299-1.3596 1.1822-2.7307 2.3517-4.1124 3.508-.19538.14604-.39.21978-.58538.21978-.065753 1e-5-.13274-.009399-.19653-.025359-.10932-.025879-.20742-.083999-.28318-.16695-.05603-.061349-.10136-.1361-.13736-.22612-.030319-.077917-.053384-.15852-.067624-.24091-.3928-1.4114-1.075-2.7255-2.0034-3.8588-.79953-.99692-1.8023-1.9377-3.0093-2.8212-1.1325-.81743-2.3307-1.5393-3.582-2.1598l-.050719-.050718c-.070725-.041329-.14164-.078797-.21555-.11412-.68751-.33008-1.2544-.23394-1.7012.28952-.10696.12726-.20179.26597-.28106.41209-.90566 1.5525-1.7919 3.1159-2.6606 4.6894-.31066.56289-.63493 1.1175-.95731 1.6737-1.6583 2.3719-3.7021 5.0569-5.7481 7.1281-.22815-.49717-.46273-.97477-.70795-1.4265a17.568 17.568 0 00-1.8111-2.7367c-2.8981-3.3868-4.6241-6.8367-5.1775-10.353-.014686-.17271-.05033-.31396-.10566-.42266a.47812.47812 0 00-.31065-.26205c-.24473-.064683-.51242-.016891-.80516.14582a49.136 49.136 0 01-8.6898 4.0681 56.956 56.956 0 01-14.413 3.0156 1.5594 1.5594 0 00-.20921.033813c-.082706.01934-.15645.046964-.21978.080304a.58215.58215 0 00-.23035.20287c-.114.17938-.13718.37399-.071851.58538a1.4244 1.4244 0 01.002113.014793c.062667.21005.095097.491.095097.84108l.14582 24.907a18.626 18.626 0 000 .002113 18.626 18.626 0 000 .002113 18.626 18.626 0 000 .002114 18.626 18.626 0 000 .002113 18.626 18.626 0 000 .002113 18.626 18.626 0 000 .002113 18.626 18.626 0 000 .002114 18.626 18.626 0 000 .002113 18.626 18.626 0 000 .002113 18.626 18.626 0 000 .002114 18.626 18.626 0 000 .002113 18.626 18.626 0 000 .002113 18.626 18.626 0 000 .002113 18.626 18.626 0 000 .002114 18.626 18.626 0 000 .002113 18.626 18.626 0 000 .002113 18.626 18.626 0 000 .002113 18.626 18.626 0 000 .002114 18.626 18.626 0 000 .002113 18.626 18.626 0 000 .002113 18.626 18.626 0 000 .002114 18.626 18.626 0 000 .002113 18.626 18.626 0 000 .002113 18.626 18.626 0 000 .002113 18.626 18.626 0 000 .002114 18.626 18.626 0 000 .002113 18.626 18.626 0 000 .002113 18.626 18.626 0 000 .002114 18.626 18.626 0 000 .002113 18.626 18.626 0 000 .002113 18.626 18.626 0 000 .002113 18.626 18.626 0 000 .002114 18.626 18.626 0 000 .002113 18.626 18.626 0 000 .002113 18.626 18.626 0 000 .002113 18.626 18.626 0 000 .002114 18.626 18.626 0 000 .002113c-.002137.4917-.030744.94893-.071851 1.3863-1.2401 4.3653-7.244 5.8104-10.484 6.2764.043123-.052954.088133-.10076.13102-.15427a31.648 31.648 0 003.0156-4.5583 28.243 28.243 0 00.91293-1.8111c.86288-1.8758 1.5776-3.9457 2.1471-6.2109a51.776 51.776 0 001.1898-6.6293v-.14582a32.924 32.924 0 00-1.1877-6.4708 22.462 22.462 0 00-7.4324-11.405 56.957 56.957 0 00-6.0714-4.2857 67.128 67.128 0 00-11.779-5.6784c-.03268-.032673-.066651-.048605-.099324-.048605a15.869 15.869 0 01-1.0165-.22823 13.299 13.299 0 01-4.7697-2.2866 9.7864 9.7864 0 01-.73331-.61496c-.42544-.3961-.77478-.80114-1.0482-1.2172a4.2081 4.2081 0 01-.73542-2.2464c-.064683-2.3119 1.1897-3.8252 3.7616-4.5414.44611-.1187.65487-.37424.62553-.76501a1.1363 1.1363 0 00-.014793-.11412c-.061016-.34209-.33678-.52054-.8284-.53254zm175.06 23.645c.25316.005833.45974.11288.61707.32122a1.338 1.338 0 01.16484.30008l5.9573 14.601c.19533.488.04843.8296-.43956 1.0249l-10.402 3.9053c-.29267.13-.53586.12342-.73119-.023246a.834.834 0 01-.24937-.29374.961.961 0 01-.09298-.31699 38.696 38.696 0 01-.27261-4.6027 40.99 40.99 0 01.61496-7.0182 26.027 26.027 0 01.22189-1.1348c.72333-3.2933 1.9348-5.4383 3.6348-6.4349a3.905 3.905 0 01.07397-.042265c.349-.19667.6492-.29112.90237-.28529zm-126.86 1.1898c.063347 0 .12774.010246.19442.029586a.94624.94624 0 01.1585.063398 1.4414 1.4414 0 01.12891.071852c.15472.098691.25865.21232.31065.34235a29.532 29.532 0 001.1137 2.7409 24.222 24.222 0 004.6999 6.8322 23.1 23.1 0 01.71217.8432 25.079 25.079 0 013.2185 5.2134 17.31 17.31 0 011.1602 3.4087 21.5 21.5 0 01.52409 4.3555 19.004 19.004 0 01.038039 1.194 15.276 15.276 0 01-4.2371 10.773 3.3438 3.3438 0 01-.21978.24303c-.54613.55014-1.1274.69863-1.7456.4459a2.2426 2.2426 0 01-.38039-.20076l-8.6454-5.3741c-.39077-.19539-.58538-.53682-.58538-1.0249l-.19442-28.132a1.2173 1.2173 0 01.023246-.24514c.059347-.28674.23012-.48202.51353-.58538a33.836 33.836 0 002.9311-.92773.62016.62016 0 01.28106-.067625zm-38.645 2.1555a.93523.93523 0 01.18597.061285 75.318 75.318 0 011.4011.67202c.9189.45411 1.6836.86216 2.2971 1.2236a14.615 14.615 0 01.79459.49662c4.9819 3.5169 7.8067 8.7021 8.4742 15.556a41.582 41.582 0 01.080304.94675c.23672 3.1835.072189 6.0623-.49662 8.637a18.804 18.804 0 01-2.9776 6.8998 3.4879 3.4879 0 01-.25359.28952c-.64616.65816-1.344.75875-2.0921.29797l-10.549-6.2025c-.39076-.19538-.58538-.53892-.58538-1.0271l-.19653-24.127c0-.68417.32695-1.2701.97845-1.7582l2.295-1.8068c.20472-.15337.41916-.20651.64455-.1585z" fill-rule="evenodd" />
</svg>
