<svg width="329.83" height="82.278" version="1.1" viewBox="-.55859 -21.359 334.39 87.794" xmlns="http://www.w3.org/2000/svg">
<path d="m215.8-21.359a6.985 6.985 0 00-1.9903.28552 7.692 7.692 0 00-2.38 1.2046 6.731 6.731 0 00-.53352.43348 4.74 4.74 0 00-1.6402 3.3011c-.13066 1.5627.11492 3.2714.73359 5.1268.61866 1.856 1.5123 2.7843 2.6842 2.7843.902.024667 2.0509-.48645 3.4449-1.5318a20.986 20.986 0 001.315-1.0816c1.126-.998 1.9671-1.9938 2.5217-2.9864a6.117 6.117 0 00.77527-2.3112 9.78 9.78 0 00.02293-.26676c.17466-2.6487-.85215-4.2354-3.0782-4.7621a8.185 8.185 0 00-1.8756-.1959zm-215.14.006252c-.16383-.004-.35311.011099-.56478.043765-4.056.534-6.8244 2.5992-8.307 6.1959a16.708 16.708 0 00-1.067 4.2035v.24383a13.228 13.228 0 00.96075 3.5408 17.859 17.859 0 001.6026 2.9531 11.803 11.803 0 00.45849.64189c.818 1.07 1.8418 2.0347 3.0698 2.8927a19.699 19.699 0 003.1844 1.7881 51.944 51.944 0 003.6137 1.636 357.75 357.75 0 013.7117 1.538 1.186 1.186 0 01.064606.035429.859.859 0 01.42306.55019c0 .18-.023609.33024-.072942.45224a.589.589 0 01-.21883.28135 21.264 21.264 0 01-.5752.45015c-2.6133 1.972-5.2269 2.9573-7.8402 2.9573a10.466 10.466 0 01-1.3505-.08753c-.83333-.052-1.3338.28101-1.5005 1.0003a2.719 2.719 0 00-.062522.61063l.09795 20.313a14.109 14.109 0 01-.15422 2.1695c-.356 2.2753-1.3292 3.7177-2.9218 4.3244-.39067.16267-.57035.43879-.53768.82945a.717.717 0 00.17506.42931c.13067.14733.33313.2496.60646.30427a53.829 53.829 0 012.3487.70649c6.85 2.236 11.097 5.3039 12.74 9.2052.26067.618.84552.618 1.7569 0a35.012 35.012 0 012.1549-1.3525 45.622 45.622 0 012.778-1.4797 26.188 26.188 0 001.984-1.0816 21.18 21.18 0 002.2758-1.6318c1.524-.91281 12.055-7.0518 16.966-5.3081 1.2891 2.7373 3.0917 5.2357 5.3498 7.3379 1.5607 1.4853 2.5178 2.5996 2.8718 3.3449.09152.17327.1457.36494.1563.56061-.044667.35667.005471.60692.15214.75026.072515.06817.16435.1133.26259.12921.04419.0082.088439.01273.13338.012504.244 0 .54198-.11362.89197-.33762.12621-.081778.24846-.16771.36679-.26051.8844-.66346 1.7672-1.3293 2.6488-1.9965.9573-.72462 1.913-1.4519 2.8677-2.1799l2.8572-2.1778 2.6113-1.9965c.053807-.03076.1108-.055289.16881-.077109.138-.052.28599-.079194.44599-.079194.055472 4e-4.1116.00412.16672.01042.070308.052277.1365.10852.20007.16881.14533.13867.24301.27748.28968.41681.54866 2.3073 1.5301 4.0956 2.9448 5.3623 1.1626 1.0165 2.5702 1.7094 4.0847 2.0111.488.13067.91119.39152 1.2692.78152.035.04023.071381.078287.10837.11671.60466.62866 1.1226.59062 1.5526-.11671l.047933-.047933c.75678-1.8385 1.6806-3.6046 2.7593-5.2747.57664-.89464 1.7255-1.786 2.8593-2.6759 1.695.4307 3.1591.92166 4.3619 1.4818.66039.30151 1.2924.6615 1.8902 1.0733.42412.29864.83556.61374 1.2338.94616.61267.51 1.2436 1.0902 1.8902 1.7402.68502.69187 1.3439 1.4076 1.9778 2.1466.0122.01411.025013.027791.037513.041681.55067.61133 1.0657.68341 1.5464.21674.08126-.080119.15579-.16616.22299-.25842.06066-.12234.12348-.24305.18548-.36471 1.8133-3.5607 4.3709-7.1822 7.6756-10.864.0356-.04266.071103-.086645.1042-.1313.32267-.43667.34778-.76959.07711-.99826-.05553-.04569-.11661-.085337-.18131-.11671-.0165-.00828-.033217-.015224-.050017-.022924-.36667-.16867-.68533-.14439-.95866.072941-.07893.064199-.15137.13757-.21257.21883-.16017.21545-.3248.42714-.49392.63564-1.2833 1.5767-2.2579 2.1622-2.9239 1.7569l-3.5137-2.0507c-.09101-.051289-.17589-.11408-.25009-.18756-.254-.25067-.41705-.63281-.48975-1.1441-.0299-.2224-.044765-.44667-.043765-.67106l.050017-23.681c-6e-5-.006-6e-5-.012756 0-.018756-.00028-.1766.070231-.34484.1959-.46891l2.2945-2.7843c.18733-.188.39204-.28135.61271-.28135.0483.00013.0963.0040043.1438.012504.27667.049333.47996.17146.61063.36679l3.9555 7.3254c.06333.16867.16352.2893.30219.36262.08058.04101.16842.065826.25842.075026.0342.004.069803.006273.1042.006252.23667 0 .45298-.098686.65231-.29802l5.8416-7.0087c1.1306-.81969 2.1251-1.167 2.9198-1.2838l.13546 23.208a18.621 18.621 0 000 .002084 18.621 18.621 0 000 .002084 18.621 18.621 0 000 .002084 18.621 18.621 0 000 .002084 18.621 18.621 0 000 .002084 18.621 18.621 0 000 .002084 18.621 18.621 0 000 .002084 18.621 18.621 0 000 .002084 18.621 18.621 0 000 .002085 18.621 18.621 0 000 .002084 18.621 18.621 0 000 .002084 18.621 18.621 0 000 .002084 18.621 18.621 0 000 .002084 18.621 18.621 0 000 .002084 18.621 18.621 0 000 .002084 18.621 18.621 0 000 .002084 18.621 18.621 0 000 .002084 18.621 18.621 0 000 .002084 18.621 18.621 0 000 .002084 18.621 18.621 0 000 .002084 18.621 18.621 0 000 .002084 18.621 18.621 0 000 .002084 18.621 18.621 0 000 .002084 18.621 18.621 0 000 .002084 18.621 18.621 0 000 .002084 18.621 18.621 0 000 .002084 18.621 18.621 0 000 .002084 18.621 18.621 0 000 .002084 18.621 18.621 0 000 .002085 18.621 18.621 0 000 .002084 18.621 18.621 0 000 .002084 18.621 18.621 0 000 .002084 18.621 18.621 0 000 .002084 18.621 18.621 0 000 .002084 18.621 18.621 0 000 .002084 18.621 18.621 0 000 .002084 18.621 18.621 0 000 .002084 18.621 18.621 0 000 .002084c-.00666 1.6867-.24399 3.052-.71066 4.0993a4.033 4.033 0 01-2.4154 2.3154c-.19867.090667-.34432.21054-.43765.36054a.856.856 0 00-.12296.42306c-.01333.284.16343.50556.53143.6669a2.413 2.413 0 00.32303.11254c3.646 1.1227 6.827 2.5227 9.545 4.1994a26.191 26.191 0 016.7627 5.8583 3.494 3.494 0 00.12087.13338c.57267.58666 1.0708.63305 1.4922.14172a2.01 2.01 0 00.19382-.27509 17.612 17.612 0 01.68148-1.2608 14.12 14.12 0 015.0309-5.0851 34.912 34.912 0 006.8357-5.2747 36.317 36.317 0 004.785-5.7853c1.4-2.0993 2.2631-4.4679 2.5884-7.1045a11.131 11.131 0 00.01459-.15005c.12759-1.4559-.01216-3.1509-.41264-5.0747-.34309-6.9643.26801-11.881.91698-14.966.62113 1.0394 1.4974 2.0419 2.6509 3.0031.30919.26553.60832.54095.90031.82528.40499.39505.79654.80339 1.1733 1.2254.20688.23232.38348.49.52518.76693.19533.37733.34165.80653.43765 1.2859.0837.43419.12847.87499.13547 1.3171.0978 3.0263.14778 6.0523.14796 9.0802v9.0823c0 5.078-1.058 8.1056-3.174 9.0823-.0236.01476-.04638.031373-.06878.047933-.10533.078-.18566.16901-.23966.27301-.0563.11294-.08328.23646-.08128.36262 0 .29267.12972.50497.38972.63564 3.1253 2.246 5.5834 5.1751 7.3734 8.7884.06199.08394.13308.1617.21258.22924.13294.11496.29671.18782.47099.21049.0232.0028.04538.004275.06878.004168.17333 0 .34008-.081083.49808-.24175.06043-.062707.11524-.13042.16464-.20215 1.5876-3.5317 4.0813-6.5812 7.2275-8.8385.1953-.13066.29176-.33396.29176-.61063 0-.02536-8e-5-.049736-.00208-.075026-.00925-.22676-.11442-.43935-.28968-.58353-1.6087-.726-2.5764-2.7965-2.9031-6.2105-.0871-.95481-.12905-1.9131-.12505-2.8718 2e-4-3.1331-.01573-6.2662-.04793-9.3991-.0326-3.1332-.04992-6.2657-.05002-9.3991-.001-.1316.02758-.26125.08128-.38138.05214-.11243.12387-.21562.21257-.30219l5.2726-4.0035c1.3207-1.0453 2.6297-.92921 3.9264.35012.25697.25628.49502.53077.71274.82112.24064.29496.46472.60334.67107.92323.246.384.44095.75714.58562 1.1191.16863.40718.27087.83807.30427 1.2775v.050017c-.0533 1.7598-.0792 3.5204-.0792 5.281 2e-4 1.4705.01917 2.9398.05627 4.4098.0812 3.2304.1208 6.4615.12088 9.6929.03267 3.6133-.99067 5.7779-3.074 6.4939-.21933.087333-.36636.22306-.43766.40639-.0361.096523-.0541.19915-.0521.30219.00087.17244.06622.33841.18132.46683.122.14333.30627.27297.55227.38763 7.3893 2.2787 12.84 5.6324 16.356 10.06.78133.87867 1.3835.87867 1.8069 0 1.0987-2.1688 2.425-4.2151 3.9555-6.1042.46836-.57864.95542-1.1438 1.4588-1.6922 1.0423-1.1408 2.1712-2.1983 3.3762-3.1657.21067-.16801.41931-.33927.6273-.51059 1.4094-1.1578 2.7495-2.3971 4.0118-3.7138 2.0326-2.0822 3.5477-4.6133 4.4244-7.388.6407-2.0225 1.023-4.1171 1.14-6.2355.11469-1.7297.00944-3.4381-.30635-5.1247l5.9375-7.3692a6.415 6.415 0 01.16047.23758 2.323 2.323 0 01.13546.33762c.10533.33067.15839.72416.15839 1.1775l.34178 26.757a15.808 15.808 0 00.31053 3.224 11.17 11.17 0 001.909 4.3932c.89131 1.214 2.0448 2.3167 3.4595 3.3074a22.157 22.157 0 003.1573 1.8194c.74867.42733 1.3979.37269 1.9486-.16464a2.719 2.719 0 00.34595-.42098c.87933-1.53 1.7424-3.0681 2.5884-4.6141.84667-1.5467 1.7576-3.0848 2.7343-4.6141a4.091 4.091 0 00.06668-.11046c.422-.72466.40832-1.2502-.04168-1.5755a1.331 1.331 0 00-.08127-.052101c-.36667-.22667-.6875-.15376-.96284.22091a1.962 1.962 0 00-.15213.248 5.071 5.071 0 01-.28135.4314c-.86733 1.1893-1.9458 1.4039-3.2344.64189a2.807 2.807 0 01-1.0024-1.1212c-.38867-.73066-.6436-1.7378-.76693-3.0198a20.634 20.634 0 01-.08545-1.9632v-20.015c3.0165-3.9634 12.903-6.2423 16.914-7.0316.51471.010379 1.0568.0013605 1.6422-.045849.49849-.0021.99569.062129 1.4776.18965 1.8227.48867 3.0916 1.9192 3.8076 4.2952.14846.48959.22293.99933.223 1.5109 0 1.94-1.0748 3.9923-3.2261 6.1563-.51163.5148-1.0359 1.0149-1.5735 1.5026-2.4167 2.1785-5.0554 4.0986-7.8735 5.7249-.0393.02421-.08009.047812-.11879.072942-1.026.66533-1.0222 1.1598.01042 1.4818.13182.04053.26541.074763.40014.1042 1.1186.16229 2.2252.39568 3.3136.70024 1.4609.40481 2.8734.97262 4.2077 1.6922.0541.02255.1052.04837.15631.07711.40533.23066.45312.56359.14379.99826-.04848.06741-.09878.13199-.15421.19382-.95598.92361-1.8628 1.898-2.7155 2.9177-4.3269 4.9723-6.7094 11.342-6.7086 17.933-.00087.70753.03644 1.414.11254 2.1174.28842 3.1353 1.5842 6.0937 3.695 8.43.20119.22184.40753.43812.61896.65022.85467.85733 1.729 1.5603 2.6196 2.107 1.455.92845 3.1404 1.4263 4.8663 1.4401 2.7253 0 5.42-1.2402 8.084-3.7242 1.041-.98416 2.0034-2.0498 2.8781-3.1844 3.4094-4.2207 5.2649-9.4857 5.2539-14.911-4e-5-.14868-.00117-.29734-.00417-.44599-.0673-3.6927-.43821-6.7234-1.1129-9.0927-.2674-.97739-.63892-1.9219-1.1087-2.8197-.21553-.40089-.44476-.7947-.68774-1.1796-1.3503-2.1174-5.0997-5.4602-5.0997-5.4602l-1.7027-1.092 11.883-16.893c.50056-.046138 1.0434.11648 1.6318.50434a2.807 2.807 0 011.0004 1.1212c.38867.73.64568 1.7371.76901 3.0198a20.634 20.634 0 01.08545 1.9611v16.212a38.66 38.66 0 000 .002084 38.66 38.66 0 000 .002084 38.66 38.66 0 000 .002084 38.66 38.66 0 000 .002084 38.66 38.66 0 000 .002084 38.66 38.66 0 000 .002084 38.66 38.66 0 000 .002084 38.66 38.66 0 000 .002084 38.66 38.66 0 000 .002084 38.66 38.66 0 000 .002084 38.66 38.66 0 000 .002084 38.66 38.66 0 000 .002084 38.66 38.66 0 000 .002084 38.66 38.66 0 000 .002084 38.66 38.66 0 000 .002085 38.66 38.66 0 000 .002084 38.66 38.66 0 000 .002084 38.66 38.66 0 000 .002084 38.66 38.66 0 000 .002084 38.66 38.66 0 000 .002084 38.66 38.66 0 000 .002084 38.66 38.66 0 000 .002084 38.66 38.66 0 000 .002084 38.66 38.66 0 000 .002084 38.66 38.66 0 000 .002084 38.66 38.66 0 000 .002084 38.66 38.66 0 000 .002084 38.66 38.66 0 000 .002084 38.66 38.66 0 000 .002084 38.66 38.66 0 000 .002084 38.66 38.66 0 000 .002084 38.66 38.66 0 000 .002084 38.66 38.66 0 000 .002084 38.66 38.66 0 000 .002084 38.66 38.66 0 000 .002085 38.66 38.66 0 000 .002084 38.66 38.66 0 000 .002084 38.66 38.66 0 000 .002084 38.66 38.66 0 000 .002084 38.66 38.66 0 000 .002084 38.66 38.66 0 000 .002084 38.66 38.66 0 000 .002084 38.66 38.66 0 000 .002084 38.66 38.66 0 000 .002084 38.66 38.66 0 000 .002084 38.66 38.66 0 000 .002084 38.66 38.66 0 000 .002084 38.66 38.66 0 000 .002084 38.66 38.66 0 000 .002084c-.00933 3.3453-.45312 5.7791-1.3338 7.3004a3.661 3.661 0 01-1.8402 1.6797.781.781 0 00-.28968.36888.903.903 0 00-.0521.31469 1.038 1.038 0 00.02709.23967.63.63 0 00.26676.39388 21.761 21.761 0 012.9906 2.5154 23.838 23.838 0 014.4307 6.2751 1.241 1.241 0 00.07919.095867.856.856 0 00.65231.29385.836.836 0 00.50434-.16047 1.083 1.083 0 00.22925-.22925 28.788 28.788 0 011.3734-2.4675 23.444 23.444 0 015.7561-6.3709c.14933-.085333.24877-.20354.3001-.3522a.789.789 0 00.0396-.25842.987.987 0 000-.002084.987.987 0 000-.002084.987.987 0 000-.002084.987.987 0 000-.002084.987.987 0 000-.002084.987.987 0 000-.002084.987.987 0 000-.002084.987.987 0 000-.002084.987.987 0 000-.002084.987.987 0 000-.002084.987.987 0 000-.002084.987.987 0 000-.002084.987.987 0 000-.002084.987.987 0 010-.002084c-.00466-.148-.0412-.27989-.11254-.39389a.837.837 0 00-.22716-.2355c-1.954-.80066-2.9323-3.7435-2.9323-8.8301a40.549 40.549 0 01.00209-.25217v-19.434a.635.635 0 01.16255-.42306 1.001 1.001 0 01.17923-.16256l5.0788-3.9555c.3-.17533.5898-.20712.87113-.093782a1.176 1.176 0 01.25009.1438l4.1514 3.4178v.095866h.04793a1.157 1.157 0 01.21257.16464c.25067.24333.41.61205.47933 1.1087a4.557 4.557 0 01.04169.63147l-.05002 25a12.567 12.567 0 004.4911 9.9138 19.754 19.754 0 004.3973 2.8301 2.68 2.68 0 00.08545.045849c.686.34933 1.2799.26216 1.7839-.26051a2.735 2.735 0 00.3272-.42098 422.5 422.5 0 002.6113-4.612 90.785 90.785 0 01.41056-.68774l.08545.054185 5.0413-8.0674a23.983 23.983 0 006.2355 9.6033c1.5613 1.4853 2.5185 2.5996 2.8718 3.3449a1.356 1.356 0 01.15422.56061c-.044.35667.00822.60692.15422.75026a.499.499 0 00.26051.12921.714.714 0 00.13546.012504c.24467 0 .54056-.11362.88989-.33762a5.007 5.007 0 00.36679-.26051 784.4 784.4 0 002.6488-1.9965 1005.1 1005.1 0 002.8697-2.1799 5184.1 5184.1 0 002.8551-2.1778 3971.8 3971.8 0 002.6134-1.9965 1.164 1.164 0 01.16673-.077109c.13866-.052.28873-.079194.44807-.079194a1.56 1.56 0 01.16672.01042 2.198 2.198 0 01.20007.16881c.14534.13867.24093.27748.2876.41681.54933 2.3073 1.5322 4.0956 2.9468 5.3623a8.828 8.828 0 004.0847 2.0111c.48867.13067.9112.39152 1.2692.78152a3.177 3.177 0 00.10837.11671c.60467.62866 1.122.59062 1.5526-.11671l.04793-.047933a32.573 32.573 0 012.7593-5.2747 394.53 394.53 0 013.3928-5.1768 3.717 3.717 0 00.06044-.1042c.28067-.51133.32555-.90207.13755-1.1754a.75.75 0 00-.22091-.2084c-.36333-.228-.74401-.17411-1.14.16256a2.519 2.519 0 00-.25218.25217 8.609 8.609 0 01-.16255.17506c-.91734.95666-1.7887 1.3966-2.6113 1.3213a2.112 2.112 0 01-.76693-.22716c-1.0906-.55333-1.636-1.5787-1.636-3.0761l-.14589-22.314v-.09795a5.075 5.075 0 011.1129-2.8072 6.921 6.921 0 011.3776-1.2942 5.952 5.952 0 00.04793-.037513c1.0587-.82533 1.0283-1.3965-.09169-1.7152a5.003 5.003 0 00-.44391-.10212 19.357 19.357 0 01-5.1038-1.8548c-1.7007-.88933-3.4011-2.049-5.1018-3.4804a44.363 44.363 0 01-4.6391-4.5787 4.279 4.279 0 00-.16047-.1563c-.41767-.38933-.79214-.56368-1.1233-.52101-.33116.042666-.62021.3006-.86488.77527a28.667 28.667 0 01-1.3109 2.1341 23.366 23.366 0 01-3.0594 3.6763c-1.6433 1.5953-3.4097 3.1106-5.2977 4.5432a30.455 30.455 0 00-2.9072 2.5259 21.087 21.087 0 00-6.6148 14.807 34.465 34.465 0 00-.00833.84404c0 .59333.01451 1.1767.04584 1.7527a23.983 23.983 0 00.14172 1.4776l-6.075 9.7179c-.04664-.02631-.09029-.04394-.13754-.072942a2.807 2.807 0 01-1.0024-1.1212c-.38867-.73066-.64426-1.7378-.76693-3.0198a20.634 20.634 0 01-.08545-1.9611v-20.655a14.576 14.576 0 01.00834-.52935c.058-1.58.38033-2.7298.967-3.4491a6.467 6.467 0 01.53977-.58562 5.116 5.116 0 011.7068-1.1004 1.234 1.234 0 00.26259-.11045c.23267-.13667.34804-.33904.34804-.60437a.946.946 0 000-.041681c-.01667-.374-.31914-.62651-.90448-.75651-3.3206-.586-5.6712-1.4817-7.0545-2.6863-1.3833-1.2047-3.0526-2.8323-5.0059-4.8829a4.16 4.16 0 00-.24592-.24592c-.68667-.62666-1.1903-.56001-1.5109.19798a7.646 7.646 0 01-.04793.095866c-.472.934-1.2121 1.9267-2.2174 2.976a25.728 25.728 0 01-1.5922 1.5172 319.63 319.63 0 01-1.4067 1.2317 286.12 286.12 0 01-4.1118 3.5054c-.19533.146-.39028.21883-.58562.21883a.803.803 0 01-.1959-.022924.559.559 0 01-.28343-.16672c-.05533-.061333-.10154-.13716-.13754-.22716a1.253 1.253 0 01-.06669-.24175 10.553 10.553 0 00-2.0028-3.8576c-.79863-.99666-1.8027-1.9364-3.0094-2.8197a25.395 25.395 0 00-3.5804-2.1612l-.05002-.047933a2.956 2.956 0 00-.21674-.11462c-.68733-.33-1.2539-.23365-1.7006.28968a2.468 2.468 0 00-.27927.41056 228.08 228.08 0 00-2.6613 4.6891 91.804 91.804 0 01-1.836 3.1094l-11.86 16.862c-.2584-.13237-.53152-.27573-.72942-.36679-1.0007-.45827-2.0271-.8586-3.074-1.1983-.12932-.05867-.23635-.12615-.32303-.20215-.14637-.12032-.24089-.2911-.26259-.47933-.003-.0289-.00417-.05848-.00417-.08753 0-.17733.06443-.3365.19173-.47516.0609-.06531.1275-.12195.20215-.17089 4.5247-3.0273 7.9027-6.2673 10.133-9.7179.11994-.18531.23152-.37522.33344-.57103 1.412-2.7187.51625-5.6461-2.6884-8.7801-3.1131-2.8087-4.9478-4.0558-6.671-4.0806-.23406-.0033613-.46528.02372-.69816.064606l.07919-.1834s-.40002.23649-.47516.28343c-.67073.18558-1.36.52557-2.1403 1.0379-.60607.39791-1.1634.77728-1.6735 1.14-.00262.0018646-.00572.0043885-.00834.0062522-4.5297 2.4222-11.655 5.6851-16.474 5.1935-1.0688-.65953-2.0535-1.3083-2.8676-1.934a19.221 19.221 0 01-1.6172-1.3796 45.212 45.212 0 01-1.9778-2.0319 58.702 58.702 0 01-2.0257-2.3383 3.295 3.295 0 00-.01042-.0083362c-.57533-.544-1.0926-.63793-1.5526-.27926a1.637 1.637 0 00-.24384.23967c-1.204 1.758-2.3765 3.532-3.5158 5.3227a55.819 55.819 0 01-.65648 1.0066 62.623 62.623 0 01-3.2011 4.364 4.485 4.485 0 00-.08961.12087c-.11064.15615-.19607.30359-.26467.44599l-1.9924 2.4717c-.91139-2.0407-2.0648-3.9648-3.4428-5.7249-.71667-.91133-1.5228-1.8382-2.4175-2.7822-.06934-.073133-.13824-.1489-.20424-.22508-.74693-.83605-1.2139-1.8845-1.3359-2.9989-.20667-1.476-.78626-1.787-1.7423-.93365-.10615.095329-.20856.19619-.30636.3001-.16742.1604-.33661.31749-.50851.47308-.754.68267-1.5964 1.3622-2.5238 2.0382-.94109.68257-1.9082 1.327-2.901 1.9319-1.2053.738-2.359 1.4266-3.4616 2.0653-1.0264.59616-2.0618 1.1765-3.1052 1.7423-.0289.01455-.05783.028901-.08753.041681-.14.06-.2718.089614-.3918.089614-.07 2e-4-.13784-.011295-.20424-.033345-.0848-.028846-.16209-.07813-.22299-.1438-.048-.050667-.09121-.1114-.12921-.1834-.0351-.067107-.06403-.13851-.08753-.21049-.80133-2.0827-2.3834-3.9629-4.7454-5.6436-1.083-.76039-2.2225-1.4366-3.4095-2.0215-.0067-.00013-.01384.000536-.02084 0-.0227-.0013-.0394-.0065043-.0521-.012504-.015-.00619-.02542-.019319-.02501-.035429-.07069-.04166-.14284-.081067-.21674-.11671-.68733-.32933-1.2539-.23365-1.7006.28968-.10693.12722-.19997.26656-.27927.41264-.74867 1.2693-2.1334 2.7831-4.1514 4.5411-.96134.83745-1.9254 1.6703-2.8927 2.5009-.87167.74853-1.7455 1.4933-2.6238 2.2341-.22867.16667-.43797.25009-.6273.25009-.10518.00028-.20871-.027144-.30011-.079194-.17925-.097977-.30897-.26604-.35637-.46474-.0241-.095106-.03624-.19367-.03543-.29177-.03664-.47738-.09731-.95204-.18131-1.4234-.24852-1.448-.76645-2.8365-1.5276-4.0931-.70933-1.1593-1.9593-2.1468-3.7513-2.9614-.73304-.32908-1.4868-.6125-2.2549-.84821-.46664-.13372-.92092-.30342-1.3609-.50851-1.3393-.63733-2.0652-1.5005-2.1778-2.5905-1.8999-.97991-3.096-2.3465-5.3227 3.8555-.04278.24745-.06946.49792-.08753.74817l-2.4446 11.631c-.13694-.27819-.26998-.56666-.41264-.82945a17.564 17.564 0 00-1.811-2.7343c-2.8973-3.386-4.6214-6.8382-5.1747-10.354-.01466-.17267-.05095-.31231-.10628-.42098a.478.478 0 00-.30844-.26259c-.244-.064667-.5132-.014699-.80653.14797a49.124 49.124 0 01-8.6884 4.066 56.942 56.942 0 01-10.447 2.5363c-3.8343.11938-9.0724-.40814-11.614-3.7367l-.89823-1.7193c-.16267-.26-.37496-.39806-.63564-.41473-.0197-.000942-.038653-.000275-.058353 0-.12933 0-.25062.025864-.36262.079194-.09748.048016-.18669.11192-.26259.18965l-7.5193 8.6426c-.22733.29267-.48819.39811-.78152.31678-.18835-.048711-.3522-.16425-.45849-.3272-.0561-.086931-.098327-.18195-.12713-.28135-.67133-2.5227-2.3126-4.7341-4.9246-6.6314-1.1566-.82699-2.3854-1.5496-3.67-2.1591-.91133-.61867-1.6432-.43898-2.1966.53768-.90543 1.5518-1.7928 3.1143-2.6613 4.687-2.6589 4.5245-1.1708 3.5055 1.9778 4.785.43.27614.77688.66474 1.0024 1.1233.38867.73.64426 1.7371.76693 3.0198.0598.65226.087446 1.3061.085446 1.9611v20.655c.00057.04933.001984.098637.002084.14797 0 1.2977-.17037 2.3622-.50434 3.2032-.086869.047045-.17405.10396-.26259.17923-.09019.077909-.17595.16229-.25425.25217-.05352.059085-.10746.11748-.16256.17506-.91734.95666-3.9206 1.3966-4.7433 1.3213-.26779-.026119-.52806-.10333-.76693-.22716-1.0907-.55333-1.636-1.5787-1.636-3.0761l-.14797-22.314v-.09795c.077312-1.0268.46603-2.006 1.1129-2.8072.3983-.4924.86085-.92799 1.3776-1.2942.0161-.01225.032034-.025093.047934-.037513 1.0587-.82533 1.0283-1.3965-.091699-1.7152-.14669-.04109-.29408-.074578-.4439-.10212-1.7793-.37528-3.4966-1.0002-5.1018-1.8548-1.7013-.88933-3.4032-2.049-5.1038-3.4804-1.6561-1.4099-3.2053-2.9414-4.637-4.5787-.052269-.054072-.10751-.10506-.16256-.1563-.83533-.77866-1.4982-.69508-1.9882.25425-.4054.72973-.84127 1.4425-1.3088 2.1341-.89152 1.3271-1.9184 2.5585-3.0615 3.6763-1.644 1.5953-3.4097 3.1106-5.2977 4.5432-1.0217.78011-1.9922 1.623-2.9072 2.5259-4.0897 3.8566-6.4699 9.1877-6.6127 14.807-.0071.28128-.010199.56268-.01042.84404 0 .59333.014519 1.1767.045849 1.7527.005583.18661.021355.37253.031261.55853-.16223 6.1011-6.6116 7.9528-8.8009 8.4071a31.64 31.64 0 002.3237-3.6033 28.236 28.236 0 00.91073-1.811c.86266-1.8753 1.5772-3.9458 2.1466-6.2105a51.763 51.763 0 001.19-6.6273v-.14588a32.916 32.916 0 00-1.1879-6.4689 22.456 22.456 0 00-7.4296-11.404 56.943 56.943 0 00-6.0688-4.2827 67.111 67.111 0 00-11.779-5.677c-.032667-.032667-.065284-.047933-.09795-.047933a15.865 15.865 0 01-1.0149-.22925 13.296 13.296 0 01-4.7704-2.2862 9.784 9.784 0 01-.7315-.6148c-.42533-.396-.77494-.80108-1.0483-1.2171a4.207 4.207 0 01-.73567-2.2445c-.064666-2.3113 1.1883-3.8251 3.7596-4.5411.446-.11867.65455-.37418.62521-.76485a1.136 1.136 0 00-.014588-.11462c-.061-.342-.33587-.51943-.82737-.53143zm117.74 24.829c.06334 0 .12715.0098433.19382.029177a.946.946 0 01.15839.062522 1.441 1.441 0 01.12921.072942c.15466.098666.25852.21178.31052.34178a29.525 29.525 0 001.115 2.7405 24.216 24.216 0 004.6954 6.8294 23.094 23.094 0 01.71483.84404 25.073 25.073 0 013.2157 5.2122 17.306 17.306 0 011.1608 3.4074 21.495 21.495 0 01.52518 4.3557 18.999 18.999 0 01.03751 1.1942 15.272 15.272 0 01-4.2369 10.768 3.343 3.343 0 01-.21883.24383c-.54533.55-1.1278.69865-1.7464.44599a2.242 2.242 0 01-.3793-.20007l-8.6426-5.3727c-.39-.19533-.58562-.53736-.58562-1.0254l-.1959-28.124a1.217 1.217 0 01.02292-.24592c.05933-.28667.23143-.48228.51476-.58562a33.828 33.828 0 002.9302-.9274.62.62 0 01.28134-.06669zm-108.19 2.1549a.935.935 0 01.18548.060438 75.299 75.299 0 011.4005.67315c.91866.454 1.6854.862 2.2987 1.2233a14.611 14.611 0 01.79402.496c4.9807 3.516 7.8043 8.6992 8.4717 15.551a41.572 41.572 0 01.081278.94616c.23666 3.1827.070576 6.0602-.49809 8.6342a18.799 18.799 0 01-2.9781 6.9003 3.487 3.487 0 01-.25217.28968c-.646.658-1.3444.7566-2.0924.29594l-10.545-6.2021c-.39067-.19533-.5877-.53527-.5877-1.0233l-.19382-24.123c0-.684.32609-1.2689.97742-1.7569l2.2945-1.8069c.20467-.15333.41864-.20639.64397-.15839zm38.93.81903c.44416-.010667.93885.25319 1.4838.78985.16143.16007.31553.3272.46058.50226.24924.23731.5011.47166.75651.70232 2.388 2.156 4.4957 3.4834 6.323 3.9847.42333.13.63564.39085.63564.78152l-.44182 22.412v.11671c.00133.72733.011847 1.3144.029177 1.761.0051.13942.01194.27758.02084.41681 0 .10933-.02886.22612-.08753.35012-.0311.06484-.068231.1279-.10837.18756-1.5607 1.6687-2.9312 2.5029-4.1139 2.5029-.24391.000645-.48644-.036915-.719-.11046-.03267-.03267-.06528-.047933-.09795-.047933-3.9467-1.5787-6.6968-5.1114-8.2508-10.597-.52913-1.9198-.90637-3.8789-1.1254-5.8583-.13205-1.0864-.19887-2.1797-.20007-3.274-.011754-4.9142 1.4721-9.7159 4.2535-13.767.34333-.558.73749-.84171 1.1817-.85238zm134.58 0c.84391.015965 1.6448.37627 2.2154.99826 2.1807 2.442 3.938 4.9896 5.2726 7.6422.45887.91203.84019 1.8625 1.14 2.8385.58474 1.938.87401 3.9528.86071 5.9771.00632 1.7256-.13156 3.4474-.41472 5.1497-.52406 3.2972-1.7653 6.4404-3.6367 9.2052l-.87947.9274c-.52067.55333-1.1874.61715-2.0007.19382l-7.5213-4.4911c-.39067-.19533-.58562-.53669-.58562-1.0254l-.02292-2.9677c-.0247-3.5687-.04973-8.2437-.07503-14.026l.00625-.81486c.0287-3.8447.04377-6.1935.04377-7.0462-.004-.02589-.00742-.05101-.01042-.07711-.036-.34733.0968-.58099.40013-.70232.78133-.42333 1.4168-.74942 1.9048-.97742.32826-.15008.66379-.28519 1.0045-.40431.85734-.29733 1.6234-.43081 2.2987-.40014zm132.71 0c.44417-.010667.93918.25319 1.4838.78985a6.979 6.979 0 01.45849.50226 39.192 39.192 0 00.75651.70232c2.388 2.156 4.4971 3.4834 6.3251 3.9847.42266.13.63355.39085.63355.78152l-.43765 22.412a97.235 97.235 0 000 .11671c.00066.72733.00767 1.3144.02501 1.761a15.329 15.329 0 00.02292.41681c0 .10933-.02886.22612-.08753.35012a1.486 1.486 0 01-.10837.18756c-1.5607 1.6687-2.9333 2.5029-4.116 2.5029a2.364 2.364 0 01-.719-.11046c-.032-.032666-.06319-.047933-.09586-.047933-3.9473-1.5787-6.6988-5.1114-8.2528-10.597a37.618 37.618 0 01-1.1233-5.8583 27.373 27.373 0 01-.20007-3.274 24.221 24.221 0 014.2536-13.767c.34366-.558.73749-.84171 1.1816-.85238zm-76.272 24.948c.1595-.031833.32234.009461.48766.12713.05918.042648.11334.089865.16464.14172 1.1839 1.0476 2.2135 2.2589 3.0552 3.5971 1.084 1.708 1.9387 3.6844 2.5634 5.927.5372 1.9816.89516 4.0065 1.0712 6.0521.0103.11631.01918.23376.02918.35012.37801 4.6453.21633 8.2698-.48767 10.872-.20643.80284-.51205 1.577-.90864 2.305-.46333.824-.96919 1.5165-1.5172 2.0799-1.0644 1.1642-2.5698 1.8272-4.1473 1.8256-.30298.00038-.60531-.015574-.90656-.047934-1.4873-.16133-2.7069-.73401-3.6596-1.7193-.58719-.62402-1.058-1.3483-1.3901-2.1382-.62191-1.4398-1.0702-2.9492-1.3338-4.4953-.25683-1.4989-.38212-3.0183-.37512-4.5391.00218-1.943.1521-3.882.45015-5.802.75038-5.254 2.9837-10.186 6.4356-14.217.15366-.18133.30941-.28703.46891-.31886z" fill-rule="evenodd" />
</svg>
