<svg width="25px" height="25px" viewBox="0 0 12 12" xmlns="http://www.w3.org/2000/svg">

<path d="M9.108 1.028c-.082 0-.203.028-.36.084-.153.056-.3.121-.442.196-.139.071-.226.132-.26.18l.091.236c.184.004.32.056.409.157.093.097.14.223.14.376a1.421 1.421 0 0 1-.101.54L7.102 6.91l-.958-1.467c.083-.026.172-.041.252-.074a2.24 2.24 0 0 0 .966-.742c.24-.329.36-.733.36-1.212 0-.483-.214-.888-.64-1.213-.424-.326-1.094-.49-2.01-.49-.495 0-.955.036-1.382.107-.423.068-.81.144-1.157.23l.061.405c.26-.041.53-.073.797-.107v5.969c0 .049-.07.105-.212.168a2.854 2.854 0 0 1-.585.175v.297h2.668V8.66a2.593 2.593 0 0 1-.607-.175c-.13-.067-.196-.123-.196-.168V5.555a2.295 2.295 0 0 0 .595.066c.095 0 .18-.02.27-.025L6.669 8.11l-.952 2.637.164.134c.09-.056.173-.105.252-.146.082-.041.156-.089.22-.145l.666-1.837a.656.656 0 0 0 .529.281c.146 0 .348-.031.606-.095.262-.064.516-.137.764-.22l-.068-.297c-.254.022-.454.015-.6-.022-.143-.041-.268-.144-.377-.31l-.394-.604 1.888-5.208c.068-.183.101-.352.101-.51a.835.835 0 0 0-.1-.415 1.207 1.207 0 0 0-.259-.326ZM4.852 2.224c.64 0 1.104.125 1.393.376.288.247.432.577.432.989 0 .494-.15.867-.45 1.122-.3.25-.722.376-1.269.376a3.55 3.55 0 0 1-.275-.011c-.06-.005-.143-.019-.224-.031V2.25c.127-.006.274-.026.393-.026Z"/></svg>