<svg width="25px" height="25px" viewBox="0 0 12 12" xmlns="http://www.w3.org/2000/svg">
<path d="M9.608 2.179a4.895 4.895 0 0 0-.601.146c-.146.045-.236.12-.27.224L6.598 8.58a.521.521 0 0 1-.247.281 1.72 1.72 0 0 1-.382.174c-.13.045-.23.075-.297.09l-2.5-6.576c-.07-.187-.33-.31-.78-.37V1.88h2.583v.298c-.3.022-.505.062-.617.118-.109.052-.143.133-.102.241L6.2 7.66l1.814-5.11c.037-.108-.006-.187-.13-.235-.123-.053-.336-.098-.64-.135v-.3h2.365Zm-3.656.618c.038-.098.064-.193.079-.287.015-.093.022-.178.022-.252a.52.52 0 0 0-.14-.377c-.09-.1-.227-.153-.41-.157l-.09-.236c.034-.048.12-.108.259-.18.142-.074.29-.14.443-.196a1.18 1.18 0 0 1 .36-.084c.104.093.19.198.258.314a.837.837 0 0 1 .1.427c0 .075-.01.16-.033.253-.019.093-.041.18-.067.258l-3.016 8.31a.894.894 0 0 1-.213.147c-.082.04-.168.09-.258.146l-.163-.135Z"/></svg>