<svg width="376.5" height="76.402" viewBox="0 0 376.5 76.402" xmlns="http://www.w3.org/2000/svg"><g id="svgGroup" stroke-linecap="round" fill-rule="evenodd" font-size="9pt" stroke="#000" stroke-width="0.25mm" fill="#000" style="stroke:#000;stroke-width:0.25mm;fill:#000"><path d="M 60.8 58.4 L 66 35.6 L 58.9 34.3 L 59.5 30.6 L 80.6 24.9 L 82.3 26.5 L 75.5 55.4 Q 75.1 57.3 74.7 59 Q 74.313 60.644 74.301 62.007 A 9.9 9.9 0 0 0 74.3 62.1 A 7.262 7.262 0 0 0 74.381 63.225 Q 74.591 64.564 75.35 65.25 Q 76.4 66.2 77.9 66.2 A 8.246 8.246 0 0 0 80.605 65.693 Q 83.806 64.575 88 61 A 3.135 3.135 0 0 1 88.015 60.683 A 2.454 2.454 0 0 1 88.05 60.45 Q 88.1 60.2 88.2 59.9 L 91.6 44 Q 92.4 40.3 93.05 36.6 Q 93.7 32.9 94.4 29.1 L 107.8 24.9 L 109.7 26.5 L 102.1 61 Q 101.579 62.862 101.446 64.335 A 10.741 10.741 0 0 0 101.4 65.3 Q 101.4 67.053 102.706 67.27 A 2.411 2.411 0 0 0 103.1 67.3 Q 104.115 67.3 105.235 66.486 A 8.102 8.102 0 0 0 106.1 65.75 Q 107.7 64.2 110.2 61.1 L 113.3 63.1 A 43.89 43.89 0 0 1 108.684 69.355 A 48.094 48.094 0 0 1 108.6 69.45 Q 105.9 72.5 102.5 74.45 A 14.846 14.846 0 0 1 95.551 76.388 A 17.701 17.701 0 0 1 94.9 76.4 A 7.426 7.426 0 0 1 91.704 75.723 A 7.365 7.365 0 0 1 89.4 74 Q 87.414 71.834 87.221 68.12 A 15.763 15.763 0 0 1 87.2 67.3 L 87.2 66.7 L 87.2 66.2 Q 82.4 71.1 77.5 73.75 A 24.224 24.224 0 0 1 73.363 75.538 Q 70.667 76.4 68.1 76.4 Q 64.6 76.4 62 74.25 A 6.946 6.946 0 0 1 59.617 70.208 A 10.614 10.614 0 0 1 59.4 68 A 24.173 24.173 0 0 1 59.594 65.005 A 29.195 29.195 0 0 1 59.85 63.35 Q 60.3 60.9 60.8 58.4 Z M 55 4.2 L 42.9 60.9 Q 42.333 63.248 42.225 64.678 A 8.309 8.309 0 0 0 42.2 65.3 Q 42.2 67.053 43.506 67.27 A 2.411 2.411 0 0 0 43.9 67.3 A 3.353 3.353 0 0 0 45.426 66.865 Q 47.746 65.657 51.2 61.1 L 54.2 63.1 Q 52.3 66.6 49.4 69.65 A 25.763 25.763 0 0 1 44.533 73.684 A 23.481 23.481 0 0 1 43.05 74.55 Q 39.6 76.4 35.8 76.4 A 8.66 8.66 0 0 1 33.419 76.09 A 6.37 6.37 0 0 1 30.2 74 A 8.582 8.582 0 0 1 28.265 69.323 A 11.295 11.295 0 0 1 28.2 68.1 L 28.2 67.05 A 5.459 5.459 0 0 1 28.266 66.19 A 4.903 4.903 0 0 1 28.3 66 A 38.35 38.35 0 0 1 21.994 71.84 A 34.241 34.241 0 0 1 19.5 73.5 Q 14.7 76.4 10.4 76.4 Q 7.6 76.4 5.25 75.05 Q 2.995 73.755 1.568 70.847 A 14.732 14.732 0 0 1 1.45 70.6 A 13.248 13.248 0 0 1 0.567 67.966 Q 0 65.513 0 62.2 A 29.527 29.527 0 0 1 1.643 52.594 A 33.715 33.715 0 0 1 2 51.6 Q 4 46.3 7.5 41.5 Q 11 36.7 15.35 33 A 40.993 40.993 0 0 1 21.492 28.648 A 35.516 35.516 0 0 1 24.4 27.15 A 24.492 24.492 0 0 1 29.337 25.473 A 19.847 19.847 0 0 1 33.6 25 A 14.127 14.127 0 0 1 35.53 25.127 A 11.312 11.312 0 0 1 36.9 25.4 L 39.3 13.6 L 31.8 12.4 L 32.4 8.6 L 53.4 3 L 55 4.2 Z M 120.4 48 L 127.4 13.5 L 120.5 12.4 L 121.1 8.6 L 142.1 3 L 143.6 4.2 L 136.7 35.9 A 38.699 38.699 0 0 1 141.691 30.804 A 31.881 31.881 0 0 1 145.65 27.95 A 23.411 23.411 0 0 1 149.224 26.153 Q 151.419 25.288 153.514 25.072 A 13.506 13.506 0 0 1 154.9 25 A 11.179 11.179 0 0 1 158.414 25.528 A 9.17 9.17 0 0 1 162.45 28.2 Q 165.3 31.4 165.3 38.9 Q 165.3 46.1 162.2 52.85 Q 159.1 59.6 153.85 64.9 A 42.67 42.67 0 0 1 142.745 73.055 A 40.6 40.6 0 0 1 142.25 73.3 Q 135.9 76.4 129.4 76.4 Q 124.31 76.4 121.157 73.817 A 10.328 10.328 0 0 1 120.9 73.6 Q 118.101 71.151 117.75 66.406 A 19.085 19.085 0 0 1 117.7 65 A 37.143 37.143 0 0 1 117.981 60.552 A 48.578 48.578 0 0 1 118.6 56.75 Q 119.5 52.3 120.4 48 Z M 317.9 35.5 L 314.8 30.3 Q 310.8 32.9 308.1 36.85 Q 305.4 40.8 304.1 45.4 A 33.614 33.614 0 0 0 302.812 53.656 A 31.261 31.261 0 0 0 302.8 54.5 A 19.689 19.689 0 0 0 303.042 57.702 Q 303.322 59.393 303.923 60.729 A 8.215 8.215 0 0 0 305.7 63.3 A 9.768 9.768 0 0 0 310.784 65.866 A 13.978 13.978 0 0 0 313.4 66.1 A 11.68 11.68 0 0 0 317.219 65.431 A 16.225 16.225 0 0 0 320 64.15 A 21.561 21.561 0 0 0 324.578 60.598 A 26.173 26.173 0 0 0 326.2 58.8 L 328.9 60.8 Q 326.8 64.8 323.35 68.35 Q 319.9 71.9 315.45 74.15 Q 311 76.4 305.8 76.4 A 18.48 18.48 0 0 1 299.676 75.424 A 15.834 15.834 0 0 1 293.35 71.3 Q 288.5 66.2 288.5 57.4 Q 288.5 51 290.7 45.15 Q 292.9 39.3 296.9 34.75 Q 300.9 30.2 306.25 27.6 Q 311.6 25 317.8 25 A 19.966 19.966 0 0 1 321.889 25.397 Q 324.754 25.996 326.95 27.5 Q 330.6 30 331.8 34.4 A 6.688 6.688 0 0 1 331.14 37.143 A 6.489 6.489 0 0 1 329.7 39.05 A 6.897 6.897 0 0 1 325.07 40.896 A 8.898 8.898 0 0 1 324.8 40.9 A 6.18 6.18 0 0 1 322.785 40.585 A 5.237 5.237 0 0 1 320.7 39.25 Q 319.1 37.6 317.9 35.5 Z M 362.6 35.5 L 359.5 30.3 Q 355.5 32.9 352.8 36.85 Q 350.1 40.8 348.8 45.4 A 33.614 33.614 0 0 0 347.512 53.656 A 31.261 31.261 0 0 0 347.5 54.5 A 19.689 19.689 0 0 0 347.742 57.702 Q 348.022 59.393 348.623 60.729 A 8.215 8.215 0 0 0 350.4 63.3 A 9.768 9.768 0 0 0 355.484 65.866 A 13.978 13.978 0 0 0 358.1 66.1 A 11.68 11.68 0 0 0 361.919 65.431 A 16.225 16.225 0 0 0 364.7 64.15 A 21.561 21.561 0 0 0 369.278 60.598 A 26.173 26.173 0 0 0 370.9 58.8 L 373.6 60.8 Q 371.5 64.8 368.05 68.35 Q 364.6 71.9 360.15 74.15 Q 355.7 76.4 350.5 76.4 A 18.48 18.48 0 0 1 344.376 75.424 A 15.834 15.834 0 0 1 338.05 71.3 Q 333.2 66.2 333.2 57.4 Q 333.2 51 335.4 45.15 Q 337.6 39.3 341.6 34.75 Q 345.6 30.2 350.95 27.6 Q 356.3 25 362.5 25 A 19.966 19.966 0 0 1 366.589 25.397 Q 369.454 25.996 371.65 27.5 Q 375.3 30 376.5 34.4 A 6.688 6.688 0 0 1 375.84 37.143 A 6.489 6.489 0 0 1 374.4 39.05 A 6.897 6.897 0 0 1 369.77 40.896 A 8.898 8.898 0 0 1 369.5 40.9 A 6.18 6.18 0 0 1 367.485 40.585 A 5.237 5.237 0 0 1 365.4 39.25 Q 363.8 37.6 362.6 35.5 Z M 243.1 28.2 L 250.4 24.8 L 252.1 26 L 244.1 61 Q 243.7 62.3 243.5 63.4 Q 243.347 64.243 243.311 64.909 A 7.288 7.288 0 0 0 243.3 65.3 Q 243.3 67.3 245.1 67.3 Q 246.5 67.3 248.25 65.65 A 25.114 25.114 0 0 0 249.518 64.356 Q 250.154 63.663 250.85 62.824 A 61.443 61.443 0 0 0 252.3 61 L 255.4 63.1 A 35.592 35.592 0 0 1 252.798 66.951 A 44.347 44.347 0 0 1 250.85 69.3 Q 248.1 72.4 244.75 74.4 Q 241.4 76.4 237.6 76.4 Q 233.9 76.4 231.6 74.15 A 6.993 6.993 0 0 1 229.893 71.366 Q 229.513 70.258 229.377 68.901 A 16.001 16.001 0 0 1 229.3 67.3 L 229.3 66.7 L 229.3 66.2 A 41.366 41.366 0 0 1 223.792 71.396 A 35.433 35.433 0 0 1 220.7 73.55 A 21.965 21.965 0 0 1 217.306 75.287 Q 215.177 76.139 213.139 76.339 A 12.693 12.693 0 0 1 211.9 76.4 Q 209.1 76.4 206.7 75.05 A 8.607 8.607 0 0 1 204.167 72.848 Q 203.411 71.891 202.802 70.655 A 16.364 16.364 0 0 1 202.8 70.65 Q 201.3 67.6 201.3 62.5 A 29.7 29.7 0 0 1 203.162 52.252 A 33.696 33.696 0 0 1 203.35 51.75 Q 205.4 46.4 208.95 41.6 Q 212.5 36.8 216.9 33.05 Q 221.3 29.3 226 27.15 Q 230.7 25 235.1 25 A 10.982 10.982 0 0 1 238.895 25.651 A 10.46 10.46 0 0 1 239.4 25.85 Q 241.4 26.7 243.1 28.2 Z M 173 59.9 L 178.1 35.6 L 171.1 34.3 L 171.8 30.6 L 192.9 24.9 L 194.5 26.3 L 187 61 Q 186.479 62.862 186.346 64.335 A 10.741 10.741 0 0 0 186.3 65.3 Q 186.3 67.053 187.606 67.27 A 2.411 2.411 0 0 0 188 67.3 A 2.864 2.864 0 0 0 189.29 66.925 Q 191.101 65.985 193.901 62.689 A 58.135 58.135 0 0 0 195.2 61.1 L 198.2 63.1 Q 196.2 66.5 193.45 69.55 Q 190.7 72.6 187.15 74.5 Q 183.6 76.4 179.3 76.4 A 11.695 11.695 0 0 1 176.968 76.181 Q 175.557 75.894 174.456 75.23 A 6.697 6.697 0 0 1 173.7 74.7 A 5.515 5.515 0 0 1 171.723 71.262 A 8.282 8.282 0 0 1 171.6 69.8 A 20.174 20.174 0 0 1 171.67 68.181 Q 171.74 67.32 171.878 66.343 A 42.797 42.797 0 0 1 172.1 64.95 Q 172.53 62.501 172.886 60.532 A 594.449 594.449 0 0 1 173 59.9 Z M 29.2 59.7 L 34.6 33.8 Q 33.4 33.1 32.1 32.75 A 9.693 9.693 0 0 0 30.724 32.491 Q 30.058 32.412 29.314 32.402 A 16.151 16.151 0 0 0 29.1 32.4 A 8.087 8.087 0 0 0 26.191 32.957 A 9.931 9.931 0 0 0 25.3 33.35 A 13.447 13.447 0 0 0 23.356 34.528 A 10.826 10.826 0 0 0 22.1 35.6 A 15.367 15.367 0 0 0 20.097 37.979 Q 18.993 39.575 18.05 41.65 Q 16.3 45.5 15.35 49.65 Q 14.432 53.663 14.401 56.974 A 24.609 24.609 0 0 0 14.4 57.2 A 23.606 23.606 0 0 0 14.509 59.56 Q 14.812 62.558 15.95 64.1 A 5.416 5.416 0 0 0 17.362 65.458 A 4.756 4.756 0 0 0 20 66.2 Q 22.072 66.2 24.242 64.837 A 12 12 0 0 0 24.3 64.8 A 22.058 22.058 0 0 0 26.263 63.384 Q 27.228 62.609 28.229 61.656 A 38.625 38.625 0 0 0 28.9 61 A 3.525 3.525 0 0 0 29.014 60.564 A 4.18 4.18 0 0 0 29.05 60.35 A 3.926 3.926 0 0 1 29.14 59.903 A 3.326 3.326 0 0 1 29.2 59.7 Z M 230.3 59.5 L 235.9 33.8 A 10.757 10.757 0 0 0 232.12 32.499 A 10.196 10.196 0 0 0 230.7 32.4 A 7.497 7.497 0 0 0 227.75 33.045 Q 225.789 33.881 223.7 35.8 A 14.882 14.882 0 0 0 221.718 38.042 Q 220.869 39.209 220.103 40.654 A 27.899 27.899 0 0 0 219.6 41.65 Q 217.8 45.4 216.8 49.55 Q 215.8 53.7 215.8 57.3 Q 215.8 62 217.3 64.1 A 5.226 5.226 0 0 0 218.684 65.46 Q 219.816 66.2 221.3 66.2 A 6.654 6.654 0 0 0 223.532 65.797 Q 224.358 65.504 225.207 64.999 A 11.784 11.784 0 0 0 225.45 64.85 A 23.07 23.07 0 0 0 227.379 63.487 Q 228.332 62.742 229.33 61.828 A 40.842 40.842 0 0 0 230 61.2 A 15.171 15.171 0 0 0 230.083 60.754 Q 230.118 60.543 230.143 60.354 A 8.967 8.967 0 0 0 230.15 60.3 Q 230.2 59.9 230.3 59.5 Z M 136.1 40.5 L 133.5 52.3 A 2471.269 2471.269 0 0 1 133.069 54.357 Q 132.45 57.3 132 59.4 A 34.181 34.181 0 0 0 131.659 61.219 Q 131.517 62.113 131.453 62.891 A 14.791 14.791 0 0 0 131.4 64.1 Q 131.4 66.264 132.462 67.631 A 4.526 4.526 0 0 0 132.6 67.8 A 3.812 3.812 0 0 0 134.508 68.987 Q 135.121 69.16 135.855 69.193 A 7.791 7.791 0 0 0 136.2 69.2 A 7.442 7.442 0 0 0 139.088 68.597 A 9.999 9.999 0 0 0 140.6 67.8 Q 142.8 66.4 145.1 63.1 A 20.365 20.365 0 0 0 146.452 60.955 Q 147.291 59.435 148.05 57.55 A 46.067 46.067 0 0 0 150.114 51.034 A 50.9 50.9 0 0 0 150.25 50.45 A 35.389 35.389 0 0 0 150.937 46.374 A 28.124 28.124 0 0 0 151.1 43.4 A 19.255 19.255 0 0 0 150.989 41.26 Q 150.733 38.971 149.88 37.576 A 5.271 5.271 0 0 0 149.7 37.3 Q 148.381 35.417 146.087 35.307 A 6.019 6.019 0 0 0 145.8 35.3 A 8.319 8.319 0 0 0 142.96 35.82 A 11.361 11.361 0 0 0 141.1 36.7 A 24.035 24.035 0 0 0 138.806 38.233 Q 137.668 39.086 136.487 40.147 A 40.71 40.71 0 0 0 136.1 40.5 Z M 266.546 75.866 A 9.009 9.009 0 0 0 269.4 76.3 Q 273.3 76.3 276.2 73.6 A 9.14 9.14 0 0 0 278.183 70.989 A 9.028 9.028 0 0 0 279.1 66.9 Q 279.1 63.6 276.85 61.25 Q 274.6 58.9 271 58.9 Q 267.1 58.9 264.15 61.65 A 9.217 9.217 0 0 0 262.033 64.525 A 9.342 9.342 0 0 0 261.2 68.5 A 7.402 7.402 0 0 0 261.812 71.498 A 8.207 8.207 0 0 0 263.5 73.95 A 7.534 7.534 0 0 0 266.546 75.866 Z M 184.685 13.73 A 7.618 7.618 0 0 0 189.7 15.6 A 8.397 8.397 0 0 0 192.806 15.026 A 9.054 9.054 0 0 0 195.7 13.15 Q 198.3 10.7 198.3 7 Q 198.3 3.9 196.25 1.95 A 6.809 6.809 0 0 0 193.474 0.341 A 8.585 8.585 0 0 0 191 0 Q 187.6 0 185 2.35 A 7.594 7.594 0 0 0 182.863 5.552 A 9.011 9.011 0 0 0 182.4 8.5 A 8.835 8.835 0 0 0 182.45 9.449 A 6.219 6.219 0 0 0 184.65 13.7 A 9.567 9.567 0 0 0 184.685 13.73 Z" vector-effect="non-scaling-stroke"/></g></svg>