<?xml version="1.0" encoding="UTF-8" standalone="no"?>
<svg
   width="347.81024"
   height="145.70232"
   viewBox="0 0 347.81024 145.70232"
   version="1.1"
   id="svg1"
   sodipodi:docname="full.svg"
   inkscape:version="1.3.2 (091e20e, 2023-11-25)"
   xmlns:inkscape="http://www.inkscape.org/namespaces/inkscape"
   xmlns:sodipodi="http://sodipodi.sourceforge.net/DTD/sodipodi-0.dtd"
   xmlns="http://www.w3.org/2000/svg"
   xmlns:svg="http://www.w3.org/2000/svg">
  <defs
     id="defs1" />
  <sodipodi:namedview
     id="namedview1"
     pagecolor="#ffffff"
     bordercolor="#000000"
     borderopacity="0.25"
     inkscape:showpageshadow="2"
     inkscape:pageopacity="0.0"
     inkscape:pagecheckerboard="0"
     inkscape:deskcolor="#d1d1d1"
     inkscape:zoom="1.6422876"
     inkscape:cx="209.15947"
     inkscape:cy="71.850998"
     inkscape:window-width="1472"
     inkscape:window-height="891"
     inkscape:window-x="0"
     inkscape:window-y="37"
     inkscape:window-maximized="1"
     inkscape:current-layer="svg1" />
  <g
     id="g8"
     transform="translate(0,1.2019535e-4)">
    <g
       id="g7"
       transform="translate(-54)">
      <path
         style="font-size:12px;fill:#000000;fill-rule:evenodd;stroke:none;stroke-width:4;stroke-linecap:round"
         d="m 309.612,0.392 c -1.23175,-0.27455843 -2.49111,-0.40576316 -3.753,-0.391 -1.34721,-0.00288799 -2.68775,0.18909959 -3.98,0.57 -1.71486,0.5196409 -3.32575,1.3348983 -4.76,2.409 -2.702,1.9853333 -4.15067,4.4753333 -4.346,7.47 -0.0453,0.551166 -0.0677,1.103977 -0.067,1.657 0,2.666 0.51067,5.531667 1.532,8.597 0.0281,0.08385 0.0568,0.167524 0.086,0.251 0.58467,1.681333 1.28867,2.963667 2.112,3.847 0.79527,0.925741 1.95259,1.461547 3.173,1.469 0.0427,9.28e-4 0.0853,0.0013 0.128,10e-4 1.78467,0 4.03833,-1.021 6.761,-3.063 0.90658,-0.685061 1.78497,-1.406656 2.633,-2.163 0.89759,-0.789814 1.74742,-1.6323 2.545,-2.523 2.4,-2.700667 3.749,-5.391667 4.047,-8.073 0.0164,-0.177134 0.0304,-0.354484 0.042,-0.532 0.34933,-5.298 -1.70167,-8.4733333 -6.153,-9.526 z"
         id="path7" />
      <path
         style="font-size:12px;fill:#000000;fill-rule:evenodd;stroke:none;stroke-width:4;stroke-linecap:round"
         d="m 291.699,115.919 -0.683,-53.516 c 0,-0.906667 -0.105,-1.691 -0.315,-2.353 -0.0726,-0.231395 -0.16321,-0.456751 -0.271,-0.674 -0.19235,-0.315066 -0.39821,-0.621685 -0.617,-0.919 -1.3,-1.751333 -2.429,-2.063333 -3.387,-0.936 l -3.906,4.004 c -1.004,1.129333 -1.96267,1.291 -2.876,0.485 -0.035,-0.03089 -0.0694,-0.06256 -0.103,-0.095 -0.19361,-0.18206 -0.34986,-0.40013 -0.46,-0.642 -0.36933,-0.835333 -0.0697,-1.890667 0.899,-3.166 2.25912,-2.815697 4.39545,-5.72775 6.403,-8.728 0.44455,-0.666937 0.88191,-1.338643 1.312,-2.015 2.27867,-3.580667 4.62267,-7.128667 7.032,-10.644 0.1453,-0.175508 0.30852,-0.335374 0.487,-0.477 0.92467,-0.720667 1.96667,-0.529 3.126,0.575 1.3097,1.593669 2.66116,3.152543 4.053,4.675 1.2755,1.396021 2.59449,2.751687 3.955,4.065 1.02693,0.978671 2.10725,1.899747 3.236,2.759 2.178,1.673333 4.81,3.406667 7.896,5.2 1.36733,0.520667 1.96967,1.139 1.807,1.855 -0.0402,0.190225 -0.11109,0.372622 -0.21,0.54 -0.194,0.316667 -0.48733,0.516 -0.88,0.598 -0.0753,0.01573 -0.15141,0.02709 -0.228,0.034 -1.69267,0.651333 -3.19,1.774333 -4.492,3.369 -0.4802,0.606956 -0.856,1.289621 -1.112,2.02 -0.47733,1.296667 -0.75167,2.922667 -0.823,4.878 -0.0128,0.353522 -0.0191,0.707247 -0.019,1.061 v 41.309 c 0,6.64067 1.237,10.70967 3.711,12.207 2.578,1.52267 4.734,1.09533 6.468,-1.282 0.20262,-0.27922 0.39087,-0.5686 0.564,-0.867 0.65067,-1.23667 1.448,-1.51333 2.392,-0.83 0.89933,0.65133 0.927,1.70167 0.083,3.151 -0.0429,0.0733 -0.0869,0.14602 -0.132,0.218 -1.95267,3.06 -3.77533,6.13633 -5.468,9.229 -1.69267,3.09267 -3.418,6.16867 -5.176,9.228 -0.20189,0.30313 -0.43372,0.58521 -0.692,0.842 -1.102,1.07533 -2.40133,1.18533 -3.898,0.33 -5.088,-2.43067 -9.084,-5.328 -11.988,-8.692 -0.43507,-0.50408 -0.85006,-1.02516 -1.244,-1.562 -1.89373,-2.61895 -3.1967,-5.61759 -3.819,-8.789 -0.42836,-2.12128 -0.63779,-4.28094 -0.625,-6.445 z"
         id="path6" />
    </g>
    <path
       style="font-size:12px;fill:#000000;fill-rule:evenodd;stroke:none;stroke-width:4;stroke-linecap:round"
       d="M 333.711,70.704 V 70.9 l 0.293,44.628 c -0.008,0.77534 0.0793,1.54872 0.259,2.303 0.36545,1.67499 1.47419,3.0922 3.012,3.85 0.47805,0.24779 0.99907,0.40189 1.535,0.454 1.64533,0.15067 3.385,-0.73033 5.219,-2.643 0.11028,-0.11515 0.21896,-0.23183 0.326,-0.35 0.90067,-1.02067 1.75967,-1.33567 2.577,-0.945 0.0712,0.0343 0.14029,0.0727 0.207,0.115 0.83533,0.526 0.891,1.44933 0.167,2.77 -0.0382,0.07 -0.0775,0.1393 -0.118,0.208 -2.344,3.516 -4.60667,6.96667 -6.788,10.352 -2.15699,3.33995 -4.0037,6.87035 -5.517,10.547 l -0.098,0.097 c -0.10648,0.17807 -0.22756,0.34698 -0.362,0.505 -0.78467,0.906 -1.699,0.81633 -2.743,-0.269 -0.0736,-0.0768 -0.14532,-0.15555 -0.215,-0.236 -0.67636,-0.75657 -1.55874,-1.29941 -2.539,-1.562 -3.02871,-0.60368 -5.84611,-1.99118 -8.171,-4.024 -2.82933,-2.534 -4.79333,-6.108 -5.892,-10.722 -0.13,-0.39067 -0.45533,-0.78133 -0.976,-1.172 -0.1109,-0.0126 -0.22239,-0.0193 -0.334,-0.02 -0.452,-0.001 -0.86167,0.103 -1.229,0.313 l -5.224,3.991 -5.713,4.358 c -3.97133,3.02733 -7.64967,5.81067 -11.035,8.35 -1.026,0.79733 -1.86467,1.196 -2.516,1.196 -0.0899,4.5e-4 -0.17962,-0.008 -0.268,-0.024 -0.19697,-0.0318 -0.37986,-0.12208 -0.525,-0.259 -0.292,-0.28533 -0.39367,-0.78367 -0.305,-1.495 v -0.004 c -0.0215,-0.39142 -0.12763,-0.77352 -0.311,-1.12 -0.70667,-1.49067 -2.621,-3.72133 -5.743,-6.692 -9.38196,-8.73462 -14.87734,-20.86118 -15.26,-33.674 -0.062,-1.151333 -0.093,-2.32 -0.093,-3.506 1.1e-4,-0.562731 0.007,-1.12544 0.021,-1.688 0.28535,-11.239303 5.04648,-21.899457 13.226,-29.613 1.83035,-1.8061 3.77324,-3.494478 5.817,-5.055 3.71224,-2.810089 7.25042,-5.843003 10.595,-9.082 2.28627,-2.235823 4.33701,-4.700404 6.12,-7.355 0.93503,-1.383175 1.8092,-2.806531 2.62,-4.266 0.98,-1.898 2.30533,-2.068333 3.976,-0.511 0.10975,0.102499 0.21679,0.207869 0.321,0.316 2.8641,3.27432 5.96513,6.333571 9.278,9.153 6.80333,5.726667 13.60667,9.283667 20.41,10.671 0.29931,0.05511 0.59595,0.12385 0.889,0.206 2.24,0.636667 2.30133,1.780333 0.184,3.431 -0.0322,0.02483 -0.0645,0.0495 -0.097,0.074 -1.03271,0.732549 -1.96003,1.603337 -2.756,2.588 -1.29395,1.602616 -2.06964,3.561014 -2.224,5.615 z m -19.922,43.262 0.879,-44.824 c 0.005,-0.240704 -0.0443,-0.479429 -0.143,-0.699 -0.124,-0.264 -0.32767,-0.478333 -0.611,-0.643 -0.163,-0.09313 -0.33613,-0.167279 -0.516,-0.221 -3.65467,-1.002 -7.87,-3.659 -12.646,-7.971 -0.51081,-0.461332 -1.01552,-0.929373 -1.514,-1.404 -0.29007,-0.350458 -0.59711,-0.686526 -0.92,-1.007 -2.17933,-2.147333 -3.956,-2.104667 -5.33,0.128 -5.56281,8.10262 -8.52944,17.705634 -8.506,27.534 0.003,2.18872 0.13656,4.375312 0.401,6.548 0.43766,3.958989 1.18902,7.876971 2.247,11.717 3.108,10.97133 8.609,18.036 16.503,21.194 0.0647,0 0.12967,0.0323 0.195,0.097 0.46512,0.14706 0.95019,0.22127 1.438,0.22 2.012,0 4.298,-1.20767 6.858,-3.623 0.47156,-0.44632 0.92911,-0.90721 1.372,-1.382 0.18267,-0.274 0.30133,-0.53167 0.356,-0.773 0.0228,-0.0987 0.0346,-0.19968 0.035,-0.301 -0.0653,-0.97667 -0.098,-2.50667 -0.098,-4.59 z"
       id="path5" />
    <path
       style="font-size:12px;fill:#000000;fill-rule:evenodd;stroke:none;stroke-width:4;stroke-linecap:round"
       d="m 82.52,80.86 v 0.293 c -0.503785,4.465574 -1.297798,8.893607 -2.377,13.256 -1.14,4.53 -2.572333,8.67 -4.297,12.42 -0.564134,1.22843 -1.172192,2.43621 -1.823,3.621 -1.743009,3.20685 -3.760197,6.25689 -6.029,9.116 -2.818,3.514 -5.886333,6.43233 -9.205,8.755 l -0.098,0.196 c -1.78336,1.5182 -3.68956,2.88589 -5.699,4.089 -1.291293,0.7771 -2.615525,1.49811 -3.969,2.161 -1.885496,0.92247 -3.738599,1.90972 -5.556,2.96 -1.467934,0.84889 -2.904548,1.75081 -4.307,2.704 -1.622667,1.10133 -2.729667,1.222 -3.321,0.362 -0.07676,-0.11378 -0.141763,-0.23507 -0.194,-0.362 -3.646,-8.65867 -13.704667,-15.26667 -30.176,-19.824 -0.9766667,-0.19533 -1.4976667,-0.68367 -1.563,-1.465 -0.064667,-0.78133 0.2933333,-1.33467 1.074,-1.66 3.1853333,-1.214 5.134,-4.09633 5.846,-8.647 0.213978,-1.43727 0.316617,-2.88892 0.307,-4.342 L 10.938,63.868 c 0,-2.278667 1.041667,-3.352667 3.125,-3.222 0.895615,0.116543 1.797834,0.174999 2.701,0.175 5.61,0 11.22,-2.272 16.83,-6.816 0.200072,-0.136793 0.353036,-0.332015 0.438,-0.559 0.05667,-0.141333 0.097,-0.302 0.121,-0.482 0.01835,-0.140583 0.02736,-0.282226 0.027,-0.424 -0.114506,-0.47024 -0.422047,-0.87037 -0.847,-1.102 -0.0426,-0.02468 -0.08595,-0.04802 -0.13,-0.07 C 30.734776,50.328785 28.260737,49.303435 25.781,48.292 23.307,47.282667 20.898333,46.192333 18.555,45.021 16.324429,44.028696 14.190919,42.831213 12.182,41.444 9.244,39.39 6.8923333,37.034 5.127,34.376 3.8749414,32.511504 2.8015217,30.533077 1.921,28.467 0.95508556,26.207974 0.3085401,23.825415 0,21.388 V 20.9 C 0.34297804,18.016515 1.0603548,15.190037 2.134,12.492 5.0993333,5.2986667 10.638,1.1676667 18.75,0.099 c 1.024667,-0.158 1.769,-0.101 2.233,0.171 0.297254,0.16960411 0.500053,0.46642845 0.55,0.805 0.01394,0.076436 0.02396,0.1535375 0.03,0.231 0.05667,0.7686667 -0.346667,1.274 -1.21,1.516 -0.01364,0.00376 -0.02731,0.00742 -0.041,0.011 -1.147901,0.3060801 -2.253357,0.7535026 -3.291,1.332 -2.917333,1.6713333 -4.326667,4.2546667 -4.228,7.75 0.05467,2.458 1.243,4.766667 3.565,6.926 0.467712,0.432929 0.956294,0.842751 1.464,1.228 2.841406,2.147426 6.085242,3.702182 9.539,4.572 0.6728,0.174907 1.351166,0.327656 2.034,0.458 0.06467,0 0.129667,0.03233 0.195,0.097 8.202795,3.008628 16.092225,6.811001 23.556,11.353 4.227866,2.589116 8.282158,5.451539 12.137,8.569 10.124,8.203333 15.869667,20.117333 17.237,35.742 z m -44.825,-26.562 -4.59,3.613 c -0.399581,0.294202 -0.759551,0.63871 -1.071,1.025 -0.573959,0.702936 -0.885749,1.583512 -0.882,2.491 l 0.391,48.242 c -0.0031,0.27418 0.0336,0.54737 0.109,0.811 0.158823,0.54735 0.546351,0.9994 1.063,1.24 l 21.094,12.402 c 0.23453,0.14632 0.482691,0.26956 0.741,0.368 1.217333,0.45533 2.364,0.135 3.44,-0.961 0.179188,-0.18355 0.348111,-0.37684 0.506,-0.579 2.893004,-4.15178 4.918118,-8.84485 5.954,-13.798 1.137333,-5.14867 1.469333,-10.905667 0.996,-17.271 -0.04714,-0.630599 -0.101481,-1.26064 -0.163,-1.89 -0.420808,-4.806489 -1.539554,-9.526043 -3.321,-14.01 -2.778119,-6.903279 -7.512789,-12.844383 -13.622,-17.093 -0.518232,-0.34854 -1.047504,-0.680377 -1.587,-0.995 -1.806667,-1.062 -4.272667,-2.325333 -7.398,-3.79 -0.118429,-0.05337 -0.242096,-0.09426 -0.369,-0.122 -0.354,-0.076 -0.695333,-0.027 -1.024,0.147 -0.09334,0.04954 -0.182619,0.106386 -0.267,0.17 z"
       id="path4" />
    <path
       style="font-size:12px;fill:#000000;fill-rule:evenodd;stroke:none;stroke-width:4;stroke-linecap:round"
       d="m 184.363,31.591 0.293,25.293 c -0.001,0.173816 0.0121,0.347429 0.04,0.519 0.0307,0.18 0.079,0.338667 0.145,0.476 0.10235,0.224799 0.27839,0.407904 0.499,0.519 0.19018,0.09408 0.39984,0.142038 0.612,0.14 0.25733,0 0.537,-0.06367 0.839,-0.191 0.0707,-0.02973 0.14039,-0.06175 0.209,-0.096 3.63455,-1.93889 7.20573,-3.994288 10.708,-6.163 0.51738,-0.319778 1.03339,-0.641781 1.548,-0.966 4.134,-2.604 7.95867,-5.566333 11.474,-8.887 0.20196,-0.214404 0.41281,-0.420251 0.632,-0.617 1.96533,-1.752 3.15467,-1.123 3.568,1.887 0.17867,2.172079 1.05453,4.228253 2.497,5.862 0.1707,0.199677 0.34745,0.3941 0.53,0.583 1.82267,1.888 3.45033,3.743667 4.883,5.567 7.48667,9.700667 10.96967,20.084667 10.449,31.152 -0.2132,4.29843 -0.98915,8.550345 -2.308,12.647 -1.77143,5.48408 -4.79248,10.48174 -8.825,14.599 -2.48445,2.5907 -5.12326,5.02881 -7.902,7.301 -0.47115,0.38635 -0.94584,0.76836 -1.424,1.146 -1.94846,1.53235 -3.80344,3.17996 -5.555,4.934 -1.11615,1.12077 -2.17899,2.2934 -3.185,3.514 l -0.098,-0.196 c -1.3823,1.79085 -2.71024,3.62302 -3.982,5.494 -1.232,1.81933 -2.317,3.56033 -3.255,5.223 -0.54812,0.96852 -1.06571,1.954 -1.552,2.955 -0.82867,1.71667 -1.87267,1.87267 -3.132,0.468 -0.13398,-0.15073 -0.26175,-0.30686 -0.383,-0.468 -3.75351,-4.55693 -8.24811,-8.44876 -13.295,-11.512 -4.088,-2.54 -8.70767,-4.775 -13.859,-6.705 -1.83532,-0.68582 -3.68973,-1.31941 -5.561,-1.9 -0.25048,-0.0784 -0.4968,-0.16952 -0.738,-0.273 -0.878,-0.382 -1.317,-0.831 -1.317,-1.347 -8e-5,-0.0297 0.001,-0.0594 0.004,-0.089 0.0553,-0.58067 0.439,-1.00867 1.151,-1.284 0.13452,-0.0514 0.27172,-0.0954 0.411,-0.132 2.19927,-0.76699 3.95346,-2.45689 4.802,-4.626 0.93133,-2.128 1.38167,-4.91533 1.351,-8.362 l -0.196,-59.18 c -0.0135,-2.853591 -0.14556,-5.705388 -0.396,-8.548 -0.252,-2.772 -0.62367,-5.332333 -1.115,-7.681 -0.37523,-1.82965 -0.8652,-3.633881 -1.467,-5.402 -0.90347,-2.649025 -1.9925,-5.231087 -3.259,-7.727 -1.15241,-2.270868 -2.49628,-4.439382 -4.017,-6.482 -0.10155,-0.167754 -0.19305,-0.341393 -0.274,-0.52 -0.424,-0.946667 -0.322,-1.694667 0.306,-2.244 0.0678,-0.05905 0.13888,-0.114146 0.213,-0.165 0.14304,-0.100481 0.29744,-0.1837236 0.46,-0.248 0.64,-0.2466667 1.28733,-0.094 1.942,0.458 0.17104,0.145717 0.33114,0.303809 0.479,0.473 1.65185,2.131262 3.15986,4.370221 4.514,6.702 0.9751,1.683323 1.84801,3.423802 2.614,5.212 0.19067,0.523333 0.46767,0.89 0.831,1.1 0.13671,0.07892 0.28479,0.136259 0.439,0.17 0.0811,0.01833 0.16389,0.02772 0.247,0.028 0.486,0 0.92433,-0.335 1.315,-1.005 5.22386,-8.520971 13.45225,-14.7740612 23.061,-17.525 3.90985,-1.195278 7.92902,-1.9982397 11.998,-2.397 0.0656,-0.00306 0.13131,-0.00473 0.197,-0.005 1.30733,-0.00333 2.023,0.5843333 2.147,1.763 0.114,1.0853333 -0.44833,1.7446667 -1.687,1.978 -0.18491,0.034199 -0.37151,0.058567 -0.559,0.073 -6.64067,0.3253333 -11.32833,2.1156667 -14.063,5.371 -0.86237,1.072729 -1.53936,2.282059 -2.003,3.578 -1.33533,3.508667 -2.003,8.539 -2.003,15.091 -8e-5,0.222335 5.8e-4,0.44467 0.002,0.667 z m 0.293,31.934 0.391,49.707 c -0.003,0.29727 0.0416,0.59312 0.133,0.876 0.16541,0.49006 0.4987,0.90588 0.941,1.174 l 15.039,8.985 c 0.24898,0.13073 0.50736,0.24271 0.773,0.335 1.16267,0.39867 2.17733,0.243 3.044,-0.467 0.0992,-0.0816 0.19434,-0.16801 0.285,-0.259 l 1.66,-1.855 c 0.026,2.5e-4 0.0519,-0.003 0.077,-0.01 0.058,-0.0167 0.0947,-0.0543 0.11,-0.113 0.006,-0.0239 0.008,-0.0484 0.008,-0.073 3.28392,-4.81795 5.55985,-10.2501 6.691,-15.97 0.83619,-4.12869 1.24468,-8.332561 1.219,-12.545 -0.0154,-4.050195 -0.61797,-8.076758 -1.789,-11.954 -0.59888,-1.949369 -1.35572,-3.846656 -2.263,-5.673 -2.14122,-4.272866 -4.72182,-8.311001 -7.7,-12.049 -0.8718,-1.101515 -1.77244,-2.179889 -2.701,-3.234 -2.54467,-2.781333 -6.945,-2.550667 -13.201,0.692 -0.65335,0.339622 -1.29853,0.694722 -1.935,1.065 -0.17548,0.106719 -0.33139,0.242681 -0.461,0.402 -0.20667,0.259333 -0.31333,0.568667 -0.32,0.928 -4.6e-4,0.01266 -7.9e-4,0.02533 -0.001,0.038 z"
       id="path3" />
    <path
       style="font-size:12px;fill:#000000;fill-rule:evenodd;stroke:none;stroke-width:4;stroke-linecap:round"
       d="m 131.656,114.747 0.098,-40.722 c 0.006,-1.8814 -0.0638,-3.76228 -0.21,-5.638 -0.49133,-6.010667 -1.848,-9.894 -4.07,-11.65 -0.49729,-0.397634 -1.06672,-0.695426 -1.677,-0.877 -0.456,-0.325333 -0.684,-0.732 -0.684,-1.22 0,-0.488667 0.228,-0.928333 0.684,-1.319 3.73629,-2.719752 7.00617,-6.028135 9.682,-9.796 1.76457,-2.464003 3.32732,-5.066458 4.673,-7.782 0.22733,-0.511333 0.60367,-0.799333 1.129,-0.864 0.0793,-0.0099 0.1591,-0.01492 0.239,-0.015 0.23615,-0.0036 0.47045,0.04208 0.688,0.134 0.25933,0.113333 0.47867,0.298667 0.658,0.556 0.0425,0.06094 0.0819,0.12402 0.118,0.189 2.01315,4.464022 4.7856,8.544882 8.194,12.061 2.0094,2.047043 4.23971,3.864829 6.65,5.42 0.17499,0.146518 0.32466,0.32085 0.443,0.516 0.16103,0.272356 0.24438,0.583619 0.241,0.9 0,0.473333 -0.19067,0.839333 -0.572,1.098 -0.0672,0.04529 -0.13736,0.08605 -0.21,0.122 -1.61014,0.509095 -2.95308,1.635226 -3.735,3.132 -1.68,2.866667 -2.52,7.562 -2.52,14.086 -2.2e-4,0.315674 0.001,0.631346 0.005,0.947 V 108.4 c -0.005,1.3223 0.0524,2.64411 0.172,3.961 0.41467,4.358 1.582,7.13133 3.502,8.32 0.0123,0.008 0.0246,0.0154 0.037,0.023 2.354,1.56933 4.39433,1.257 6.121,-0.937 0.29909,-0.38409 0.57076,-0.78875 0.813,-1.211 0.68467,-1.18267 1.47367,-1.48767 2.367,-0.915 0.0418,0.0272 0.0828,0.0555 0.123,0.085 0.89933,0.65133 0.927,1.70167 0.083,3.151 -0.0429,0.0734 -0.0869,0.14602 -0.132,0.218 -1.95267,2.99467 -3.79167,6.05467 -5.517,9.18 -1.70131,3.08246 -3.44313,6.14239 -5.225,9.179 -1.10667,1.888 -2.63667,2.246 -4.59,1.074 -5.88733,-2.80533 -10.3,-6.06633 -13.238,-9.783 -1.84135,-2.28347 -3.15627,-4.94506 -3.851,-7.795 -0.0912,-0.36509 -0.33085,-0.67544 -0.661,-0.856 -0.14733,-0.0873 -0.31767,-0.16 -0.511,-0.218 -0.0774,-0.0232 -0.15581,-0.0429 -0.235,-0.059 -0.52733,-0.10733 -0.905,0.01 -1.133,0.352 -3.78242,3.05558 -7.49407,6.19775 -11.132,9.424 -1.08615,0.95679 -2.13238,1.95797 -3.136,3.001 -1.98,2.07067 -3.442,4.01867 -4.386,5.844 -0.0324,0.0625 -0.0644,0.12512 -0.096,0.188 -1.06,1.49733 -2.21,1.53033 -3.45,0.099 -0.0556,-0.0646 -0.10996,-0.13028 -0.163,-0.197 -2.98267,-3.47067 -5.909,-6.26367 -8.779,-8.379 -0.56085,-0.41425 -1.13411,-0.81144 -1.719,-1.191 -3.418,-2.21333 -7.959,-4.00367 -13.623,-5.371 -0.219236,-0.0798 -0.433896,-0.17156 -0.643,-0.275 -0.746667,-0.37333 -1.12,-0.80267 -1.12,-1.288 5.2e-5,-0.0324 0.0017,-0.0648 0.005,-0.097 0.06533,-0.65133 0.488667,-1.13967 1.27,-1.465 1.046122,-0.38457 2.01554,-0.95207 2.863,-1.676 0.57247,-0.48425 1.10118,-1.01798 1.58,-1.595 0.50264,-0.62014 0.89501,-1.32201 1.16,-2.075 0.56133,-1.51667 0.842,-3.478 0.842,-5.884 V 69.923 c 0,-6.640667 -1.237,-10.709667 -3.711,-12.207 -0.3495,-0.212015 -0.71493,-0.39657 -1.093,-0.552 -2.425333,-0.982667 -4.404667,-0.08267 -5.938,2.7 -0.09672,0.169789 -0.205326,0.332528 -0.325,0.487 -0.596667,0.757333 -1.255333,0.89 -1.976,0.398 -0.0478,-0.03277 -0.09449,-0.06712 -0.14,-0.103 -0.912,-0.716667 -0.879667,-1.856 0.097,-3.418 1.90913,-2.964997 3.716842,-5.994082 5.42,-9.082 1.737011,-3.145854 3.51114,-6.271072 5.322,-9.375 0.16085,-0.288843 0.34833,-0.56203 0.56,-0.816 0.926,-1.093333 2.05767,-1.27 3.395,-0.53 0.15069,0.08363 0.29751,0.174058 0.44,0.271 h 0.098 c 3.06738,1.572629 5.93574,3.506352 8.544,5.76 5.84177,4.836927 9.19538,12.046936 9.131,19.631 l -0.195,50 c -0.003,0.43504 0.0282,0.86964 0.092,1.3 0.18267,1.184 0.64033,2.02033 1.373,2.509 l 8.398,6.933 c 0.14376,0.13166 0.30535,0.24241 0.48,0.329 0.532,0.25867 1.12067,0.21433 1.766,-0.133 5.274,-4.16667 8.692,-6.836 10.254,-8.008 0.27521,-0.18326 0.46736,-0.46735 0.535,-0.791 0.0355,-0.15715 0.0526,-0.3179 0.051,-0.479 z"
       id="path1" />
  </g>
</svg>
