<svg version="1.1" viewBox="0 0 347.81 145.7" xmlns="http://www.w3.org/2000/svg">
<g transform="translate(0 .0001202)" fill-rule="evenodd" style="paint-order:normal">
<g transform="translate(-54)" style="paint-order:normal">
<path d="m309.61.392c-1.2318-.27456-2.4911-.40576-3.753-.391-1.3472-.002888-2.6878.1891-3.98.57-1.7149.51964-3.3258 1.3349-4.76 2.409-2.702 1.9853-4.1507 4.4753-4.346 7.47-.0453.55117-.0677 1.104-.067 1.657 0 2.666.51067 5.5317 1.532 8.597.0281.08385.0568.16752.086.251.58467 1.6813 1.2887 2.9637 2.112 3.847.79527.92574 1.9526 1.4615 3.173 1.469.0427.000928.0853.0013.128.001 1.7847 0 4.0383-1.021 6.761-3.063.90658-.68506 1.785-1.4067 2.633-2.163.89759-.78981 1.7474-1.6323 2.545-2.523 2.4-2.7007 3.749-5.3917 4.047-8.073.0164-.17713.0304-.35448.042-.532.34933-5.298-1.7017-8.4733-6.153-9.526z" style="paint-order:normal"/>
<path d="m291.7 115.92-.683-53.516c0-.90667-.105-1.691-.315-2.353-.0726-.2314-.16321-.45675-.271-.674-.19235-.31507-.39821-.62168-.617-.919-1.3-1.7513-2.429-2.0633-3.387-.936l-3.906 4.004c-1.004 1.1293-1.9627 1.291-2.876.485-.035-.03089-.0694-.06256-.103-.095-.19361-.18206-.34986-.40013-.46-.642-.36933-.83533-.0697-1.8907.899-3.166 2.2591-2.8157 4.3954-5.7278 6.403-8.728.44455-.66694.88191-1.3386 1.312-2.015 2.2787-3.5807 4.6227-7.1287 7.032-10.644.1453-.17551.30852-.33537.487-.477.92467-.72067 1.9667-.529 3.126.575 1.3097 1.5937 2.6612 3.1525 4.053 4.675 1.2755 1.396 2.5945 2.7517 3.955 4.065 1.0269.97867 2.1072 1.8997 3.236 2.759 2.178 1.6733 4.81 3.4067 7.896 5.2 1.3673.52067 1.9697 1.139 1.807 1.855-.0402.19022-.11109.37262-.21.54-.194.31667-.48733.516-.88.598-.0753.01573-.15141.02709-.228.034-1.6927.65133-3.19 1.7743-4.492 3.369-.4802.60696-.856 1.2896-1.112 2.02-.47733 1.2967-.75167 2.9227-.823 4.878-.0128.35352-.0191.70725-.019 1.061v41.309c0 6.6407 1.237 10.71 3.711 12.207 2.578 1.5227 4.734 1.0953 6.468-1.282.20262-.27922.39087-.5686.564-.867.65067-1.2367 1.448-1.5133 2.392-.83.89933.65133.927 1.7017.083 3.151-.0429.0733-.0869.14602-.132.218-1.9527 3.06-3.7753 6.1363-5.468 9.229s-3.418 6.1687-5.176 9.228c-.20189.30313-.43372.58521-.692.842-1.102 1.0753-2.4013 1.1853-3.898.33-5.088-2.4307-9.084-5.328-11.988-8.692-.43507-.50408-.85006-1.0252-1.244-1.562-1.8937-2.619-3.1967-5.6176-3.819-8.789-.42836-2.1213-.63779-4.2809-.625-6.445z" style="paint-order:normal"/>
</g>
<path d="m333.71 70.704v.196l.293 44.628c-.008.77534.0793 1.5487.259 2.303.36545 1.675 1.4742 3.0922 3.012 3.85.47805.24779.99907.40189 1.535.454 1.6453.15067 3.385-.73033 5.219-2.643.11028-.11515.21896-.23183.326-.35.90067-1.0207 1.7597-1.3357 2.577-.945.0712.0343.14029.0727.207.115.83533.526.891 1.4493.167 2.77-.0382.07-.0775.1393-.118.208-2.344 3.516-4.6067 6.9667-6.788 10.352-2.157 3.34-4.0037 6.8704-5.517 10.547l-.098.097c-.10648.17807-.22756.34698-.362.505-.78467.906-1.699.81633-2.743-.269-.0736-.0768-.14532-.15555-.215-.236-.67636-.75657-1.5587-1.2994-2.539-1.562-3.0287-.60368-5.8461-1.9912-8.171-4.024-2.8293-2.534-4.7933-6.108-5.892-10.722-.13-.39067-.45533-.78133-.976-1.172-.1109-.0126-.22239-.0193-.334-.02-.452-.001-.86167.103-1.229.313l-5.224 3.991-5.713 4.358c-3.9713 3.0273-7.6497 5.8107-11.035 8.35-1.026.79733-1.8647 1.196-2.516 1.196-.0899.00045-.17962-.008-.268-.024-.19697-.0318-.37986-.12208-.525-.259-.292-.28533-.39367-.78367-.305-1.495v-.004c-.0215-.39142-.12763-.77352-.311-1.12-.70667-1.4907-2.621-3.7213-5.743-6.692-9.382-8.7346-14.877-20.861-15.26-33.674-.062-1.1513-.093-2.32-.093-3.506.00011-.56273.007-1.1254.021-1.688.28535-11.239 5.0465-21.899 13.226-29.613 1.8304-1.8061 3.7732-3.4945 5.817-5.055 3.7122-2.8101 7.2504-5.843 10.595-9.082 2.2863-2.2358 4.337-4.7004 6.12-7.355.93503-1.3832 1.8092-2.8065 2.62-4.266.98-1.898 2.3053-2.0683 3.976-.511.10975.1025.21679.20787.321.316 2.8641 3.2743 5.9651 6.3336 9.278 9.153 6.8033 5.7267 13.607 9.2837 20.41 10.671.29931.05511.59595.12385.889.206 2.24.63667 2.3013 1.7803.184 3.431-.0322.02483-.0645.0495-.097.074-1.0327.73255-1.96 1.6033-2.756 2.588-1.294 1.6026-2.0696 3.561-2.224 5.615zm-19.922 43.262.879-44.824c.005-.2407-.0443-.47943-.143-.699-.124-.264-.32767-.47833-.611-.643-.163-.09313-.33613-.16728-.516-.221-3.6547-1.002-7.87-3.659-12.646-7.971-.51081-.46133-1.0155-.92937-1.514-1.404-.29007-.35046-.59711-.68653-.92-1.007-2.1793-2.1473-3.956-2.1047-5.33.128-5.5628 8.1026-8.5294 17.706-8.506 27.534.003 2.1887.13656 4.3753.401 6.548.43766 3.959 1.189 7.877 2.247 11.717 3.108 10.971 8.609 18.036 16.503 21.194.0647 0 .12967.0323.195.097.46512.14706.95019.22127 1.438.22 2.012 0 4.298-1.2077 6.858-3.623.47156-.44632.92911-.90721 1.372-1.382.18267-.274.30133-.53167.356-.773.0228-.0987.0346-.19968.035-.301-.0653-.97667-.098-2.5067-.098-4.59z" style="paint-order:normal"/>
<path d="m82.52 80.86v.293c-.50378 4.4656-1.2978 8.8936-2.377 13.256-1.14 4.53-2.5723 8.67-4.297 12.42-.56413 1.2284-1.1722 2.4362-1.823 3.621-1.743 3.2068-3.7602 6.2569-6.029 9.116-2.818 3.514-5.8863 6.4323-9.205 8.755l-.098.196c-1.7834 1.5182-3.6896 2.8859-5.699 4.089-1.2913.7771-2.6155 1.4981-3.969 2.161-1.8855.92247-3.7386 1.9097-5.556 2.96-1.4679.84889-2.9045 1.7508-4.307 2.704-1.6227 1.1013-2.7297 1.222-3.321.362-.07676-.11378-.14176-.23507-.194-.362-3.646-8.6587-13.705-15.267-30.176-19.824-.97667-.19533-1.4977-.68367-1.563-1.465-.064667-.78133.29333-1.3347 1.074-1.66 3.1853-1.214 5.134-4.0963 5.846-8.647.21398-1.4373.31662-2.8889.307-4.342l-.195-40.625c0-2.2787 1.0417-3.3527 3.125-3.222.89562.11654 1.7978.175 2.701.175 5.61 0 11.22-2.272 16.83-6.816.20007-.13679.35304-.33202.438-.559.05667-.14133.097-.302.121-.482.01835-.14058.02736-.28223.027-.424-.11451-.47024-.42205-.87037-.847-1.102-.0426-.02468-.08595-.04802-.13-.07-2.4682-1.0392-4.9423-2.0646-7.422-3.076-2.474-1.0093-4.8827-2.0997-7.226-3.271-2.2306-.9923-4.3641-2.1898-6.373-3.577-2.938-2.054-5.2897-4.41-7.055-7.068-1.2521-1.8645-2.3255-3.8429-3.206-5.909-.96591-2.259-1.6125-4.6416-1.921-7.079v-.488c.34298-2.8835 1.0604-5.71 2.134-8.408 2.9653-7.1933 8.504-11.324 16.616-12.393 1.0247-.158 1.769-.101 2.233.171.29725.1696.50005.46643.55.805.01394.076436.02396.15354.03.231.05667.76867-.34667 1.274-1.21 1.516-.01364.00376-.02731.00742-.041.011-1.1479.30608-2.2534.7535-3.291 1.332-2.9173 1.6713-4.3267 4.2547-4.228 7.75.05467 2.458 1.243 4.7667 3.565 6.926.46771.43293.95629.84275 1.464 1.228 2.8414 2.1474 6.0852 3.7022 9.539 4.572.6728.17491 1.3512.32766 2.034.458.06467 0 .12967.03233.195.097 8.2028 3.0086 16.092 6.811 23.556 11.353 4.2279 2.5891 8.2822 5.4515 12.137 8.569 10.124 8.2033 15.87 20.117 17.237 35.742zm-44.825-26.562-4.59 3.613c-.39958.2942-.75955.63871-1.071 1.025-.57396.70294-.88575 1.5835-.882 2.491l.391 48.242c-.0031.27418.0336.54737.109.811.15882.54735.54635.9994 1.063 1.24l21.094 12.402c.23453.14632.48269.26956.741.368 1.2173.45533 2.364.135 3.44-.961.17919-.18355.34811-.37684.506-.579 2.893-4.1518 4.9181-8.8448 5.954-13.798 1.1373-5.1487 1.4693-10.906.996-17.271-.04714-.6306-.10148-1.2606-.163-1.89-.42081-4.8065-1.5396-9.526-3.321-14.01-2.7781-6.9033-7.5128-12.844-13.622-17.093-.51823-.34854-1.0475-.68038-1.587-.995-1.8067-1.062-4.2727-2.3253-7.398-3.79-.11843-.05337-.2421-.09426-.369-.122-.354-.076-.69533-.027-1.024.147-.09334.04954-.18262.10639-.267.17z" style="paint-order:normal"/>
<path d="m184.36 31.591.293 25.293c-.001.17382.0121.34743.04.519.0307.18.079.33867.145.476.10235.2248.27839.4079.499.519.19018.09408.39984.14204.612.14.25733 0 .537-.06367.839-.191.0707-.02973.14039-.06175.209-.096 3.6346-1.9389 7.2057-3.9943 10.708-6.163.51738-.31978 1.0334-.64178 1.548-.966 4.134-2.604 7.9587-5.5663 11.474-8.887.20196-.2144.41281-.42025.632-.617 1.9653-1.752 3.1547-1.123 3.568 1.887.17867 2.1721 1.0545 4.2283 2.497 5.862.1707.19968.34745.3941.53.583 1.8227 1.888 3.4503 3.7437 4.883 5.567 7.4867 9.7007 10.97 20.085 10.449 31.152-.2132 4.2984-.98915 8.5503-2.308 12.647-1.7714 5.4841-4.7925 10.482-8.825 14.599-2.4844 2.5907-5.1233 5.0288-7.902 7.301-.47115.38635-.94584.76836-1.424 1.146-1.9485 1.5324-3.8034 3.18-5.555 4.934-1.1162 1.1208-2.179 2.2934-3.185 3.514l-.098-.196c-1.3823 1.7908-2.7102 3.623-3.982 5.494-1.232 1.8193-2.317 3.5603-3.255 5.223-.54812.96852-1.0657 1.954-1.552 2.955-.82867 1.7167-1.8727 1.8727-3.132.468-.13398-.15073-.26175-.30686-.383-.468-3.7535-4.5569-8.2481-8.4488-13.295-11.512-4.088-2.54-8.7077-4.775-13.859-6.705-1.8353-.68582-3.6897-1.3194-5.561-1.9-.25048-.0784-.4968-.16952-.738-.273-.878-.382-1.317-.831-1.317-1.347-8e-5-.0297.001-.0594.004-.089.0553-.58067.439-1.0087 1.151-1.284.13452-.0514.27172-.0954.411-.132 2.1993-.76699 3.9535-2.4569 4.802-4.626.93133-2.128 1.3817-4.9153 1.351-8.362l-.196-59.18c-.0135-2.8536-.14556-5.7054-.396-8.548-.252-2.772-.62367-5.3323-1.115-7.681-.37523-1.8296-.8652-3.6339-1.467-5.402-.90347-2.649-1.9925-5.2311-3.259-7.727-1.1524-2.2709-2.4963-4.4394-4.017-6.482-.10155-.16775-.19305-.34139-.274-.52-.424-.94667-.322-1.6947.306-2.244.0678-.05905.13888-.11415.213-.165.14304-.10048.29744-.18372.46-.248.64-.24667 1.2873-.094 1.942.458.17104.14572.33114.30381.479.473 1.6518 2.1313 3.1599 4.3702 4.514 6.702.9751 1.6833 1.848 3.4238 2.614 5.212.19067.52333.46767.89.831 1.1.13671.07892.28479.13626.439.17.0811.01833.16389.02772.247.028.486 0 .92433-.335 1.315-1.005 5.2239-8.521 13.452-14.774 23.061-17.525 3.9098-1.1953 7.929-1.9982 11.998-2.397.0656-.00306.13131-.00473.197-.005 1.3073-.00333 2.023.58433 2.147 1.763.114 1.0853-.44833 1.7447-1.687 1.978-.18491.034199-.37151.058567-.559.073-6.6407.32533-11.328 2.1157-14.063 5.371-.86237 1.0727-1.5394 2.2821-2.003 3.578-1.3353 3.5087-2.003 8.539-2.003 15.091-8e-5.22234.00058.44467.002.667zm.293 31.934.391 49.707c-.003.29727.0416.59312.133.876.16541.49006.4987.90588.941 1.174l15.039 8.985c.24898.13073.50736.24271.773.335 1.1627.39867 2.1773.243 3.044-.467.0992-.0816.19434-.16801.285-.259l1.66-1.855c.026.00025.0519-.003.077-.01.058-.0167.0947-.0543.11-.113.006-.0239.008-.0484.008-.073 3.2839-4.818 5.5598-10.25 6.691-15.97.83619-4.1287 1.2447-8.3326 1.219-12.545-.0154-4.0502-.61797-8.0768-1.789-11.954-.59888-1.9494-1.3557-3.8467-2.263-5.673-2.1412-4.2729-4.7218-8.311-7.7-12.049-.8718-1.1015-1.7724-2.1799-2.701-3.234-2.5447-2.7813-6.945-2.5507-13.201.692-.65335.33962-1.2985.69472-1.935 1.065-.17548.10672-.33139.24268-.461.402-.20667.25933-.31333.56867-.32.928-.00046.01266-.00079.02533-.001.038z" style="paint-order:normal"/>
<path d="m131.66 114.75.098-40.722c.006-1.8814-.0638-3.7623-.21-5.638-.49133-6.0107-1.848-9.894-4.07-11.65-.49729-.39763-1.0667-.69543-1.677-.877-.456-.32533-.684-.732-.684-1.22 0-.48867.228-.92833.684-1.319 3.7363-2.7198 7.0062-6.0281 9.682-9.796 1.7646-2.464 3.3273-5.0665 4.673-7.782.22733-.51133.60367-.79933 1.129-.864.0793-.0099.1591-.01492.239-.015.23615-.0036.47045.04208.688.134.25933.11333.47867.29867.658.556.0425.06094.0819.12402.118.189 2.0132 4.464 4.7856 8.5449 8.194 12.061 2.0094 2.047 4.2397 3.8648 6.65 5.42.17499.14652.32466.32085.443.516.16103.27236.24438.58362.241.9 0 .47333-.19067.83933-.572 1.098-.0672.04529-.13736.08605-.21.122-1.6101.5091-2.9531 1.6352-3.735 3.132-1.68 2.8667-2.52 7.562-2.52 14.086-.00022.31567.001.63135.005.947v34.375c-.005 1.3223.0524 2.6441.172 3.961.41467 4.358 1.582 7.1313 3.502 8.32.0123.008.0246.0154.037.023 2.354 1.5693 4.3943 1.257 6.121-.937.29909-.38409.57076-.78875.813-1.211.68467-1.1827 1.4737-1.4877 2.367-.915.0418.0272.0828.0555.123.085.89933.65133.927 1.7017.083 3.151-.0429.0734-.0869.14602-.132.218-1.9527 2.9947-3.7917 6.0547-5.517 9.18-1.7013 3.0825-3.4431 6.1424-5.225 9.179-1.1067 1.888-2.6367 2.246-4.59 1.074-5.8873-2.8053-10.3-6.0663-13.238-9.783-1.8414-2.2835-3.1563-4.9451-3.851-7.795-.0912-.36509-.33085-.67544-.661-.856-.14733-.0873-.31767-.16-.511-.218-.0774-.0232-.15581-.0429-.235-.059-.52733-.10733-.905.01-1.133.352-3.7824 3.0556-7.4941 6.1978-11.132 9.424-1.0862.95679-2.1324 1.958-3.136 3.001-1.98 2.0707-3.442 4.0187-4.386 5.844-.0324.0625-.0644.12512-.096.188-1.06 1.4973-2.21 1.5303-3.45.099-.0556-.0646-.10996-.13028-.163-.197-2.9827-3.4707-5.909-6.2637-8.779-8.379-.56085-.41425-1.1341-.81144-1.719-1.191-3.418-2.2133-7.959-4.0037-13.623-5.371-.21924-.0798-.4339-.17156-.643-.275-.74667-.37333-1.12-.80267-1.12-1.288 5.2e-5-.0324.0017-.0648.005-.097.06533-.65133.48867-1.1397 1.27-1.465 1.0461-.38457 2.0155-.95207 2.863-1.676.57247-.48425 1.1012-1.018 1.58-1.595.50264-.62014.89501-1.322 1.16-2.075.56133-1.5167.842-3.478.842-5.884v-41.309c0-6.6407-1.237-10.71-3.711-12.207-.3495-.21202-.71493-.39657-1.093-.552-2.4253-.98267-4.4047-.08267-5.938 2.7-.09672.16979-.20533.33253-.325.487-.59667.75733-1.2553.89-1.976.398-.0478-.03277-.09449-.06712-.14-.103-.912-.71667-.87967-1.856.097-3.418 1.9091-2.965 3.7168-5.9941 5.42-9.082 1.737-3.1459 3.5111-6.2711 5.322-9.375.16085-.28884.34833-.56203.56-.816.926-1.0933 2.0577-1.27 3.395-.53.15069.08363.29751.17406.44.271h.098c3.0674 1.5726 5.9357 3.5064 8.544 5.76 5.8418 4.8369 9.1954 12.047 9.131 19.631l-.195 50c-.003.43504.0282.86964.092 1.3.18267 1.184.64033 2.0203 1.373 2.509l8.398 6.933c.14376.13166.30535.24241.48.329.532.25867 1.1207.21433 1.766-.133 5.274-4.1667 8.692-6.836 10.254-8.008.27521-.18326.46736-.46735.535-.791.0355-.15715.0526-.3179.051-.479z" style="paint-order:normal"/>
</g>
</svg>
